/* XPM */
static char *result[] = {
/* columns rows colors chars-per-pixel */
"80 80 241 2 ",
"   c #330303",
".  c #3B0803",
"X  c #3F1B08",
"o  c #471405",
"O  c #541C04",
"+  c #490904",
"@  c #5C2A04",
"#  c #572505",
"$  c #46220A",
"%  c #622C04",
"&  c #682C04",
"*  c #653204",
"=  c #6B3303",
"-  c #683A09",
";  c #733603",
":  c #733C03",
">  c #7A3D03",
",  c #753B08",
"<  c #743C10",
"1  c #754204",
"2  c #7B4403",
"3  c #7B470A",
"4  c #794C13",
"5  c #6B430F",
"6  c #813F05",
"7  c #824404",
"8  c #844B04",
"9  c #8B4C04",
"0  c #874A0A",
"q  c #924D04",
"w  c #9D4F04",
"e  c #8C5304",
"r  c #8C5B0B",
"t  c #895208",
"y  c #935405",
"u  c #9C5404",
"i  c #945A05",
"p  c #9B5B04",
"a  c #93550A",
"s  c #955A0B",
"d  c #9C5B0A",
"f  c #9B550A",
"g  c #8B5517",
"h  c #955D12",
"j  c #995B16",
"k  c #914F10",
"l  c #A35D05",
"z  c #AC5D05",
"x  c #A55807",
"c  c #B35F08",
"v  c #A85C11",
"b  c #9C6305",
"n  c #95630C",
"m  c #9C650C",
"M  c #9C6A0D",
"N  c #9B6907",
"B  c #9C6314",
"V  c #9A6618",
"C  c #A46304",
"Z  c #AA6505",
"A  c #A36B05",
"S  c #AA6C05",
"D  c #A3620B",
"F  c #AC650B",
"G  c #A56B0A",
"H  c #AD6C0B",
"J  c #B26505",
"K  c #B26C05",
"L  c #BA6D05",
"P  c #B3650B",
"I  c #B26C0C",
"U  c #B96B0C",
"Y  c #AD7109",
"T  c #A97206",
"R  c #B37206",
"E  c #B4730C",
"W  c #BC7B0C",
"Q  c #B87709",
"!  c #A46513",
"~  c #AB6412",
"^  c #AC6C15",
"/  c #AC6C1A",
"(  c #A46819",
")  c #B26C13",
"_  c #B46E1A",
"`  c #BB6E18",
"'  c #AC7415",
"]  c #AE711B",
"[  c #A9791F",
"{  c #B37413",
"}  c #B97313",
"|  c #B47A13",
" . c #BC7B11",
".. c #B4741B",
"X. c #BB751C",
"o. c #B27D1B",
"O. c #BC791C",
"+. c #8B5E25",
"@. c #9C6823",
"#. c #9B6E31",
"$. c #986F35",
"%. c #A26A26",
"&. c #AA7526",
"*. c #B47522",
"=. c #BC7C24",
"-. c #B87925",
";. c #A47535",
":. c #B97C35",
">. c #C2740B",
",. c #C47B0B",
"<. c #C47507",
"1. c #C37C14",
"2. c #CC7E14",
"3. c #C57816",
"4. c #C26D08",
"5. c #C07E28",
"6. c #9A7648",
"7. c #A87A43",
"8. c #BE810B",
"9. c #BB8207",
"0. c #BB8316",
"q. c #BB8329",
"w. c #BC8537",
"e. c #C2850D",
"r. c #CA870D",
"t. c #D2930D",
"y. c #C48414",
"u. c #C48B13",
"i. c #CC8C15",
"p. c #C38B1B",
"a. c #CA8B1B",
"s. c #C88417",
"d. c #D38919",
"f. c #CD941C",
"g. c #CC9114",
"h. c #D5941B",
"j. c #D2991C",
"k. c #DC9B1B",
"l. c #D89417",
"z. c #CE910D",
"x. c #E69A1C",
"c. c #E68D11",
"v. c #D9A11C",
"b. c #E7A11C",
"n. c #C68D23",
"m. c #CC8A23",
"M. c #CA8428",
"N. c #D68D27",
"B. c #CE9324",
"V. c #CA9429",
"C. c #D39323",
"Z. c #D59A23",
"A. c #DA9B22",
"S. c #D3942B",
"D. c #DC952B",
"F. c #D59A2C",
"G. c #DB9C2D",
"H. c #DB9424",
"J. c #C58435",
"K. c #D48B33",
"L. c #CD9733",
"P. c #DC9434",
"I. c #D59D33",
"U. c #DC9B33",
"Y. c #D3933C",
"T. c #D59A3C",
"R. c #DB9D3D",
"E. c #D89436",
"W. c #E59D28",
"Q. c #E39B3C",
"!. c #E49A35",
"~. c #DEA32E",
"^. c #DAA126",
"/. c #DDA435",
"(. c #DDA33C",
"). c #D9A436",
"_. c #E1A42C",
"`. c #E9A628",
"'. c #E4A435",
"]. c #E3A43B",
"[. c #ECAC3C",
"{. c #E7A737",
"}. c #F1AE3B",
"|. c #F0AE37",
" X c #AF8652",
".X c #AA8A64",
"XX c #C38949",
"oX c #CC9445",
"OX c #DD9E4B",
"+X c #D79A44",
"@X c #D29E59",
"#X c #E39C44",
"$X c #DCA548",
"%X c #DCA453",
"&X c #E4A442",
"*X c #EDA444",
"=X c #E3AA42",
"-X c #EBAC43",
";X c #E3A44B",
":X c #EBAC4A",
">X c #E6A84C",
",X c #F1A744",
"<X c #ECB14A",
"1X c #E7B04A",
"2X c #F1B346",
"3X c #E5AB53",
"4X c #EAAC53",
"5X c #ECAC5C",
"6X c #E6A757",
"7X c #F2AF53",
"8X c #EDB35C",
"9X c #E7B254",
"0X c #F2B554",
"qX c #F2B857",
"wX c #DBA865",
"eX c #DAAD6F",
"rX c #E8AC62",
"tX c #EDB463",
"yX c #EBB46A",
"uX c #EAB767",
"iX c #F3BA65",
"pX c #F3BC6C",
"aX c #F4B968",
"sX c #EBB773",
"dX c #F3BD73",
"fX c #F2B876",
"gX c #F7C26D",
"hX c #F5C271",
"jX c #F5C37B",
"kX c #F9C575",
"lX c #EAC37B",
"zX c #DCB585",
"xX c #E7BB84",
"cX c #ECC081",
"vX c #F4C484",
"bX c #F7C988",
"nX c #EBC597",
"mX c #F5CE96",
"MX c #F3D29C",
"NX c #F2D1A6",
"BX c None",
/* pixels */
"BXBXBXBXBXBXBXBXBXBXBXBXBXBXBXBXBXBXBXBXBXBXBXBXBXBXBXBXBXBXBXBXBXBXBXBXBXBXBXBXBXBXBXBXBXBXBXBXBXBXBXBXBXBXBXBXBXBXBXBXBXBXBXBXBXBXBXBXBXBXBXBXBXBXBXBXBXBXBXBX",
"BXBXBXBXBXBXBXBXBXBXBXBXBXBXBXBXBXBXBXBXBXBXBXBXBXBXBXBXBXBXBXBXBXBXBXBXBXBXBXBXBXBXBXBXBXBXBXBXBXBXBXBXBXBXBXBXBXBXBXBXBXBXBXBXBXBXBXBXBXBXBXBXBXBXBXBXBXBXBXBX",
"BXBXBXBXBXBXBXBXBXBXBXBXBXBXBXBXBXBXBXBXBXBXBXBXBXBXBXBXBXBXBXBXBXBXBXBXBXBXBXBXBXBXBXBXBXBXBXBXBXBXBXBXBXBXBXBXBXBXBXBXBXBXBXBXBXBXBXBXBXBXBXBXBXBXBXBXBXBXBXBX",
"BXBXBXBXBXBXBXBXBXBXBXBXBXBXBXBXBXBXBXBXBXBXBXBXBXBXBXBXBXBXBXBXBXBXBXBXBXBXBXBXBXBXBXBXBXBXBXBXBXBXBXBXBXBXBXBXBXBXBXBXBXBXBXBXBXBXBXBXBXBXBXBXBXBXBXBXBXBXBXBX",
"BXBXBXBXBXBXBXBXBXBXBXBXBXBXBXBXBXBXBXBXBXBXBXBXBXBXBXBXBXBXBXBXBXBXBXBXBXBXBXBXBXBXBXBXBXBXBXBXBXBXBXBXBXBXBXBXBXBXBXBXBXBXBXBXBXBXBXBXBXBXBXBXBXBXBXBXBXBXBXBX",
"BXBXBXBXBXBXBXBXBXBXBXBXBXBXBXBXBXBXBXBXBXBXBXBXBXBXBXBXBXBXBXBXBXBXBXBXBXBXBXBXBXBXBXBXBXBXBXBXBXBXBXBXBXBXBXBXBXBXBXBXBXBXBXBXBXBXBXBXBXBXBXBXBXBXBXBXBXBXBXBX",
"BXBXBXBXBXBXBXBXBXBXBXBXBXBXBXBXBXBXBXBXBXBXBXBXBXBXBXBXBXBXBXBXBXBXBXBXBXBXBXBXBXBXBXBXBXBXBXBXBXBXBXBXBXBXBXBXBXBXBXBXBXBXBXBXBXBXBXBXBXBXBXBXBXBXBXBXBXBXBXBX",
"BXBXBXBXBXBXBXBXBXBXBXBXBXBXBXBXBXBXBXBXBXBXBXBXBXBXBXBXBXBXBXBXBXBXBXBXBXBXBXBXBXBXBXBXBXBXBXBXBXBXBXBXBXBXBXBXBXBXBXBXBXBXBXBXBXBXBXBXBXBXBXBXBXBXBXBXBXBXBXBX",
"BXBXBXBXBXBXBXBXBXBXBXBXBXBXBXBXBXBXBXBXBXBXBXBXBXBXBXBXBXBXBXBXBXBXBXBXBXBXBXBXBXBXBXBXBXBXBXBXBXBXBXBXBXBXBXBXBXBXBXBXBXBXBXBXBXBXBXBXBXBXBXBXBXBXBXBXBXBXBXBX",
"BXBXBXBXBXBXBXBXBXBXBXBXBXBXBXBXBXBXBXBXBXBXBXBXBXBXBXBXBXBXBXBXBXBXBXBXBXBXBXBXBXBXBXBXBXBXBXBXBXBXBXBXBXBXBXBXBXBXBXBXBXBXBXBXBXBXBXBXBXBXBXBXBXBXBXBXBXBXBXBX",
"BXBXBXBXBXBXBXBXBXBXBXBXBXBXBXBXBXBXBXBXBXBXBXBXBXBXBXBXBXBXBXBXBXBXBXBXBXBXBXBXBXBXBXBXBXBXBXBXBXBXBXBXBXBXBXBXBXBXBXBXBXBXBXBXBXBXBXBXBXBXBXBXBXBXBXBXBXBXBXBX",
"BXBXBXBXBXBXBXBXBXBXBXBXBXBXBXBXBXBXBXBXBXBXBXBXBXBXBXBXBXBXBXBXBXBXBXBXBXBXBXBXBXBXBXBXBXBXBXBXBXBXBXBXBXBXBXBXBXBXBXBXBXBXBXBXBXBXBXBXBXBXBXBXBXBXBXBXBXBXBXBX",
"BXBXBXBXBXBXBXBXBXBXBXBXBXBXBXBXBXBXBXBXBXBXBXBXBXBXBXBXBXBXBXBXBXBXBXBXBXBXBXBXBXBXBXBXBXBXBXBXBXBXBXBXBXBXBXBXBXBXBXBXBXBXBXBXBXBXBXBXBXBXBXBXBXBXBXBXBXBXBXBX",
"BXBXBXBXBXBXBXBXBXBXBXBXBXBXBXBXBXBXBXBXBXBXBXBXBXBXBXBXBXBXBXBXBXBXBXBXBXBXBXBXBXBXBXBXBXBXBXBXBXBXBXBXBXBXBXBXBXBXBXBXBXBXBXBXBXBXBXBXBXBXBXBXBXBXBXBXBXBXBXBX",
"BXBXBXBXBXBXBXBXBXBXBXBXBXBXBXBXBXBXBXBXBXBXBXBXBXBXBXBXBXBXBXBXBXBXBXBXBXBXBXBXBXBXBXBXBXBXBXBXBXBXBXBXBXBXBXBXBXBXBXBXBXBXBXBXBXBXBXBXBXBXBXBXBXBXBXBXBXBXBXBX",
"BXBXBXBXBXBXBXBXBXBXBXBXBXBXBXBXBXBXBXBXBXBXBXBXBXBXBXBXBXBXBXBXBXBXBXBXBXBXBXBXBXBXBXBXBXBXBXBXBXBXBXBXBXBXBXBXBXBXBXBXBXBXBXBXBXBXBXBXBXBXBXBXBXBXBXBXBXBXBXBX",
"BXBXBXBXBXBXBXBXBXBXBXBXBXBXBXBXBXBXBXBXBXBXBXBXBXBXBXBXBXBXBXBXBXBXBXBXBXBXBXBXBXBXBXBXBXBXBXBXBXBXBXBXBXBXBXBXBXBXBXBXBXBXBXBXBXBXBXBXBXBXBXBXBXBXBXBXBXBXBXBX",
"BXBXBXBXBXBXBXBXBXBXBXBXBXBXBXBXBXBXBXBXBXBXBXBXBXBXBXBXBXBXBXBXBXBXBXBXBXBXBXBXBXBXBXBXBXBXBXBXBXBXBXBXBXBXBXBXBXBXBXBXBXBXBXBXBXBXBXBXBXBXBXBXBXBXBXBXBXBXBXBX",
"BXBXBXBXBXBXBXBXBXBXBXBXBXBXBXBXBXBXBXBXBXBXBXBXBXBXBXBXBXBXBXBXBXBXBXBXBXBXBXBXBXBXBXBXBXBXBXBXBXBXBXBXBXBXBXBXBXBXBXBXBXBXBXBXBXBXBXBXBXBXBXBXBXBXBXBXBXBXBXBX",
"BXBXBXBXBXBXBXBXBXBXBXBXBXBXBXBXBXBXBXBXBXBXBXBXBXBXBXBXBXBXBXBXBXBXBXBXBXBXBXBXBXBXBXBXBXBXBXBXBXBXBXBXBXBXBXBXBXBXBXBXBXBXBXBXBXBXBXBXBXBXBXBXBXBXBXBXBXBXBXBX",
"BXBXBXBXBXBXBXBXBXBXBXBXBXBXBXBXBXBXBXBXBXBXBXBXBXBXBXBXBXBXBXBXBXBXBXBXBXBXBXBXBXBXBXBXBXBXBXBXBXBXBXBXBXBXBXBXBXBXBXBXBXBXBXBXBXBXBXBXBXBXBXBXBXBXBXBXBXBXBXBX",
"BXBXBXBXBXBXBXBXBXBXBXBXBXBXBXBXBXBXBXBXBXBXBXBXBXBXBXBXBXBXBXBXBXBXBXBXBXBXBXBXBXBXBXbXxXpX8X7XiXbXBXBXBXBXBXBXBXBXBXBXBXBXBXBXBXBXBXBXBXBXBXBXBXBXBXBXBXBXBXBX",
"BXBXBXBXBXBXBXBXBXBXBXBXBXBXBXBXBXBXBXBXBXBXBXBXBXBXBXBXBXBXBXBXBXBXbXmXBXBXBXBXBXBXtXsX4XrX5X#X!.[.qXvXfXfXBXBXBXBXBXBXBXBXBXBXBXBXBXBXBXBXBXBXBXBXBXBXBXBXBXBX",
"BXBXBXBXBXBXBXBXBXBXBXBXBXBXBXBXBXBXBXBXBXBXBXBXBXBXBXBXBXBXBXNXkXiXiXgXbXbXkXmXBXBX5X#XD.P.W.].].G.l.W.7X,X,XBXBXBXBXBXBXBXBXBXBXBXBXBXBXBXBXBXBXBXBXBXBXBXBXBX",
"BXBXBXBXBXBXBXBXBXBXBXBXBXBXBXBXBXBXBXBXBXBXBXBXBXBXBXBXBXBXbXiXqX0X}.-X}.iXpXgXkXtX%XR.U.K.m.a.l./.G.!.<X}.}.qXBXBXBXBXBXBXBXBXBXBXBXBXBXBXBXBXBXBXBXBXBXBXBXBX",
"BXBXBXBXBXBXBXBXBXBXBXBXBXBXBXBXBXBXBXBXBXBXBXBXBXBXBXBXMXiX0XiXaXaXrX*X8XfXpX-X:XE.K.d.D.T.+XoXm.t.~.A._.{.`.b.|.gXBXBXBXBXBXBXBXBXBXBXBXBXBXBXBXBXBXBXBXBXBXBX",
"BXBXBXBXBXBXBXBXBXBXBXBXBXBXBXBXBXBXBXBXBXBXBXBXBXBXBXNXpX-X2X2XpXjXdXdXkXkXpXhX#X2.M.1.i.a.B.B.S.S.h.Z.h.l.k._.!.x.W.jXBXBXBXBXBXBXBXBXBXBXBXBXBXBXBXBXBXBXBXBX",
"BXBXBXBXBXBXBXBXBXBXBXBXBXBXBXBXBXBXBXBXBXBXBXBXBXMXhXpXjXpX0X[.,XdXkXgXqX`.9XtXY. .U 2.y.y.r.r.i.f.B.m.S.T.F.h.x.k.c.;XBXBXBXBXBXBXBXBXBXBXBXBXBXBXBXBXBXBXBXBX",
"BXBXBXBXBXBXBXBXBXBXBXBXBXBXBXBXBXBXBXBXBXBXBXBXNX;Xc.,X}.aXqX}.x.{.fXiX2XiXuX$X3.L Z  .p.Q 9.8.e.u.e.f.S.a.B.T.C.Z.E.H.fXBXBXBXBXBXBXBXBXBXBXBXBXBXBXBXBXBXBXBX",
"BXBXBXBXBXBXBXBXBXBXBXBXBXBXBXBXBXBXBXBXBXBXBXBXxXN.#X*X,X,X7XaXpX].c.'.`.9XyXI.J Z Z W p.0.0.W W 8.8.e.r.y.L.T.T.F.Z.I.wXBXBXBXBXBXBXBXBXBXBXBXBXBXBXBXBXBXBXBX",
"BXBXBXBXBXBXBXBXBXBXBXBXBXBXBXBXBXBXBXBXBXBXBXBXrX3.K.#XW.c.x.}.yXyX4X#X;XyX6X%Xz Z Z E W 9.8.n.n.n.p.u.y.y.f.I./.R.Z.F.%XBXBXBXBXBXBXBXBXBXBXBXBXBXBXBXBXBXBXBX",
"BXBXBXBXBXBXBXBXBXBXBXBXBXBXBXBXBXBXBXBXBXBXBXxX5.X.K.P.#XW.!.5XQ.x.N.C.M.a.m.M.F C Z H H Q e.g.f.).Z.f.p.p.n.i.z.z.S.F.R.tXkXmXBXBXBXBXBXBXBXBXBXBXBXBXBXBXBXBX",
"BXBXBXBXBXBXBXBXBXBXBXBXBXBXBXBXBXBXBXBXBXBXxXoXU Z U 4.3.K.d.d.C.2.<.>.U P F ) F Z C C H E u.h.^.^.t.j.).).L.n.u.u.I.U.T.$XaXgXkXmXBXBXBXBXBXBXBXBXBXBXBXBXBXBX",
"BXBXBXBXBXBXBXBXBXBXBXBXBXBXBXBXBXBXBXBXBXBX@XX.{ x x F ` z z z J P z z u p q q D C C C I a.j.^.Z.j.F.).~.v.^.$XB.F.).h.U.%XaXbXkXkXgXBXBXBXBXBXBXBXBXBXBXBXBXBX",
"BXBXBXBXBXBXBXBXBXBXBXBXBXBXBXBXBXBXBXBXBXBXzX*.F l w w w x u l u u p y 9 6 ; ; y l C C l Q r.l.^.~.$X(.=X(.~.~.(.(.~.C.m.P.qXaXqX<X[.uXBXBXBXBXBXBXBXBXBXBXBXBX",
"BXBXBXBXBXBXBXBXBXBXBXBXBXBXBXBXBXBXBXBXMXNXeX/ ^ p u u d l p p y 9 9 7 > ; & ; > p b l p ) >.,.v.~.{.v.`.1X1X&X].~./.I.Y.OX{.<XuX1X[.yXBXBXBXBXBXBXBXBXBXBXBXBX",
"BXBXBXBXBXBXBXBXBXBXBXBXBXBXBXBXBXfXfXjXpXsX3X..D D p s s e e e 8 8 8 2 ; = % % & 0 b C u 9 Z L r.Z.'.{.U.l.(._.~.].+X(.T.*X>XpX9X].{.4XBXBXBXBXBXBXBXBXBXBXBXBX",
"BXBXBXBXBXBXBXBXBXBXBXBXBXBXBXBXkX'.3X;XD.+XOX@X*.u i y 9 0 8 2 1 2 1 ; & = O O @ , p C p 9 p z L ,.C.A.G.=X$XI.Z.S.S.E.#X>X8X`._.k.v.`.vXBXBXBXBXBXBXBXBXBXBXBX",
"BXBXBXBXBXBXBXBXBXBXBXBXBXmXmXdX<XtXxXyXwXwX%XoX*.f 9 7 ; 7 7 ; : 2 1 = % & + O O O a b p y y z F z K ,.i.U.$X%XR.T.J.T.&X-XdX{.{.~.k.b.4XBXBXBXBXBXBXBXBXBXBXBX",
"BXBXBXBXBXBXBXBXBXBXBXBXbXjXdXfXjXvXhXdXyXeX%Xw.D e > = % = % # @ * @ O o O . . . . o D b y 7 p Z I U P L >.m.+X=.M.Q S.R.:X8X<X0XaXhXpXdXvXBXBXBXBXBXBXBXBXBXBX",
"BXBXBXBXBXBXBXBXBXBXBXvXxXfX6X5XtX[.{.=X8X(.+XoX0.b b i e 3 : * @ o . .       X $ @ O 8 p p q 9 d _ ..` F ) O.w.] ! Q r.h.N.!.tXaXiXiX7X-X4XxXBXBXBXBXBXBXBXBXBX",
"BXBXBXBXBXBXBXBXBXBXfX5XaXpXrXyX>X>X6X6X;X;X$XI.8.9.Q | | T b y 2 1 .   X $ - 5 1 * = 2 u p p e 0 k ~ _ -.O.w.] ! C } ,.>.3.P.5XQ.'.b.x.Q.Q.*XBXBXBXBXBXBXBXBXBX",
"BXBXBXBXBXBXBXBXBXsXtXsX5XrX5XrXrX6X6X$X/.^.^.j.p.e.9.Q T Y G n 7 @   @ 5 4 4 N r 1 1 : e p d d a 3 < 6 j F ] h 9 l C J L 4.>.2.2.r.d.P.P.N.#XBXBXBXBXBXBXBXBXBX",
"BXBXBXBXBXBXBXBXfX6X4X4X*X5X>X7X8XrX6XOXS.g.f.B.e.W y.p.| S D 9 > & - n n n 9.4 n t 8 1 1 s p l j 3 < > B ! h : : > 9 w z 4.4.4.<.<.M.M.K.J.5.BXBXBXBXBXBXBXBXBX",
"BXBXBXBXBXBXBXBXeXM.E.!.N.P.D.D.H.l.P.U.N.a.Q L R T E Z Z p i 7 , 4 { ' -.0.q.0.' M V 8 2 2 t f 0 6 , 6 s ( 5 * = ; > 6 q u L  .L E ) } c c J.BXBXBXBXBXBXBXBXBX",
"BXBXBXBXBXBXBXBXwX:.P U ` X.M.s.,.L L L L S H S N T S p y e > 3 , ' 0.L.+XoXL.V.0.q...D p i > : ; & ; 7 0 p ! * * = = 2 7 9 q i p p x v x P oXBXBXBXBXBXBXBXBXBX",
"BXBXBXBXBXBXBXBXBXJ.*...P X.{ | E R Y Y S S S A N T b p 9 7 > 1 &.V.I.$X$X$X@XL.V.V.0.E C N b e y i d C G D ( - @ * = : 2 8 y y y u v ) 3.5.J.wXBXBXBXBXBXBXBXBX",
"BXBXBXBXBXBXBXBXBXXXJ.J.X.) S S | G A A b N G b b p e 7 > 1 3 XX#X6X6X3X9X9X9X).).V.y. .Y T G T H Z I { E { [ # # @ * 1 1 2 8 e e 9 u j v c 5.BXBXBXBXBXBXBXBXBX",
"BXBXBXBXBXBXBXBXBXXX*._ -.I S C G M b N b M N i p 8 2 2 > = j OXQ.'.{.=X9X(./.v.j.g.u.u.8.9.| T R F { =.' ' V X $ $ # - 1 3 3 e a a f d ! *. XBXBXBXBXBXBXBXBXBX",
"BXBXBXBXBXBXBXBXBXXX:./ ^ { S G p s y s n e e t 2 2 1 1 , = ( Y.;X].=X{.~.Z.j.C.t.f.f.u.u.u.u.W F x F :.0.' @.BXBXBX$ $ - 3 2 e r k s V %. XBXBXBXBXBXBXBXBXBXBX",
"BXBXBXBXBXBXBXBXBXXX*.v ! v ! f d s s e e t 2 3 3 5 - 5 - 3 *.5.M.d.H.A.Z.F.S.i.r.u.a.a.p.8.W R P z x =.q.[ BXBXBXBXBXBXBXBX5 4 3 4 +.+.6.BXBXBXBXBXBXBXBXBXBXBX",
"BXBXBXBXBXBXBXBXBX7.%.k k a q s a t 3 4 0 4 4 4 BXBXBXBXBXBXX.:.X.3.<.2.r.s.d.m.W ,.1.1.n.E K Q S Z ) o.0.&.BXBXBXBXBXBXBXBXBXBXBXBXBXBXBXBXBXBXBXBXBXBXBXBXBXBX",
"BXBXBXBXBXBXBXBXBXBX.X;.#.@.g +.+.BXBXBXBXBXBXBXBXBXBXBXBX;.^ ~ F q.1.>.>.3.1.=.Y H F ..o.S S R P Z E 0.&.;.BXBXBXBXBXBXBXBXBXBXBXBXBXBXBXBXBXBXBXBXBXBXBXBXBXBX",
"BXBXBXBXBXBXBXBXBXBXBX.XBX7.BXBXBXBXBXBXBXBXBXBXBXBXBXBXBXBX&.) ^ ^ X.X.} _ _ d s b b ..G A Z Z I ) o.&.;.BXBXBXBXBXBXBXBXBXBXBXBXBXBXBXBXBXBXBXBXBXBXBXBXBXBXBX",
"BXBXBXBXBXBXBXBXBXBXBXBXBXBXBXBXBXBXBXBXBXBXBXBXBXBXBXBXBXBX;.~ D ] E Y F x x q i n s ! b C G ! ^ V V #.BXBXBXBXBXBXBXBXBXBXBXBXBXBXBXBXBXBXBXBXBXBXBXBXBXBXBXBX",
"BXBXBXBXBXBXBXBXBXBXBXBXBXBXBXBXBXBXBXBXBXBXBXBXBXBXBXBXBXBX&.&.! ^ ] ] / ! k B n s r i p m B V r BXBXBXBXBXBXBXBXBXBXBXBXBXBXBXBXBXBXBXBXBXBXBXBXBXBXBXBXBXBXBX",
"BXBXBXBXBXBXBXBXBXBXBXBXBXBXBXBXBXBXBXBXBXBXBXBXBXBXBXBXBXBX7.( ! ! %.B i u D V n h r r s V BXBXBXBXBXBXBXBXBXBXBXBXBXBXBXBXBXBXBXBXBXBXBXBXBXBXBXBXBXBXBXBXBXBX",
"BXBXBXBXBXBXBXBXBXBXBXBXBXBXBXBXBXBXBXBXBXBXBXBXBXBXBXBXBXBX6.7.@.B V B h h BXBXBXBXBXBXBXBXBXBXBXBXBXBXBXBXBXBXBXBXBXBXBXBXBXBXBXBXBXBXBXBXBXBXBXBXBXBXBXBXBXBX",
"BXBXBXBXBXBXBXBXBXBXBXBXBXBXBXBXBXBXBXBXBXBXBXBXBXBXBXBXBXBXBXBX6.$.#.BXBXBXBXBXBXBXBXBXBXBXBXBXBXBXBXBXBXBXBXBXBXBXBXBXBXBXBXBXBXBXBXBXBXBXBXBXBXBXBXBXBXBXBXBX",
"BXBXBXBXBXBXBXBXBXBXBXBXBXBXBXBXBXBXBXBXBXBXBXBXBXBXBXBXBXBXBXBXBXBXBXBXBXBXBXBXBXBXBXBXBXBXBXBXBXBXBXBXBXBXBXBXBXBXBXBXBXBXBXBXBXBXBXBXBXBXBXBXBXBXBXBXBXBXBXBX",
"BXBXBXBXBXBXBXBXBXBXBXBXBXBXBXBXBXBXBXBXBXBXBXBXBXBXBXBXBXBXBXBXBXBXBXBXBXBXBXBXBXBXBXBXBXBXBXBXBXBXBXBXBXBXBXBXBXBXBXBXBXBXBXBXBXBXBXBXBXBXBXBXBXBXBXBXBXBXBXBX",
"BXBXBXBXBXBXBXBXBXBXBXBXBXBXBXBXBXBXBXBXBXBXBXBXBXBXBXBXBXBXBXBXBXBXBXBXBXBXBXBXBXBXBXBXBXBXBXBXBXBXBXBXBXBXBXBXBXBXBXBXBXBXBXBXBXBXBXBXBXBXBXBXBXBXBXBXBXBXBXBX",
"BXBXBXBXBXBXBXBXBXBXBXBXBXBXBXBXBXBXBXBXBXBXBXBXBXBXBXBXBXBXBXBXBXBXBXBXBXBXBXBXBXBXBXBXBXBXBXBXBXBXBXBXBXBXBXBXBXBXBXBXBXBXBXBXBXBXBXBXBXBXBXBXBXBXBXBXBXBXBXBX",
"BXBXBXBXBXBXBXBXBXBXBXBXBXBXBXBXBXBXBXBXBXBXBXBXBXBXBXBXBXBXBXBXBXBXBXBXBXBXBXBXBXBXBXBXBXBXBXBXBXBXBXBXBXBXBXBXBXBXBXBXBXBXBXBXBXBXBXBXBXBXBXBXBXBXBXBXBXBXBXBX",
"BXBXBXBXBXBXBXBXBXBXBXBXBXBXBXBXBXBXBXBXBXBXBXBXBXBXBXBXBXBXBXBXBXBXBXBXBXBXBXBXBXBXBXBXBXBXBXBXBXBXBXBXBXBXBXBXBXBXBXBXBXBXBXBXBXBXBXBXBXBXBXBXBXBXBXBXBXBXBXBX",
"BXBXBXBXBXBXBXBXBXBXBXBXBXBXBXBXBXBXBXBXBXBXBXBXBXBXBXBXBXBXBXBXBXBXBXBXBXBXBXBXBXBXBXBXBXBXBXBXBXBXBXBXBXBXBXBXBXBXBXBXBXBXBXBXBXBXBXBXBXBXBXBXBXBXBXBXBXBXBXBX",
"BXBXBXBXBXBXBXBXBXBXBXBXBXBXBXBXBXBXBXBXBXBXBXBXBXBXBXBXBXBXBXBXBXBXBXBXBXBXBXBXBXBXBXBXBXBXBXBXBXBXBXBXBXBXBXBXBXBXBXBXBXBXBXBXBXBXBXBXBXBXBXBXBXBXBXBXBXBXBXBX",
"BXBXBXBXBXBXBXBXBXBXBXBXBXBXBXBXBXBXBXBXBXBXBXBXBXBXBXBXBXBXBXBXBXBXBXBXBXBXBXBXBXBXBXBXBXBXBXBXBXBXBXBXBXBXBXBXBXBXBXBXBXBXBXBXBXBXBXBXBXBXBXBXBXBXBXBXBXBXBXBX",
"BXBXBXBXBXBXBXBXBXBXBXBXBXBXBXBXBXBXBXBXBXBXBXBXBXBXBXBXBXBXBXBXBXBXBXBXBXBXBXBXBXBXBXBXBXBXBXBXBXBXBXBXBXBXBXBXBXBXBXBXBXBXBXBXBXBXBXBXBXBXBXBXBXBXBXBXBXBXBXBX",
"BXBXBXBXBXBXBXBXBXBXBXBXBXBXBXBXBXBXBXBXBXBXBXBXBXBXBXBXBXBXBXBXBXBXBXBXBXBXBXBXBXBXBXBXBXBXBXBXBXBXBXBXBXBXBXBXBXBXBXBXBXBXBXBXBXBXBXBXBXBXBXBXBXBXBXBXBXBXBXBX",
"BXBXBXBXBXBXBXBXBXBXBXBXBXBXBXBXBXBXBXBXBXBXBXBXBXBXBXBXBXBXBXBXBXBXBXBXBXBXBXBXBXBXBXBXBXBXBXBXBXBXBXBXBXBXBXBXBXBXBXBXBXBXBXBXBXBXBXBXBXBXBXBXBXBXBXBXBXBXBXBX",
"BXBXBXBXBXBXBXBXBXBXBXBXBXBXBXBXBXBXBXBXBXBXBXBXBXBXBXBXBXBXBXBXBXBXBXBXBXBXBXBXBXBXBXBXBXBXBXBXBXBXBXBXBXBXBXBXBXBXBXBXBXBXBXBXBXBXBXBXBXBXBXBXBXBXBXBXBXBXBXBX",
"BXBXBXBXBXBXBXBXBXBXBXBXBXBXBXBXBXBXBXBXBXBXBXBXBXBXBXBXBXBXBXBXBXBXBXBXBXBXBXBXBXBXBXBXBXBXBXBXBXBXBXBXBXBXBXBXBXBXBXBXBXBXBXBXBXBXBXBXBXBXBXBXBXBXBXBXBXBXBXBX",
"BXBXBXBXBXBXBXBXBXBXBXBXBXBXBXBXBXBXBXBXBXBXBXBXBXBXBXBXBXBXBXBXBXBXBXBXBXBXBXBXBXBXBXBXBXBXBXBXBXBXBXBXBXBXBXBXBXBXBXBXBXBXBXBXBXBXBXBXBXBXBXBXBXBXBXBXBXBXBXBX",
"BXBXBXBXBXBXBXBXBXBXBXBXBXBXBXBXBXBXBXBXBXBXBXBXBXBXBXBXBXBXBXBXBXBXBXBXBXBXBXBXBXBXBXBXBXBXBXBXBXBXBXBXBXBXBXBXBXBXBXBXBXBXBXBXBXBXBXBXBXBXBXBXBXBXBXBXBXBXBXBX",
"BXBXBXBXBXBXBXBXBXBXBXBXBXBXBXBXBXBXBXBXBXBXBXBXBXBXBXBXBXBXBXBXBXBXBXBXBXBXBXBXBXBXBXBXBXBXBXBXBXBXBXBXBXBXBXBXBXBXBXBXBXBXBXBXBXBXBXBXBXBXBXBXBXBXBXBXBXBXBXBX",
"BXBXBXBXBXBXBXBXBXBXBXBXBXBXBXBXBXBXBXBXBXBXBXBXBXBXBXBXBXBXBXBXBXBXBXBXBXBXBXBXBXBXBXBXBXBXBXBXBXBXBXBXBXBXBXBXBXBXBXBXBXBXBXBXBXBXBXBXBXBXBXBXBXBXBXBXBXBXBXBX",
"BXBXBXBXBXBXBXBXBXBXBXBXBXBXBXBXBXBXBXBXBXBXBXBXBXBXBXBXBXBXBXBXBXBXBXBXBXBXBXBXBXBXBXBXBXBXBXBXBXBXBXBXBXBXBXBXBXBXBXBXBXBXBXBXBXBXBXBXBXBXBXBXBXBXBXBXBXBXBXBX",
"BXBXBXBXBXBXBXBXBXBXBXBXBXBXBXBXBXBXBXBXBXBXBXBXBXBXBXBXBXBXBXBXBXBXBXBXBXBXBXBXBXBXBXBXBXBXBXBXBXBXBXBXBXBXBXBXBXBXBXBXBXBXBXBXBXBXBXBXBXBXBXBXBXBXBXBXBXBXBXBX",
"BXBXBXBXBXBXBXBXBXBXBXBXBXBXBXBXBXBXBXBXBXBXBXBXBXBXBXBXBXBXBXBXBXBXBXBXBXBXBXBXBXBXBXBXBXBXBXBXBXBXBXBXBXBXBXBXBXBXBXBXBXBXBXBXBXBXBXBXBXBXBXBXBXBXBXBXBXBXBXBX"
};
