/* XPM */
static char *result[] = {
/* columns rows colors chars-per-pixel */
"80 80 190 2 ",
"   c #1D1D1D",
".  c #343433",
"X  c #3F3831",
"o  c #4E3F2E",
"O  c #423A31",
"+  c #5C452B",
"@  c #53412D",
"#  c #674929",
"$  c #714E28",
"%  c #78532A",
"&  c #7A5731",
"*  c #7E5D39",
"=  c gray27",
"-  c #5A595A",
";  c #656564",
":  c #865723",
">  c #8B5B24",
",  c #8D5E2A",
"<  c #825828",
"1  c #8F6026",
"2  c #9B6C2E",
"3  c #906129",
"4  c #9C6D32",
"5  c #996D39",
"6  c #976730",
"7  c #9F743E",
"8  c #A46E27",
"9  c #A4722B",
"0  c #B07A2C",
"q  c #AB7A35",
"w  c #AB7C3B",
"e  c #A37436",
"r  c #8F6C46",
"t  c #A57A46",
"y  c #A37E56",
"u  c #BE842C",
"i  c #BC8B3C",
"p  c #B28137",
"a  c #C68A2C",
"s  c #CA8C2A",
"d  c #CF902C",
"f  c #D79827",
"g  c #DC9C26",
"h  c #D39429",
"j  c #D7982B",
"k  c #DA9C2B",
"l  c #D69727",
"z  c #C08A34",
"x  c #CE9131",
"c  c #CE9A39",
"v  c #D29532",
"b  c #D49A35",
"n  c #D99D34",
"m  c #D59B3A",
"M  c #D89E3C",
"N  c #DFA026",
"B  c #DEA02B",
"V  c #DCA132",
"C  c #DCA23B",
"Z  c #DFA836",
"A  c #E4A524",
"S  c #E7A824",
"D  c #E9AB26",
"F  c #E3A62B",
"G  c #E6A92A",
"H  c #EAAD2A",
"J  c #EEB12B",
"K  c #EEB027",
"L  c #F2B52A",
"P  c #F6BA2B",
"I  c #F8BC2C",
"U  c #E0A535",
"Y  c #E5AA32",
"T  c #E9AE33",
"R  c #E0A73D",
"E  c #E4AB3C",
"W  c #E8AE39",
"Q  c #EEB434",
"!  c #EAB13C",
"~  c #F1B733",
"^  c #F5BB34",
"/  c #F9BE33",
"(  c #F0B739",
")  c #F4BC3B",
"_  c #F9C037",
"`  c #F9C13C",
"'  c #AD8147",
"]  c #B08342",
"[  c #BB8B41",
"{  c #BE914A",
"}  c #A58056",
"|  c #A8845D",
" . c #AB8964",
".. c #B59674",
"X. c #BA9A73",
"o. c #BA9D7D",
"O. c #C08F42",
"+. c #C59543",
"@. c #C89949",
"#. c #C5984D",
"$. c #C69C5A",
"%. c #C79C56",
"&. c #D4A346",
"*. c #DAA443",
"=. c #DFA844",
"-. c #D2A34C",
";. c #DEAA4B",
":. c #D5AA5E",
">. c #D5A755",
",. c #DDB059",
"<. c #E3AC43",
"1. c #E2AC4B",
"2. c #EAB344",
"3. c #E7B24C",
"4. c #EBB54A",
"5. c #EEBA4D",
"6. c #E9B544",
"7. c #F3BE44",
"8. c #F1BC4A",
"9. c #E5B151",
"0. c #E9B652",
"q. c #EDBB53",
"w. c #ECBC5C",
"e. c #E5B75B",
"r. c #F2BF51",
"t. c #CFA665",
"y. c #DBB576",
"u. c #E1B562",
"i. c #E5BA65",
"p. c #EABD66",
"a. c #E6BD70",
"s. c #F7C042",
"d. c #FAC343",
"f. c #F5C24B",
"g. c #FAC64B",
"h. c #F4C254",
"j. c #F9C752",
"k. c #FBC953",
"l. c #F3C35C",
"z. c #FBCB5B",
"x. c #EFC260",
"c. c #F4C563",
"v. c #F7C963",
"b. c #FCCE63",
"n. c #F5C96B",
"m. c #FBCF6A",
"M. c #FDD16D",
"N. c #EDC472",
"B. c #F6CB72",
"V. c #FDD373",
"C. c #F7D07D",
"Z. c #FDD57B",
"A. c #908F8E",
"S. c #919090",
"D. c #A09E9F",
"F. c #BDA181",
"G. c #AFAEAF",
"H. c #B0AFAF",
"J. c #B5B4B3",
"K. c #C5AD94",
"L. c #C9B39B",
"P. c #C7B098",
"I. c #CDB9A3",
"U. c #D2BEA7",
"Y. c #EECB8A",
"T. c #FED782",
"R. c #FED886",
"E. c #FED98C",
"W. c #FEDB94",
"Q. c #FFDE9D",
"!. c #F8D796",
"~. c #D4C2AF",
"^. c #D7C7B5",
"/. c #DFD2C4",
"(. c #DDDCDC",
"). c #C9C8C8",
"_. c #E0D3C6",
"`. c #E2D6CA",
"'. c #E4D9CD",
"]. c #E7DED3",
"[. c #E8DED5",
"{. c #EDE5DD",
"}. c #E7E6E6",
"|. c #F4EFEA",
" X c #F6F1ED",
".X c #F6F5F4",
"XX c #F8F6F3",
"oX c #FFFEFE",
"OX c #FAF8F7",
"+X c None",
/* pixels */
"+X+X+X+X+X+X+X+X+X+X+X+X+X+X+X+X+X+X+X+X+X+X+X+X+X+X+X+X+X+X+X+X+X+X+X+X+X+X+X+X+X+X+X+X+X+X+X+X+X+X+X+X+X+X+X+X+X+X+X+X+X+X+X+X+X+X+X+X+X+X+X+X+X+X+X+X+X+X+X+X",
"+X+X+X+X+X+X+X+X+X+X+X+X+X+X+X+X+X+X+X+X+X+X+X+X+X+X+X+X+X+X+X+X+X+X+X+X+X+X+X+X+X+X+X+X+X+X+X+X+X+X+X+X+X+X+X+X+X+X+X+X+X+X+X+X+X+X+X+X+X+X+X+X+X+X+X+X+X+X+X+X",
"+X+X+X+X+X+X+X+X+X+X+X+X+X+X+X+X+X+X+X+X+X+X+X+X+X+X+X+X+X+X+X+X+X+X+X+X+X+X+X+X+X+X+X+X+X+X+X+X+X+X+X+X+X+X+X+X+X+X+X+X+X+X+X+X+X+X+X+X+X+X+X+X+X+X+X+X+X+X+X+X",
"+X+X+X+X+X+X+X+X+X+X+X+X+X+X+X+X+X+X+X+X+X+X+X+X+X+X+X+X+X+X+X+X+X+X+X+X+X+X+X+X+X+X+X+X+X+X+X+X+X+X+X+X+X+X+X+X+X+X+X+X+X+X+X+X+X+X+X+X+X+X+X+X+X+X+X+X+X+X+X+X",
"+X+X+X+X+X+X+X+X+X+X+X+X+X+X+X+X+X+X+X+X+X+X+X+X+X+X+X+X+X+X+X+X+X+X+X+X+Xs s x 8 > : > : : +X+X+X+X+X+X+X+X+X+X+X+X+X+X+X+X+X+X+X+X+X+X+X+X+X+X+X+X+X+X+X+X+X+X",
"+X+X+X+X+X+X+X+X+X+X+X+X+X+X+X+X+X+X+X+X+X+X+X+X+X+X+X+X+X+X+X+X+X+X+Xa m 9.c.[ > e +.>.;.&.z a +X+X+X+X+X+X+X+X+X+X+X+X+X+X+X+X+X+X+X+X+X+X+X+X+X+X+X+X+X+X+X+X",
"+X+X+X+X+X+X+X+X+X+X+X+X+X+X+X+X+X+X+X+X+X+X+X+X+X+X+X+X+X+X+X: : > , 4 V.V.M.u.m.M.m.b.b.z.z.h.V s +X+X+X+X+X+X+X+X+X+X+X+X+X+X+X+X+X+X+X+X+X+X+X+X+X+X+X+X+X+X",
"+X+X+X+X+X+X+X+X+X+X+X+X+X+X+X+X+X+X+X+X+X+X+X+X+X+X+X+X+X+X: > 0 >.n.B.T.E.W.W.a.i e e -.z.z.k.k.W s +X+X+X+X+X+X+X+X+X+X+X+X+X+X+X+X+X+X+X+X+X+X+X+X+X+X+X+X+X",
"+X+X+X+X+X+X+X+X+X+X+X+X+X+X+X+X+X+X+X+X+X+X+X+X+X+X+X+X+X+X+Xa z ] ] t.!.Q.Q.$...[.OX XL.e l.z.k.g.S s +X+X+X+X+X+X+X+X+X+X+X+X+X+X+X+X+X+X+X+X+X+X+X+X+X+X+X+X",
"+X+X+X+X+X+X+X+X+X+X+X+X+X+X+X+X+X+X+X+X+X+X+X+X+X+X+X+X+X+Xu 6 L.[.[.P.t Y.y...OXoX.XoXoX'.p k.k.k.Q A s +X+X+X+X+X+X+X+X+X+X+X+X+X+X+X+X+X+X+X+X+X+X+X+X+X+X+X",
"+X+X+X+X+X+X+X+X+X+X+X+X+X+X+X+X+X+X+X+X+X+X+X+X+X+X+X+X+Xs 5 ].oX.X}.oX{.t y |.oXH.- D.oXoX..3.k.g.d.G N s +X+X+X+X+X+X+X+X+X+X+X+X+X+X+X+X+X+X+X+X+X+X+X+X+X+X",
"+X+X+X+X+X+X+X+X+X+X+X+X+X+X+X+X+X+X+X+X+X+X+X+X+X+X+X+X+Xu K.oXOX; A.).oXK.y oXoXA.  = oXoX~.&.k.g.d.H S f +X+X+X+X+X+X+X+X+X+X+X+X+X+X+X+X+X+X+X+X+X+X+X+X+X+X",
"+X+X+X+X+X+X+X+X+X+X+X+X+X+X+X+X+X+X+X+X+X+X+X+X+X+X+X+Xs @.].oX.X=   D.oX'.y oXoXOXJ.}.oXoX~.;.g.g.d.~ S S s +X+X+X+X+X+X+X+X+X+X+X+X+X+X+X+X+X+X+X+X+X+X+X+X+X",
"+X+X+X+X+X+X+X+X+X+X+X+X+X+X+X+X+X+X+X+X+X+X+X+X+X+X+X+XC :.`.oXoX(.G..XoX'.5 |.oXoXoXoXoXoXX.5.k.g.d.) S S h +X+X+X+X+X+X+X+X+X+X+X+X+X+X+X+X+X+X+X+X+X+X+X+X+X",
"+X+X+X+X+X+X+X+X+X+X+X+X+X+X+X+X+X+X+X+X+X+X+X+X+X+X+Xs w.B.o.oXoXoXoXoXoXF.i.X.oXoXoXoXoX`.+.k.k.g.d.) S S A s +X+X+X+X+X+X+X+X+X+X+X+X+X+X+X+X+X+X+X+X+X+X+X+X",
"+X+X+X+X+X+X+X+X+X+X+X+X+X+X+X+X+X+X+X+X+X+X+X+X+X+X+Xs m.V.%.^.oXoXoXoX^.$.Z.u.X.[.OX|.P.{ k.k.g.g.d.) S S S s +X+X+X+X+X+X+X+X+X+X+X+X+X+X+X+X+X+X+X+X+X+X+X+X",
"+X+X+X+X+X+X+X+X+X+X+X+X+X+X+X+X+X+X+X+X+X+X+X+X+X+X+Xc V.Z.Z.:.X.U.U...:.Z.Z.V.M.,.@.-.h.z.h.;.d.d.d.` S S S h +X+X+X+X+X+X+X+X+X+X+X+X+X+X+X+X+X+X+X+X+X+X+X+X",
"+X+X+X+X+X+X+X+X+X+X+X+X+X+X+X+X+X+X+X+X+X+X+X+X+X+X+Xm V.V.Z.Z.C.N.N.C.T.Z.Z.V.M.m.m.b.z.z.&.> 2 <.` ` S S S l +X+X+X+X+X+X+X+X+X+X+X+X+X+X+X+X+X+X+X+X+X+X+X+X",
"+X+X+X+X+X+X+X+X+X+X+X+X+X+X+X+X+X+X+X+Xs v v s +X+X+Xm V.V.Z.t e ] #.:.u.i.p.i.e.e.-.+.e 5  ././.6 ) ) S S S f +X+X+X+X+X+X+X+X+X+X+X+X+X+X+X+X+X+X+X+X+X+X+X+X",
"+X+X+X+X+X+X+X+X+X+X+X+X+X+X+X+X+X+X+Xj ~ ` d.V +X+X+Xm m.V.V.B.p.7 L.F. .| } } }  ...P._.|.oXoXI., a ^ S S S l +X+X+X+X+X+X+X+X+X+X+X+X+X+X+X+X+X+X+X+X+X+X+X+X",
"+X+X+X+X+X+X+X+X+X+X+X+X+X+X+X+X+X+XB / ` d.d.g.v +X+Xv M.V.V.V.Z.' .XoXoXoXoXoXoXoXoXoXoX|.I.r $ 9 9 Q S S S h +X+X+X+X+X+X+X+X+X+X+X+X+X+X+X+X+X+X+X+X+X+X+X+X",
"+X+X+X+X+X+X+X+X+X+X+X+X+X+X+X+X+X+XH _ ` d.g.g.C +X+Xs M.M.V.V.V.>.~.XXoXoXoXoX.X{./.L.| * @ X % Z ~ K S S S d +X+X+X+X+X+X+X+X+X+X+X+X+X+X+X+X+X+X+X+X+X+X+X+X",
"+X+X+X+X+X+X+X+X+X+X+X+X+X+X+X+X+X+XQ _ ` d.g.k.v +X+Xs l.m.M.V.V.n.@.3 % & & $ # + @ O . . O % b ` _ D S S A s +X+X+X+X+X+X+X+X+X+X+X+X+X+X+X+X+X+X+X+X+X+X+X+X",
"+X+X+X+X+X+X+X+X+X+X+X+X+X+X+X+X+X+XQ ^ W E C n s +X+X+X<.M.M.M.M.M.m.4 . . . . . . . . X # 1 b ` _ P S S S g a +X+X+X+X+X+X+X+X+X+X+X+X+X+X+X+X+X+X+X+X+X+X+X+X",
"+X+X+X+X+X+X+X+X+X+X+X+X+X+X+X+X+Xs Q ^ T A S S s +X+X+Xx v.b.m.M.m.x.2 X X X O @ + # < 9 c s.` ` / D S S S s +X+X+X+X+X+X+X+X+X+X+X+X+X+X+X+X+X+X+X+X+X+X+X+X+X",
"+X+X+X+X+X+X+X+X+X+X+X+X+X+X+X+X+X+XQ ` d.s.Q j s x m s s 1.b.b.b.b.{ 9 2 2 4 9 q i *.8.d.d.` ` _ ^ S S S N s +X+X+X+X+X+X+X+X+X+X+X+X+X+X+X+X+X+X+X+X+X+X+X+X+X",
"+X+X+X+X+X+X+X+X+X+X+X+X+X+X+X+X+X+Xk ` d.g.C 4.b.M.V.;.+Xs l.z.b.b.b.z.z.z.z.k.k.g.k.d.d.d.` ` / H S S S s +X+X+X+X+X+X+X+X+X+X+X+X+X+X+X+X+X+X+X+X+X+X+X+X+X+X",
"+X+X+X+X+X+X+X+X+X+X+X+X+X+X+X+X+X+Xd ) d.g.f.z.b.v.m +X+X+Xb z.z.z.z.z.f.( ) Q J ) d.d.s.` ` _ L S S S h +X+X+X+X+X+X+X+X+X+X+X+X+X+X+X+X+X+X+X+X+X+X+X+X+X+X+X",
"+X+X+X+X+X+X+X+X+X+X+X+X+X+X+X+X+X+Xs ! d.g.k.z.5.s +X+X+X+Xs v j.z.k.z.k.Q H H ) g.d.d.` ` / P S S S l s +X+X+X+X+X+X+X+X+X+X+X+X+X+X+X+X+X+X+X+X+X+X+X+X+X+X+X",
"+X+X+X+X+X+X+X+X+X+X+X+X+X+X+X+X+X+X+Xh d.d.k.5.s +X+X+X+Xs E R m h.k.k.k.g.g.g.g.d.d.` ` ` L S S A h l g s +X+X+X+X+X+X+X+X+X+X+X+X+X+X+X+X+X+X+X+X+X+X+X+X+X+X",
"+X+X+X+X+X+X+X+X+X+X+X+X+X+X+X+X+X+X+X+Xh d.n s +X+X+X+Xv 7.j.k.4.v <.g.g.g.g.d.d.d.` ` / L S S g s g A S A h +X+X+X+X+X+X+X+X+X+X+X+X+X+X+X+X+X+X+X+X+X+X+X+X+X",
"+X+X+X+X+X+X+X+X+X+X+X+X+X+X+X+X+X+X+X+Xv d.Y s +X+X+Xs f.j.z.z.b.v.*.h 6.f.d.d.` ` ` ^ H S g h h A S S A D A s +X+X+X+X+X+X+X+X+X+X+X+X+X+X+X+X+X+X+X+X+X+X+X+X",
"+X+X+X+X+X+X+X+X+X+X+X+X+X+X+X+X+X+X+X+Xs d.d.h +X+X+Xn j.Z.E.T.V.V.V.n.9.m v h b j j d s d g N S S S S S S S f +X+X+X+X+X+X+X+X+X+X+X+X+X+X+X+X+X+X+X+X+X+X+X+X",
"+X+X+X+X+X+X+X+X+X+X+X+X+X+X+X+X+X+X+X+Xh ) d.T +X+X+Xb k.E.Q.Q.W.W.E.T.Z.Z.v.r.W F A A S S S S S S S S S S S f +X+X+X+X+X+X+X+X+X+X+X+X+X+X+X+X+X+X+X+X+X+X+X+X",
"+X+X+X+X+X+X+X+X+X+X+X+X+X+X+X+X+X+X+X+Xs ) d.) s +X+Xs 8.b.W.Q.Q.Q.Q.Q.W.E.Z.m.b.k.g.s.~ L L L L L K S S S S s +X+X+X+X+X+X+X+X+X+X+X+X+X+X+X+X+X+X+X+X+X+X+X+X",
"+X+X+X+X+X+X+X+X+X+X+X+X+X+X+X+X+X+X+X+Xs ( ` d.f +X+X+Xv h.M.R.Q.Q.Q.Q.Q.Q.Q.Q.E.V.k.d.` _ I I I I I K S S s +X+X+X+X+X+X+X+X+X+X+X+X+X+X+X+X+X+X+X+X+X+X+X+X+X",
"+X+X+X+X+X+X+X+X+X+X+X+X+X+X+X+X+X+X+X+Xs T ) ` T +X+X+X+Xs =.l.V.R.W.Q.Q.Q.Q.Q.Q.Q.z.d.` / I I I I P S f s +X+X+X+X+X+X+X+X+X+X+X+X+X+X+X+X+X+X+X+X+X+X+X+X+X+X",
"+X+X+X+X+X+X+X+X+X+X+X+X+X+X+X+X+X+X+X+X+XF _ ` ) s +X+Xs s v v *.q.m.M.V.Z.Z.V.M.k.d.d._ I I I P K g s s +X+X+X+X+X+X+X+X+X+X+X+X+X+X+X+X+X+X+X+X+X+X+X+X+X+X+X",
"+X+X+X+X+X+X+X+X+X+X+X+X+X+X+X+X+X+X+X+X+Xf / / Q s d C 8.k.k.k.2.f s b *.<.4.8.5.7.( Q Q F g h s h s +X+X+X+X+X+X+X+X+X+X+X+X+X+X+X+X+X+X+X+X+X+X+X+X+X+X+X+X+X",
"+X+X+X+X+X+X+X+X+X+X+X+X+X+X+X+X+X+X+X+X+Xs P / ^ Q 7.d.g.g.g.j.~ S S h Y Y n j h h h d l f g d S A h +X+X+X+X+X+X+X+X+X+X+X+X+X+X+X+X+X+X+X+X+X+X+X+X+X+X+X+X+X",
"+X+X+X+X+X+X+X+X+X+X+X+X+X+X+X+X+X+X+X+X+X+XF P / / ` d.d.d.) G S A g s ` d.` ` ^ H S S S S A d A S S g s +X+X+X+X+X+X+X+X+X+X+X+X+X+X+X+X+X+X+X+X+X+X+X+X+X+X+X",
"+X+X+X+X+X+X+X+X+X+X+X+X+X+X+X+X+X+X+X+X+X+Xs f F H T T U f f h s s s v d.d.d.d.d.` ~ D S A S f N S S A A d +X+X+X+X+X+X+X+X+X+X+X+X+X+X+X+X+X+X+X+X+X+X+X+X+X+X",
"+X+X+X+X+X+X+X+X+X+X+X+X+X+X+X+X+X+X+X+X+X+X+X+X+X+X+X+X+X+X+X+X+X+Xs ! g.d.g.d.d.d.d.` H D D A s g L L H L B s +X+X+X+X+X+X+X+X+X+X+X+X+X+X+X+X+X+X+X+X+X+X+X+X",
"+X+X+X+X+X+X+X+X+X+X+X+X+X+X+X+X+X+X+X+X+X+X+X+X+X+X+X+X+X+X+X+X+X+Xh f.g.g.g.d.g.d.d.d.s.J S S s s f J I I P H s +X+X+X+X+X+X+X+X+X+X+X+X+X+X+X+X+X+X+X+X+X+X+X",
"+X+X+X+X+X+X+X+X+X+X+X+X+X+X+X+X+X+X+X+X+X+X+X+X+X+X+X+X+X+X+X+X+Xs <.k.k.k.k.g.g.g.g.d.d.` H S N s +Xs g L P P L f +X+X+X+X+X+X+X+X+X+X+X+X+X+X+X+X+X+X+X+X+X+X",
"+X+X+X+X+X+X+X+X+X+X+X+X+X+X+X+X+X+X+X+X+X+X+X+X+X+X+X+X+X+X+X+X+Xx j.k.k.k.k.k.g.g.g.d.d.` ^ S S h +X+X+Xs h G I P s +X+X+X+X+X+X+X+X+X+X+X+X+X+X+X+X+X+X+X+X+X",
"+X+X+X+X+X+X+X+X+X+X+X+X+X+X+X+X+X+X+X+X+X+X+X+X+X+X+X+X+X+X+X+Xs 4.z.z.k.z.z.k.k.k.k.g.g.d.` H S A s +X+Xs H I I P s +X+X+X+X+X+X+X+X+X+X+X+X+X+X+X+X+X+X+X+X+X",
"+X+X+X+X+X+X+X+X+X+X+X+X+X+X+X+X+X+X+X+X+X+X+X+X+X+X+X+X+X+X+Xa <.z.z.z.z.z.z.k.k.k.k.g.g.d.` ^ S S g s +Xh P I I F +X+X+X+X+X+X+X+X+X+X+X+X+X+X+X+X+X+X+X+X+X+X",
"+X+X+X+X+X+X+X+X+X+X+X+X+X+X+X+X+X+X+X+X+X+X+X+X+X+X+X+X+X+Xs M z.b.z.b.b.z.b.z.z.k.k.k.k.d.d.` D A S g a G I I L s +X+X+X+X+X+X+X+X+X+X+X+X+X+X+X+X+X+X+X+X+X+X",
"+X+X+X+X+X+X+X+X+X+X+X+X+X+X+X+X+X+X+X+X+X+X+X+X+X+X+X+X+X+XM z.b.Z.Z.M.b.b.b.b.z.z.k.k.g.g.d.` Q D S A h ~ I I g +X+X+X+X+X+X+X+X+X+X+X+X+X+X+X+X+X+X+X+X+X+X+X",
"+X+X+X+X+X+X+X+X+X+X+X+X+X+X+X+X+X+X+X+X+X+X+X+X+X+X+X+Xs C b.b.V.Q.Q.V.M.M.b.b.z.z.z.k.k.d.d.d.` D S S h d.` ^ s +X+X+X+X+X+X+X+X+X+X+X+X+X+X+X+X+X+X+X+X+X+X+X",
"+X+X+X+X+X+X+X+X+X+X+X+X+X+X+X+X+X+X+X+X+X+X+X+X+X+X+Xs =.z.b.V.W.Q.Q.Z.M.M.M.b.b.z.z.k.k.g.d.d.` ^ S A b g.g.d.Y s +X+X+X+X+X+X+X+X+X+X+X+X+X+X+X+X+X+X+X+X+X+X",
"+X+X+X+X+X+X+X+X+X+X+X+X+X+X+X+X+X+X+X+X+X+X+X+X+X+Xd 5.b.b.V.W.Q.Q.Q.W.V.M.M.M.b.b.z.z.k.d.d.d.` _ H N <.b.k.g.) F s s +X+X+X+X+X+X+X+X+X+X+X+X+X+X+X+X+X+X+X+X",
"+X+X+X+X+X+X+X+X+X+X+X+X+X+X+X+X+X+X+X+X+X+X+X+X+Xv h.z.b.V.Q.Q.Q.Q.Q.Q.V.V.M.M.b.b.z.z.k.g.g.d.` _ P D C M.b.k.d.^ L P s +X+X+X+X+X+X+X+X+X+X+X+X+X+X+X+X+X+X+X",
"+X+X+X+X+X+X+X+X+X+X+X+X+X+X+X+X+X+X+X+X+X+X+Xs C j.z.b.V.Q.Q.Q.Q.Q.Q.Q.Z.V.V.M.M.b.z.z.k.k.g.d.` ` _ L h w.M.z.g.` L F s +X+X+X+X+X+X+X+X+X+X+X+X+X+X+X+X+X+X+X",
"+X+X+X+X+X+X+X+X+X+X+X+X+X+X+X+X+X+X+X+X+X+Xs R k.z.b.V.Q.Q.Q.Q.Q.Q.Q.Q.Z.Z.V.M.b.b.z.k.k.k.d.d.` _ I I D h 1.<.M h f f s +X+X+X+X+X+X+X+X+X+X+X+X+X+X+X+X+X+X+X",
"+X+X+X+X+X+X+X+X+X+X+X+X+X+X+X+X+X+X+X+X+Xs <.k.z.z.V.Q.Q.Q.Q.Q.Q.Q.Q.Q.Z.Z.Z.M.b.b.z.z.k.k.d.d.` _ / I I D N A S S S S g s +X+X+X+X+X+X+X+X+X+X+X+X+X+X+X+X+X+X",
"+X+X+X+X+X+X+X+X+X+X+X+X+X+X+X+X+X+X+X+X+Xs g.j.z.z.E.Q.Q.Q.Q.Q.Q.Q.Q.W.Z.Z.Z.V.M.b.z.z.k.k.d.d.` _ / I I P S S S S S S S h +X+X+X+X+X+X+X+X+X+X+X+X+X+X+X+X+X+X",
"+X+X+X+X+X+X+X+X+X+X+X+X+X+X+X+X+X+X+X+Xs x 2.k.z.z.Q.Q.Q.Q.Q.Q.Q.Q.Q.W.Z.Z.V.M.M.b.z.k.k.g.d.d.` / I I I I L S S S S S N s s +X+X+X+X+X+X+X+X+X+X+X+X+X+X+X+X+X",
"+X+X+X+X+X+X+X+X+X+X+X+X+X+X+X+X+X+X+X+Xs 2.v <.z.b.Z.Q.Q.Q.Q.Q.Q.Q.Q.R.Z.Z.V.M.M.b.z.z.g.g.d.d.` _ I I I I I S S S S N d g s +X+X+X+X+X+X+X+X+X+X+X+X+X+X+X+X+X",
"+X+X+X+X+X+X+X+X+X+X+X+X+X+X+X+X+X+X+X+Xs 2.g.R b q.b.V.T.W.W.Q.Q.W.E.T.Z.Z.V.M.M.b.z.k.k.d.d.` _ / I I I P I L A A h l A A s +X+X+X+X+X+X+X+X+X+X+X+X+X+X+X+X+X",
"+X+X+X+X+X+X+X+X+X+X+X+X+X+X+X+X+X+X+X+Xs <.k.k.q.n m 0.n.Z.T.T.R.R.T.T.Z.Z.M.M.b.z.k.k.k.g.d.` _ / I I I I P S h d g S S A s +X+X+X+X+X+X+X+X+X+X+X+X+X+X+X+X+X",
"+X+X+X+X+X+X+X+X+X+X+X+X+X+X+X+X+X+X+X+X+Xn k.z.z.b.v.1.m m <.p.B.Z.Z.Z.Z.V.M.M.b.z.k.k.g.d.d.` / ^ L H g f d f A A S S A g +X+X+X+X+X+X+X+X+X+X+X+X+X+X+X+X+X+X",
"+X+X+X+X+X+X+X+X+X+X+X+X+X+X+X+X+X+X+X+X+Xs k.k.z.b.b.m.m.n.w.1.&.c b *.;.3.0.f.q.5.4.2.2.Y U n h d f g g A S S S A S S A d +X+X+X+X+X+X+X+X+X+X+X+X+X+X+X+X+X+X",
"+X+X+X+X+X+X+X+X+X+X+X+X+X+X+X+X+X+X+X+X+Xs C k.z.b.m.M.M.V.V.Z.Z.Z.V.n.l.q.0.4.<.<.E E W ! ( ^ ^ P I K S S S S S S S S g s +X+X+X+X+X+X+X+X+X+X+X+X+X+X+X+X+X+X",
"+X+X+X+X+X+X+X+X+X+X+X+X+X+X+X+X+X+X+X+X+Xx v 5.z.z.b.b.M.M.V.V.V.V.V.M.m.m.b.z.z.k.k.g.d.d.) _ I I H S S S S S S S S A d d +X+X+X+X+X+X+X+X+X+X+X+X+X+X+X+X+X+X",
"+X+X+X+X+X+X+X+X+X+X+X+X+X+X+X+X+X+X+X+Xa 2.h.b 2.z.b.b.m.M.M.M.M.M.V.m.m.b.z.z.k.k.g.d.d.` _ / I H S S S S S S A S g s A g s +X+X+X+X+X+X+X+X+X+X+X+X+X+X+X+X+X",
"+X+X+X+X+X+X+X+X+X+X+X+X+X+X+X+X+X+X+X+Xs 8.k.j.m M h.b.b.b.M.M.M.m.m.b.b.b.z.z.k.j.g.d.` ` / L S S S S S S S S A l h A S S s +X+X+X+X+X+X+X+X+X+X+X+X+X+X+X+X+X",
"+X+X+X+X+X+X+X+X+X+X+X+X+X+X+X+X+X+X+X+Xs 8.k.z.z.w.m m 4.v.v.b.b.b.b.b.z.z.k.k.k.g.d.d.) P S S S S S S S A f h h g S S S A s +X+X+X+X+X+X+X+X+X+X+X+X+X+X+X+X+X",
"+X+X+X+X+X+X+X+X+X+X+X+X+X+X+X+X+X+X+X+Xs R V.W.R.Z.V.c.1.b m =.q.l.b.z.z.z.k.j.g.d.) Q S S S S S A N f h h h N S S S S S g s +X+X+X+X+X+X+X+X+X+X+X+X+X+X+X+X+X",
"+X+X+X+X+X+X+X+X+X+X+X+X+X+X+X+X+X+X+X+X+Xs 5.R.Q.Q.Q.Q.W.E.C.c.9.*.v b b M n n j f f f h h s d s h f N A S S S S S S S A s +X+X+X+X+X+X+X+X+X+X+X+X+X+X+X+X+X+X",
"+X+X+X+X+X+X+X+X+X+X+X+X+X+X+X+X+X+X+X+X+X+Xs <.M.W.Q.Q.Q.Q.W.W.T.Z.m.v.l.h.8.2.2.W E Y G G A A S S S S S S S S S S S g s +X+X+X+X+X+X+X+X+X+X+X+X+X+X+X+X+X+X+X",
"+X+X+X+X+X+X+X+X+X+X+X+X+X+X+X+X+X+X+X+X+X+X+Xs v 4.v.Z.W.Q.Q.Q.Q.Q.E.V.b.z.z.k.g.d.` ` / I P L S S S S S A S A A A s s +X+X+X+X+X+X+X+X+X+X+X+X+X+X+X+X+X+X+X+X",
"+X+X+X+X+X+X+X+X+X+X+X+X+X+X+X+X+X+X+X+X+X+X+X+X+Xa v =.l.m.Z.E.W.W.Q.W.V.z.k.k.g.d.` ` / I I P P S S S S S A g s s +X+X+X+X+X+X+X+X+X+X+X+X+X+X+X+X+X+X+X+X+X+X",
"+X+X+X+X+X+X+X+X+X+X+X+X+X+X+X+X+X+X+X+X+X+X+X+X+X+X+X+Xs s b *.q.l.l.z.z.z.k.g.g.d.` ` / I P P L S N f h s s +X+X+X+X+X+X+X+X+X+X+X+X+X+X+X+X+X+X+X+X+X+X+X+X+X",
"+X+X+X+X+X+X+X+X+X+X+X+X+X+X+X+X+X+X+X+X+X+X+X+X+X+X+X+X+X+X+X+Xs s x v v m C C C U V V k f h h d s s +X+X+X+X+X+X+X+X+X+X+X+X+X+X+X+X+X+X+X+X+X+X+X+X+X+X+X+X+X",
"+X+X+X+X+X+X+X+X+X+X+X+X+X+X+X+X+X+X+X+X+X+X+X+X+X+X+X+X+X+X+X+X+X+X+X+X+X+X+X+X+X+X+X+X+X+X+X+X+X+X+X+X+X+X+X+X+X+X+X+X+X+X+X+X+X+X+X+X+X+X+X+X+X+X+X+X+X+X+X+X",
"+X+X+X+X+X+X+X+X+X+X+X+X+X+X+X+X+X+X+X+X+X+X+X+X+X+X+X+X+X+X+X+X+X+X+X+X+X+X+X+X+X+X+X+X+X+X+X+X+X+X+X+X+X+X+X+X+X+X+X+X+X+X+X+X+X+X+X+X+X+X+X+X+X+X+X+X+X+X+X+X",
"+X+X+X+X+X+X+X+X+X+X+X+X+X+X+X+X+X+X+X+X+X+X+X+X+X+X+X+X+X+X+X+X+X+X+X+X+X+X+X+X+X+X+X+X+X+X+X+X+X+X+X+X+X+X+X+X+X+X+X+X+X+X+X+X+X+X+X+X+X+X+X+X+X+X+X+X+X+X+X+X",
"+X+X+X+X+X+X+X+X+X+X+X+X+X+X+X+X+X+X+X+X+X+X+X+X+X+X+X+X+X+X+X+X+X+X+X+X+X+X+X+X+X+X+X+X+X+X+X+X+X+X+X+X+X+X+X+X+X+X+X+X+X+X+X+X+X+X+X+X+X+X+X+X+X+X+X+X+X+X+X+X"
};
