/* XPM */
static char *result[] = {
/* columns rows colors chars-per-pixel */
"80 80 163 2 ",
"   c #373432",
".  c #3B3631",
"X  c #4C3D2C",
"o  c #443A2E",
"O  c #5E4A2F",
"+  c #6C522E",
"@  c #665133",
"#  c #747473",
"$  c #876737",
"%  c #AA752D",
"&  c #9C7D4C",
"*  c #BF882C",
"=  c #BA822A",
"-  c #B8863A",
";  c #BC8534",
":  c #C18623",
">  c #C38823",
",  c #C28828",
"<  c #CE9329",
"1  c #D29626",
"2  c #D99B26",
"3  c #D7962C",
"4  c #DC9B2B",
"5  c #C18A36",
"6  c #CB9435",
"7  c #CB953A",
"8  c #CF9939",
"9  c #D09030",
"0  c #D79835",
"q  c #DA9B34",
"w  c #D49638",
"e  c #DC9F39",
"r  c #E09F2A",
"t  c #DFA126",
"y  c #DFA129",
"u  c #DFA131",
"i  c #DDA13F",
"p  c #E4A42A",
"a  c #E8A729",
"s  c #EAAA28",
"d  c #EEB02E",
"f  c #E4A632",
"g  c #E7A935",
"h  c #EAAD33",
"j  c #E2A539",
"k  c #E5A93D",
"l  c #E9AE3A",
"z  c #EEB234",
"x  c #EDB33C",
"c  c #F2B535",
"v  c #F6B936",
"b  c #F1B63B",
"n  c #F8BF3F",
"m  c #F4B93B",
"M  c #FDC33E",
"N  c #BF9043",
"B  c #C2964B",
"V  c #C49A4F",
"C  c #CE9E4E",
"Z  c #D79C41",
"A  c #D99D40",
"S  c #C39650",
"D  c #DCA245",
"F  c #D5A64B",
"G  c #DEA648",
"H  c #DEA94B",
"J  c #D1A450",
"K  c #DDA651",
"L  c #DFA955",
"P  c #D4A858",
"I  c #DBB05F",
"U  c #E0A746",
"Y  c #E5AC43",
"T  c #E9AF42",
"R  c #E4AD4B",
"E  c #EBB344",
"W  c #EDB64B",
"Q  c #EEB94C",
"!  c #F5BC43",
"~  c #F8BF41",
"^  c #F2BC4B",
"/  c #E2AE55",
"(  c #E1AD5A",
")  c #E6B153",
"_  c #EBB652",
"`  c #EDB955",
"'  c #E5B25B",
"]  c #E9B65A",
"[  c #EBBA5D",
"{  c #F1BD55",
"}  c #F1BE5A",
"|  c #C29E6D",
" . c #CBA568",
".. c #D8AE62",
"X. c #DAB46E",
"o. c #C6A370",
"O. c #C8A676",
"+. c #CFAE7A",
"@. c #E6B562",
"#. c #E5B864",
"$. c #ECBC63",
"%. c #EBBD6B",
"&. c #EBBE71",
"*. c #FCC444",
"=. c #FFC847",
"-. c #F7C14E",
";. c #FBC54C",
":. c #FFC94D",
">. c #F6C253",
",. c #F9C654",
"<. c #FFCB54",
"1. c #F5C35C",
"2. c #F8C75B",
"3. c #FFCD5B",
"4. c #EFC063",
"5. c #EEC16D",
"6. c #F1C263",
"7. c #FECE61",
"8. c #F1C46B",
"9. c #F5C96D",
"0. c #FACD6A",
"q. c #FFD165",
"w. c #FFD36C",
"e. c #EEC274",
"r. c #EEC579",
"t. c #F1C573",
"y. c #F4CB76",
"u. c #F9CE74",
"i. c #F1C77A",
"p. c #F3CA7C",
"a. c #FFD574",
"s. c #FED67A",
"d. c #FFD87E",
"f. c #B29B80",
"g. c #B4A490",
"h. c #B7B6B6",
"j. c #BCBCBC",
"k. c #D8B883",
"l. c #D6BA8F",
"z. c #D9BC8C",
"x. c #CCBDA9",
"c. c #D4BEA2",
"v. c #DBC095",
"b. c #DBC198",
"n. c #F3CC83",
"m. c #FAD483",
"M. c #FFDA83",
"N. c #F7D18B",
"B. c #FBD68C",
"V. c #FFDB8B",
"C. c #F9D692",
"Z. c #FFDD92",
"A. c #FEDE9B",
"S. c #FFE09F",
"D. c #DFCAAC",
"F. c #CEC0B0",
"G. c #FFE0A1",
"H. c #CDCDCD",
"J. c #EEE6DC",
"K. c #F2EDE6",
"L. c #FEFEFD",
"P. c #F3F3F2",
"I. c None",
/* pixels */
"I.I.I.I.I.I.I.I.I.I.I.I.I.I.I.I.I.I.I.I.I.I.I.I.I.I.I.I.I.I.I.I.I.I.I.I.I.I.I.I.I.I.I.I.I.I.I.I.I.I.I.I.I.I.I.I.I.I.I.I.I.I.I.I.I.I.I.I.I.I.I.I.I.I.I.I.I.I.I.I.",
"I.I.I.I.I.I.I.I.I.I.I.I.I.I.I.I.I.I.I.I.I.I.I.I.I.I.I.I.I.I.I.I.I.I.I.I.I.I.I.I.I.I.i I.I.I.I.I.I.I.I.I.I.I.I.I.I.I.I.I.I.I.I.I.I.I.I.I.I.I.I.I.I.I.I.I.I.I.I.I.",
"I.I.I.I.I.I.I.I.I.I.I.I.I.I.I.I.I.I.I.I.I.I.I.I.I.I.I.I.I.I.I.I.I.I.I.I.I.I.I.I.I.D W 9 I.I.I.I.I.I.I.I.I.I.I.I.I.I.I.I.I.I.I.I.I.I.I.I.I.I.I.I.I.I.I.I.I.I.I.I.",
"I.I.I.I.I.I.I.I.I.I.I.I.I.I.I.I.I.I.I.I.I.I.I.I.I.I.I.I.I.I.I.I.I.I.4 p j I.I.e ) B.7.f U R _ 6.s.] I.I.I.I.I.I.I.I.I.I.I.I.I.I.I.I.I.I.I.I.I.I.I.I.I.I.I.I.I.I.",
"I.I.I.I.I.I.I.I.I.I.I.I.I.I.I.I.I.I.I.I.I.I.I.I.I.I.I.I.I.I.I.I.I.I.p d =.;.;.` S.S.w.M Q a.s.s.m.] I.I.I.I.I.I.I.I.I.I.I.I.I.I.I.I.I.I.I.I.I.I.I.I.I.I.I.I.I.I.",
"I.I.I.I.I.I.I.I.I.I.I.I.I.I.I.I.I.I.I.I.I.I.I.I.I.I.I.I.I.I.I.I.4 p s c =.<.>.p.S.S.7.M Q w.s.s.m.s.$.@./ I.I.I.I.I.I.I.I.I.I.I.I.I.I.I.I.I.I.I.I.I.I.I.I.I.I.I.",
"I.I.I.I.I.I.I.I.I.I.I.I.I.I.I.I.I.I.I.I.I.I.I.I.I.I.I.I.I.I.I.p s s s s :.:.;.y.V.s.<.v 6.a.s.s.d.M.V.V.$.I.I.I.I.I.I.I.I.I.I.I.I.I.I.I.I.I.I.I.I.I.I.I.I.I.I.I.",
"I.I.I.I.I.I.I.I.I.I.I.I.I.I.I.I.I.I.I.I.I.I.I.I.I.I.I.I.I.I.I.p s s s s =.:.:.R 2.-.x k w.a.s.s.M.M.M.y.I.I.I.I.I.I.I.I.I.I.I.I.I.I.I.I.I.I.I.I.I.I.I.I.I.I.I.I.",
"I.I.I.I.I.I.I.I.I.I.I.I.I.I.I.I.I.I.I.I.I.I.I.I.I.I.I.I.I.I.I.I.s s s s n =.E y 4 p 4 k 7.a.a.s.M.M.s.I.I.I.I.I.I.I.I.I.I.I.I.I.I.I.I.I.I.I.I.I.I.I.I.I.I.I.I.I.",
"I.I.I.I.I.I.I.I.I.I.I.I.I.I.I.I.I.I.I.I.I.I.I.I.I.I.I.I.I.I.I.I.p r s s a _ 9.7.^ z z c x 0.a.s.s.#./ I.I.I.I.I.I.I.I.I.I.I.I.I.I.I.I.I.I.I.I.I.I.I.I.I.I.I.I.I.",
"I.I.I.I.I.I.I.I.I.I.I.I.I.I.I.I.I.I.I.I.I.I.I.I.I.I.I.I.I.I.I.I.3 e a s 6 B N 9.1.; 6 ~ M W s.s.Y w I.I.I.I.I.I.I.I.I.I.I.I.I.I.I.I.I.I.I.I.I.I.I.I.I.I.I.I.I.I.",
"I.I.I.I.I.I.I.I.I.I.I.I.I.I.I.I.I.I.I.I.I.I.I.I.I.I.I.I.I.I.I.I.I.$.) : ..s.s.} 1.W E * x z 1.k 4 I.I.I.I.I.I.I.I.I.I.I.I.I.I.I.I.I.I.I.I.I.I.I.I.I.I.I.I.I.I.I.",
"I.I.I.I.I.I.I.I.I.I.I.I.I.I.I.I.I.I.I.I.I.I.I.I.I.I.I.I.I.I.I.I.I.' r.#.[ [ 1.0.q.3.Q x f p p s I.I.I.I.I.I.I.I.I.I.I.I.I.I.I.I.I.I.I.I.I.I.I.I.I.I.I.I.I.I.I.I.",
"I.I.I.I.I.I.I.I.I.I.I.I.I.I.I.I.I.I.I.I.I.I.I.I.I.I.I.I.I.I.I.I.I.I.9.h ^ s.s.w.q.3.x t p s s 4 I.I.I.I.I.I.I.I.I.I.I.I.I.I.I.I.I.I.I.I.I.I.I.I.I.I.I.I.I.I.I.I.",
"I.I.I.I.I.I.I.I.I.I.I.I.I.I.I.I.I.I.I.I.I.I.I.I.I.I.I.I.I.I.I.I.I.I.R 2 2 >.a.w.q.z > = * s a I.I.I.I.I.I.I.I.I.I.I.I.I.I.I.I.I.I.I.I.I.I.I.I.I.I.I.I.I.I.I.I.I.",
"I.I.I.I.I.I.I.I.I.I.I.I.I.I.I.I.I.I.I.I.I.I.I.I.I.I.I.I.I.I.I.I.I.I.7 - o.C 6.w.Q  .J.L.| 2 y I.I.I.I.I.I.I.I.I.I.I.I.I.I.I.I.I.I.I.I.I.I.I.I.I.I.I.I.I.I.I.I.I.",
"I.I.I.I.I.I.I.I.I.I.I.I.I.I.I.I.I.I.I.I.I.I.I.I.I.I.I.I.I.I.I.I.I.I.% J.L.h.- w.+.L.j.# S p 4 I.I.I.I.I.I.I.I.I.I.I.I.I.I.I.I.I.I.I.I.I.I.I.I.I.I.I.I.I.I.I.I.I.",
"I.I.I.I.I.I.I.I.I.I.I.I.I.I.I.I.I.I.I.I.I.I.I.I.I.I.I.I.I.I.I.I.I.I.; O.P.H.g.I K.L.P.x.< p I.I.I.I.I.I.I.I.I.I.I.I.I.I.I.I.I.I.I.I.I.I.I.I.I.I.I.I.I.I.I.I.I.I.",
"I.I.I.I.I.I.I.I.I.I.I.I.I.I.I.I.I.I.I.I.I.I.I.I.I.I.I.I.I.I.I.I.I.I.- P l.b.X.4.z.D.v.H s 4 I.I.I.I.I.I.I.I.I.I.I.I.I.I.I.I.I.I.I.I.I.I.I.I.I.I.I.I.I.I.I.I.I.I.",
"I.I.I.I.I.I.I.I.I.I.I.I.I.I.I.I.I.I.I.I.I.I.I.I.I.I.I.I.I.I.I.I.I.I.I.m.d.s.a.w.q.3.3.~ s 4 I.I.I.I.I.I.I.I.I.I.I.I.I.I.I.I.I.I.I.I.I.I.I.I.I.I.I.I.I.I.I.I.I.I.",
"I.I.I.I.I.I.I.I.I.I.I.I.I.I.I.I.I.I.I.I.I.I.I.I.I.I.I.I.I.I.I.I.I.I.I.V.#.V N P 6.q.<.z a I.I.I.I.I.I.I.I.I.I.I.I.I.I.I.I.I.I.I.I.I.I.I.I.I.I.I.I.I.I.I.I.I.I.I.",
"I.I.I.I.I.I.I.I.I.I.I.I.I.I.I.I.I.I.I.I.I.I.I.I.I.I.I.I.I.I.I.I.I.I.I.V.u.@   . O F <.d a I.I.I.I.I.I.I.I.I.I.I.I.I.I.I.I.I.I.I.I.I.I.I.I.I.I.I.I.I.I.I.I.I.I.I.",
"I.I.I.I.I.I.I.I.I.I.I.I.I.I.I.I.I.I.I.I.I.I.I.I.I.I.I.I.I.I.I.I.I.I.] M.M.$ X X o + Q s p I.I.I.I.I.I.I.I.I.I.I.I.I.I.I.I.I.I.I.I.I.I.I.I.I.I.I.I.I.I.I.I.I.I.I.",
"I.I.I.I.I.I.I.I.I.I.I.I.I.I.I.I.I.I.I.I.I.I.I.I.I.I.I.I.I.I.I.I.I.I.' d... .l.c.F.f.8 s 4 I.I.I.I.I.I.I.I.I.I.I.I.I.I.I.I.I.I.I.I.I.I.I.I.I.I.I.I.I.I.I.I.I.I.I.",
"I.I.I.I.I.I.I.I.I.I.I.I.I.I.I.I.I.I.I.I.I.I.I.I.I.I.I.I.I.I.I.I.K p.8.V.w.7.1.E 1 7 z s R &.I.I.I.I.I.I.I.I.I.I.I.I.I.I.I.I.I.I.I.I.I.I.I.I.I.I.I.I.I.I.I.I.I.I.",
"I.I.I.I.I.I.I.I.I.I.I.I.I.I.I.I.I.I.I.I.I.I.I.I.I.I.I.I.I.I.I.( A.C.5.V.d.0.2.,.^ c s s %.G.&.I I.I.I.I.I.I.I.I.I.I.I.I.I.I.I.I.I.I.I.I.I.I.I.I.I.I.I.I.I.I.I.I.",
"I.I.I.I.I.I.I.I.I.I.I.I.I.I.I.I.I.I.I.I.I.I.I.I.I.I.I.I.I.L C.%.G.C.e.V.M.s.a.w.q.,.s a i.G.r.C.@.I.I.I.I.I.I.I.I.I.I.I.I.I.I.I.I.I.I.I.I.I.I.I.I.I.I.I.I.I.I.I.",
"I.I.I.I.I.I.I.I.I.I.I.I.I.I.I.I.I.I.I.I.I.I.I.I.I.I.I.I.I.r.G.%.e.A.i.5.a.a.a.w.7.^ f ] A.i.e A.A.I.I.I.I.I.I.I.I.I.I.I.I.I.I.I.I.I.I.I.I.I.I.I.I.I.I.I.I.I.I.I.",
"I.I.I.I.I.I.I.I.I.I.I.I.I.I.I.I.I.I.I.I.I.I.I.I.I.I.I.I.I.@.A.n.y.i.%.r.r.r.5.5.t.t.t.@.k p ) G.r.I.I.I.I.I.I.I.I.I.I.I.I.I.I.I.I.I.I.I.I.I.I.I.I.I.I.I.I.I.I.I.",
"I.I.I.I.I.I.I.I.I.I.I.I.I.I.I.I.I.I.I.I.I.I.I.I.I.I.I.I.I.Z &.C.N.&.n.N.p.6.1.1.>.^ ^ p k e.C.r.0 I.I.I.I.I.I.I.I.I.I.I.I.I.I.I.I.I.I.I.I.I.I.I.I.I.I.I.I.I.I.I.",
"I.I.I.I.I.I.I.I.I.I.I.I.I.I.I.I.I.I.I.I.I.I.I.I.I.I.I.I.I.I.y.t.r.n.n.n.r.8.5.$.$.8.t.n.n.5.Y a I.I.I.I.I.I.I.I.I.I.I.I.I.I.I.I.I.I.I.I.I.I.I.I.I.I.I.I.I.I.I.I.",
"I.I.I.I.I.I.I.I.I.I.I.I.I.I.I.I.I.I.I.I.I.I.I.I.I.I.I.I.I.I./ m.G.N.e.%.e.8.t.t.t.$.` T ~ d s 4 I.I.I.I.I.I.I.I.I.I.I.I.I.I.I.I.I.I.I.I.I.I.I.I.I.I.I.I.I.I.I.I.",
"I.I.I.I.I.I.I.I.I.I.I.I.I.I.I.I.I.I.I.I.I.I.I.I.I.I.I.I.I.I.I.q %.N.G.G.V.w.q.7.3.<.<.:.*.f 3 I.I.I.I.I.I.I.I.I.I.I.I.I.I.I.I.I.I.I.I.I.I.I.I.I.I.I.I.I.I.I.I.I.",
"I.I.I.I.I.I.I.I.I.I.I.I.I.I.I.I.I.I.I.I.I.I.I.I.I.I.I.I.I.I.I.x [ 8.6.} } [ { { ^ Q E g r r I.I.I.I.I.I.I.I.I.I.I.I.I.I.I.I.I.I.I.I.I.I.I.I.I.I.I.I.I.I.I.I.I.I.",
"I.I.I.I.I.I.I.I.I.I.I.I.I.I.I.I.I.I.I.I.I.I.I.I.I.I.I.I.I.I./ a.k s.s.s.a.a.w._ V.w.3.3.f 4 I.I.I.I.I.I.I.I.I.I.I.I.I.I.I.I.I.I.I.I.I.I.I.I.I.I.I.I.I.I.I.I.I.I.",
"I.I.I.I.I.I.I.I.I.I.I.I.I.I.I.I.I.I.I.I.I.I.I.I.I.I.I.I.I.I.I.9.~ 6.s.s.a.w.w._ G.s.7.3.j I.I.I.I.I.I.I.I.I.I.I.I.I.I.I.I.I.I.I.I.I.I.I.I.I.I.I.I.I.I.I.I.I.I.I.",
"I.I.I.I.I.I.I.I.I.I.I.I.I.I.I.I.I.I.I.I.I.I.I.D ` U I.I.I.I.I.q x R s.a.w.w.w.` A.s.7.3.0 I.I.I.I.I.I.I.I.I.I.I.I.I.I.I.I.I.I.I.I.I.I.I.I.I.I.I.I.I.I.I.I.I.I.I.",
"I.I.I.I.I.I.I.I.I.I.I.I.I.I.I.I.I.I.I.I.I.I.' m.] ` 2.,.-.~ g h 4 I.s.d.a.w.w.1.1.7.3.E I.I.I.I.I.I.I.I.I.I.I.I.I.I.I.I.I.I.I.I.I.I.I.I.I.I.I.I.I.I.I.I.I.I.I.I.",
"I.I.I.I.I.I.I.I.I.I.I.I.I.I.I.I.I.I.I.I.I.L C.9.I.I.I.E ^ =.M v I.I.9.V.a.w.w.w.` l g p I.I.I.I.I.I.I.I.I.I.I.I.I.I.I.I.I.I.I.I.I.I.I.I.I.I.I.I.I.I.I.I.I.I.I.I.",
"I.I.I.I.I.I.I.I.I.I.I.I.I.I.I.I.I.I.I.I.I.B.p.] I.I.I.I.I.q l j I.I.y.S.a.w.w.w.7.c p p I.I.I.I.I.I.I.I.I.I.I.I.I.I.I.I.I.I.I.I.I.I.I.I.I.I.I.I.I.I.I.I.I.I.I.I.",
"I.I.I.I.I.I.I.I.I.I.I.I.I.I.I.I.I.I.I.I.' B.D G I.I.I.I.I.I.I.I.I.I.i.S.s.w.w.q.{ v p p I.I.I.I.I.I.I.I.I.I.I.I.I.I.I.I.I.I.I.I.I.I.I.I.I.I.I.I.I.I.I.I.I.I.I.I.",
"I.I.I.I.I.I.I.I.I.I.I.I.I.I.I.I.I.I.I.I.' m.I.I.I.I.I.I.I.I.I.I.I.I.y.G.s.a.w.1.E v p p I.I.I.I.I.I.I.I.I.I.I.I.I.I.I.I.I.I.I.I.I.I.I.I.I.I.I.I.I.I.I.I.I.I.I.I.",
"I.I.I.I.I.I.I.I.I.I.I.I.I.I.I.I.I.I.I.I.I.%.I.I.I.I.I.I.I.I.I.I.I.I.y.Z.s.w.{ ^ =.h s p I.I.I.I.I.I.I.I.I.I.I.I.I.I.I.I.I.I.I.I.I.I.I.I.I.I.I.I.I.I.I.I.I.I.I.I.",
"I.I.I.I.I.I.I.I.I.I.I.I.I.I.I.I.I.I.I.I.I.I.I.I.I.I.I.I.I.I.I.I.I.6.s.s.a.} >.,.f s s s p I.I.I.I.I.I.I.I.I.I.I.I.I.I.I.I.I.I.I.I.I.I.I.I.I.I.I.I.I.I.I.I.I.I.I.",
"I.I.I.I.I.I.I.I.I.I.I.I.I.I.I.I.I.I.I.I.I.I.I.I.I.I.I.I.I.I.I.I.9.M.m.s.0.{ ,.f ! 2.,.z s a 3 I.I.I.I.I.I.I.I.I.I.I.I.I.I.I.I.I.I.I.I.I.I.I.I.I.I.I.I.I.I.I.I.I.",
"I.I.I.I.I.I.I.I.I.I.I.I.I.I.I.I.I.I.I.I.I.I.I.I.I.I.I.I.I.I.R p.A.G.G.a.` Q p -.q.q.7.:.s s a 4 I.I.I.I.I.I.I.I.I.I.I.I.I.I.I.I.I.I.I.I.I.I.I.I.I.I.I.I.I.I.I.I.",
"I.I.I.I.I.I.I.I.I.I.I.I.I.I.I.I.I.I.I.I.I.I.I.I.I.I.I.I.I.K s.G.G.G.A.$.6.p -.w.q.q.7.3.s s s a I.I.I.I.I.I.I.I.I.I.I.I.I.I.I.I.I.I.I.I.I.I.I.I.I.I.I.I.I.I.I.I.",
"I.I.I.I.I.I.I.I.I.I.I.I.I.I.I.I.I.I.I.I.I.I.I.I.I.I.I.I.I.u.S.S.G.G.e.s.Y z w.q.q.q.7.3.c s s s r I.I.I.I.I.I.I.I.I.I.I.I.I.I.I.I.I.I.I.I.I.I.I.I.I.I.I.I.I.I.I.",
"I.I.I.I.I.I.I.I.I.I.I.I.I.I.I.I.I.I.I.I.I.I.I.I.I.I.I.I.' S.S.S.S.s.t.B.u x w.q.q.q.7.3.b s s s s I.I.I.I.I.I.I.I.I.I.I.I.I.I.I.I.I.I.I.I.I.I.I.I.I.I.I.I.I.I.I.",
"I.I.I.I.I.I.I.I.I.I.I.I.I.I.I.I.I.I.I.I.I.I.I.I.I.I.I.I.y.S.S.S.d.8.N.S.g b w.w.q.q.7.3.M s s s s 4 I.I.I.I.I.I.I.I.I.I.I.I.I.I.I.I.I.I.I.I.I.I.I.I.I.I.I.I.I.I.",
"I.I.I.I.I.I.I.I.I.I.I.I.I.I.I.I.I.I.I.I.I.I.I.I.I.I.I.I.V.S.S.V.d.5.S.V.g b w.q.q.q.7.3.-.s s s s p I.I.I.I.I.I.I.I.I.I.I.I.I.I.I.I.I.I.I.I.I.I.I.I.I.I.I.I.I.I.",
"I.I.I.I.I.I.I.I.I.I.I.I.I.I.I.I.I.I.I.I.I.I.I.I.I.I.I.' V.S.V.M.d.4.r.4.u b w.w.q.q.7.3.,.s s s s s I.I.I.I.I.I.I.I.I.I.I.I.I.I.I.I.I.I.I.I.I.I.I.I.I.I.I.I.I.I.",
"I.I.I.I.I.I.I.I.I.I.I.I.I.I.I.I.I.I.I.I.I.I.I.I.I.I.I.e.S.S.V.d.d.H u -.0.T >.q.q.q.7.3.<.h s s s s 4 I.I.I.I.I.I.I.I.I.I.I.I.I.I.I.I.I.I.I.I.I.I.I.I.I.I.I.I.I.",
"I.I.I.I.I.I.I.I.I.I.I.I.I.I.I.I.I.I.I.I.I.I.I.I.I.I.I.m.S.V.M.M.4._ h a.a.w.Q w.q.q.7.3.<.z s s s s p I.I.I.I.I.I.I.I.I.I.I.I.I.I.I.I.I.I.I.I.I.I.I.I.I.I.I.I.I.",
"I.I.I.I.I.I.I.I.I.I.I.I.I.I.I.I.I.I.I.I.I.I.I.I.I.I.I.M.S.V.M.M.[ Q 1.a.a.w.2.7.q.7.7.3.<.b s s s s s I.I.I.I.I.I.I.I.I.I.I.I.I.I.I.I.I.I.I.I.I.I.I.I.I.I.I.I.I.",
"I.I.I.I.I.I.I.I.I.I.I.I.I.I.I.I.I.I.I.I.I.I.I.I.I.I.) S.S.V.M.s.8.4.s.a.a.w.w.q.q.q.7.3.2.M s s s s s 4 I.I.I.I.I.I.I.I.I.I.I.I.I.I.I.I.I.I.I.I.I.I.I.I.I.I.I.I.",
"I.I.I.I.I.I.I.I.I.I.I.I.I.I.I.I.I.I.I.I.I.I.I.I.I.I.4.Z.S.V.M.8.d.8.s.s.a.a.q.q.q.q.7.3.3.=.s s s s s p I.I.I.I.I.I.I.I.I.I.I.I.I.I.I.I.I.I.I.I.I.I.I.I.I.I.I.I.",
"I.I.I.I.I.I.I.I.I.I.I.I.I.I.I.I.I.I.I.I.I.I.I.I.I.I...Z.S.V.M.9.s.a.s.a.a.w.w.w.q.q.7.3.<.<.h s s s s s 4 I.I.I.I.I.I.I.I.I.I.I.I.I.I.I.I.I.I.I.I.I.I.I.I.I.I.I.",
"I.I.I.I.I.I.I.I.I.I.I.I.I.I.I.I.I.I.I.I.I.I.I.I.I.I.5.V.V.M.M.a.d.d.s.a.a.a.w.w.q.q.7.3.3.<.b s s s s s p I.I.I.I.I.I.I.I.I.I.I.I.I.I.I.I.I.I.I.I.I.I.I.I.I.I.I.",
"I.I.I.I.I.I.I.I.I.I.I.I.I.I.I.I.I.I.I.I.I.I.I.I.I.I.8.Z.Z.M.M.M.d.d.s.a.w.a.w.q.q.q.7.3.<.<.M s s s s s s I.I.I.I.I.I.I.I.I.I.I.I.I.I.I.I.I.I.I.I.I.I.I.I.I.I.I.",
"I.I.I.I.I.I.I.I.I.I.I.I.I.I.I.I.I.I.I.I.I.I.I.I.I.I.8.S.Z.M.M.M.d.d.d.d.a.w.w.q.q.q.7.3.3.<.;.s s s s s s r I.I.I.I.I.I.I.I.I.I.I.I.I.I.I.I.I.I.I.I.I.I.I.I.I.I.",
"I.I.I.I.I.I.I.I.I.I.I.I.I.I.I.I.I.I.I.I.I.I.I.I.I.I.t.G.S.M.M.M.d.d.a.a.a.w.w.w.q.q.7.3.3.<.<.s s s s s s a I.I.I.I.I.I.I.I.I.I.I.I.I.I.I.I.I.I.I.I.I.I.I.I.I.I.",
"I.I.I.I.I.I.I.I.I.I.I.I.I.I.I.I.I.I.I.I.I.I.I.I.I.I.t.S.S.M.M.d.d.d.a.a.a.w.w.q.q.q.7.3.<.<.<.m s s s s s s p I.I.I.I.I.I.I.I.I.I.I.I.I.I.I.I.I.I.I.I.I.I.I.I.I.",
"I.I.I.I.I.I.I.I.I.I.I.I.I.I.I.I.I.I.I.I.I.I.I.I.I.I.e.G.S.V.M.d.d.d.d.a.a.a.w.w.q.q.7.7.3.<.:.*.s s s s s s a I.I.I.I.I.I.I.I.I.I.I.I.I.I.I.I.I.I.I.I.I.I.I.I.I.",
"I.I.I.I.I.I.I.I.I.I.I.I.I.I.I.I.I.I.I.I.I.I.I.I.I.I.r.G.G.V.M.M.d.d.d.s.a.w.w.w.q.q.7.3.<.<.<.:.d d s s s s s t I.I.I.I.I.I.I.I.I.I.I.I.I.I.I.I.I.I.I.I.I.I.I.I.",
"I.I.I.I.I.I.I.I.I.I.I.I.I.I.I.I.I.I.I.I.I.I.I.I.I.I.y.G.G.V.M.M.d.d.a.a.a.w.w.w.q.q.7.3.3.<.<.:.M s s s s s s t I.I.I.I.I.I.I.I.I.I.I.I.I.I.I.I.I.I.I.I.I.I.I.I.",
"I.I.I.I.I.I.I.I.I.I.I.I.I.I.I.I.I.I.I.I.I.I.I.I.I.I.n.G.G.A.V.M.d.d.d.a.a.w.w.q.q.7.7.3.3.<.<.:.M s s s s s s s p I.I.I.I.I.I.I.I.I.I.I.I.I.I.I.I.I.I.I.I.I.I.I.",
"I.I.I.I.I.I.I.I.I.I.I.I.I.I.I.I.I.I.I.I.I.I.I.I.I.I.S.G.G.S.Z.M.d.d.s.a.a.w.w.w.q.q.7.3.3.<.<.:.*.s s s s s s s s 4 I.I.I.I.I.I.I.I.I.I.I.I.I.I.I.I.I.I.I.I.I.I.",
"I.I.I.I.I.I.I.I.I.I.I.I.I.I.I.I.I.I.I.I.I.I.I.I.I.I.N.G.G.G.G.V.d.d.s.a.a.w.w.w.q.q.q.3.3.<.<.:.:.b s s s s s s s r I.I.I.I.I.I.I.I.I.I.I.I.I.I.I.I.I.I.I.I.I.I.",
"I.I.I.I.I.I.I.I.I.I.I.I.I.I.I.I.I.I.I.I.I.I.I.I.I.I.@.A.G.G.S.S.M.d.s.a.a.w.w.q.q.q.q.3.3.<.<.<.:.M s s s s s s s 4 I.I.I.I.I.I.I.I.I.I.I.I.I.I.I.I.I.I.I.I.I.I.",
"I.I.I.I.I.I.I.I.I.I.I.I.I.I.I.I.I.I.I.I.I.I.I.I.I.I.5.5.n.S.G.G.V.d.s.s.a.w.w.w.q.q.7.3.<.<.<.:.:.=.c s s s s s 4 p 4 I.I.I.I.I.I.I.I.I.I.I.I.I.I.I.I.I.I.I.I.I.",
"I.I.I.I.I.I.I.I.I.I.I.I.I.I.I.I.I.I.I.I.I.I.I.I.I.I.e.V.m.%.i.V.V.s.a.s.a.w.w.w.q.q.7.3.3.<.<.:.:.=.M s s s t t s s 4 I.I.I.I.I.I.I.I.I.I.I.I.I.I.I.I.I.I.I.I.I.",
"I.I.I.I.I.I.I.I.I.I.I.I.I.I.I.I.I.I.I.I.I.I.I.I.I.I.I.B.G.G.A.i.5.` 6.a.a.w.w.q.q.q.q.7.3.<.<.:.:.=.m g y p p s s s I.I.I.I.I.I.I.I.I.I.I.I.I.I.I.I.I.I.I.I.I.I.",
"I.I.I.I.I.I.I.I.I.I.I.I.I.I.I.I.I.I.I.I.I.I.I.I.I.I.I.I.n.S.G.G.G.V.u.6.1.[ } { { { E E x l l g y p p s s s s s p 4 I.I.I.I.I.I.I.I.I.I.I.I.I.I.I.I.I.I.I.I.I.I.",
"I.I.I.I.I.I.I.I.I.I.I.I.I.I.I.I.I.I.I.I.I.I.I.I.I.I.I.I.I.@.p.A.S.G.M.s.s.a.w.w.q.3.s s s s s s s s s s s s p p I.I.I.I.I.I.I.I.I.I.I.I.I.I.I.I.I.I.I.I.I.I.I.I.",
"I.I.I.I.I.I.I.I.I.I.I.I.I.I.I.I.I.I.I.I.I.I.I.I.I.I.I.I.I.I.I.e #.8.u.a.a.w.w.w.w.3.s s s s s s s s s p y 4 I.I.I.I.I.I.I.I.I.I.I.I.I.I.I.I.I.I.I.I.I.I.I.I.I.I.",
"I.I.I.I.I.I.I.I.I.I.I.I.I.I.I.I.I.I.I.I.I.I.I.I.I.I.I.I.I.I.I.I.I.I.I.I.U R R _ _ Q p p p 4 4 4 2 I.I.I.I.I.I.I.I.I.I.I.I.I.I.I.I.I.I.I.I.I.I.I.I.I.I.I.I.I.I.I.",
"I.I.I.I.I.I.I.I.I.I.I.I.I.I.I.I.I.I.I.I.I.I.I.I.I.I.I.I.I.I.I.I.I.I.I.I.I.I.I.I.I.I.I.I.I.I.I.I.I.I.I.I.I.I.I.I.I.I.I.I.I.I.I.I.I.I.I.I.I.I.I.I.I.I.I.I.I.I.I.I.",
"I.I.I.I.I.I.I.I.I.I.I.I.I.I.I.I.I.I.I.I.I.I.I.I.I.I.I.I.I.I.I.I.I.I.I.I.I.I.I.I.I.I.I.I.I.I.I.I.I.I.I.I.I.I.I.I.I.I.I.I.I.I.I.I.I.I.I.I.I.I.I.I.I.I.I.I.I.I.I.I.",
"I.I.I.I.I.I.I.I.I.I.I.I.I.I.I.I.I.I.I.I.I.I.I.I.I.I.I.I.I.I.I.I.I.I.I.I.I.I.I.I.I.I.I.I.I.I.I.I.I.I.I.I.I.I.I.I.I.I.I.I.I.I.I.I.I.I.I.I.I.I.I.I.I.I.I.I.I.I.I.I."
};
