/* XPM */
static char *result[] = {
/* columns rows colors chars-per-pixel */
"80 80 134 2 ",
"   c #252525",
".  c gray16",
"X  c #2A2A2A",
"o  c #2F2F2F",
"O  c gray19",
"+  c #323232",
"@  c #343434",
"#  c #373737",
"$  c #393939",
"%  c gray23",
"&  c #3F3F3F",
"*  c #444444",
"=  c gray27",
"-  c #464646",
";  c #484848",
":  c gray30",
">  c #4E4E4E",
",  c gray31",
"<  c #515151",
"1  c gray34",
"2  c #5B5B5B",
"3  c #646464",
"4  c #656565",
"5  c #6A6A6A",
"6  c gray42",
"7  c #6D6D6D",
"8  c gray47",
"9  c #7E7E7E",
"0  c #808080",
"q  c gray51",
"w  c gray53",
"e  c #888888",
"r  c #898989",
"t  c gray54",
"y  c #909090",
"u  c #929292",
"i  c #939393",
"p  c #979797",
"a  c #A7A7A7",
"s  c gray67",
"d  c #B2B2B2",
"f  c #B4B4B4",
"g  c gray71",
"h  c #BDBBBA",
"j  c #BCBCBC",
"k  c gray75",
"l  c #C3C1BE",
"z  c #C1C1C1",
"x  c gray76",
"c  c gray77",
"v  c #C5C5C5",
"b  c #C6C6C6",
"n  c gray78",
"m  c #C8C8C8",
"M  c gray79",
"N  c #CACACA",
"B  c #CBCBCB",
"V  c gray80",
"C  c #CDCDCD",
"Z  c #CFCECD",
"A  c #CECECE",
"S  c #CFCECF",
"D  c gray81",
"F  c #D2D0CF",
"G  c #D0D0D0",
"H  c gray82",
"J  c #D2D2D2",
"K  c LightGray",
"L  c gray83",
"P  c #D5D5D5",
"I  c gray84",
"U  c #D7D6D6",
"Y  c #D7D7D7",
"T  c #D8D8D8",
"R  c gray85",
"E  c #DBD9D9",
"W  c #DAD9DA",
"Q  c #DADADA",
"!  c gray86",
"~  c #DCDBDA",
"^  c gainsboro",
"/  c #DDDDDD",
"(  c #DFDEDD",
")  c gray87",
"_  c #DFDFDF",
"`  c gray88",
"'  c #E1E1E1",
"]  c #E3E2E1",
"[  c #E2E1E2",
"{  c #E2E2E2",
"}  c gray89",
"|  c #E5E4E3",
" . c #E4E4E4",
".. c gray90",
"X. c #E7E6E5",
"o. c #E6E6E6",
"O. c #E7E7E7",
"+. c gray91",
"@. c #E9E8E9",
"#. c #E9E9E9",
"$. c #EAE9E9",
"%. c #EAEAEA",
"&. c gray92",
"*. c #ECECEC",
"=. c gray93",
"-. c #EEEDED",
";. c #EEEEEE",
":. c #EFEFEE",
">. c #EFEFEF",
",. c gray94",
"<. c #F1F1F1",
"1. c gray95",
"2. c #F3F3F2",
"3. c #F3F3F3",
"4. c #F4F3F3",
"5. c #F4F4F4",
"6. c gray96",
"7. c #F6F6F6",
"8. c #F7F6F7",
"9. c gray97",
"0. c #F8F8F7",
"q. c #F8F9F7",
"w. c #F9FAF7",
"e. c #F8F8F8",
"r. c #F9F8F8",
"t. c #F9F9F8",
"y. c #F9F9F9",
"u. c #FAFBF8",
"i. c gray98",
"p. c #FBFBFB",
"a. c gray99",
"s. c #FDFDFD",
"d. c #FEFEFE",
"f. c None",
/* pixels */
"f.f.f.f.f.f.f.f.f.f.f.f.f.f.f.f.f.f.f.f.;.9.7.7.7.7.6.6.6.7.7.7.7.7.7.7.7.7.7.7.7.6.6.6.6.6.7.7.7.7.6.6.6.6.6.7.7.9.t.f.f.f.f.f.f.f.f.f.f.f.f.f.f.f.f.f.f.f.f.f.",
"f.f.f.f.f.f.f.f.f.f.f.f.f.f.f.f.f.f.f.f.=.e.9.6.3.3.5.3.3.5.5.5.5.5.5.5.5.5.5.5.5.5.3.3.5.5.6.6.6.5.5.5.5.5.5.5.7.q.u.f.f.f.f.f.f.f.f.f.f.f.f.f.f.f.f.f.f.f.f.f.",
"f.f.f.f.f.f.f.f.f.f.f.f.f.f.f.f.f.f.f.f.=.y.7.J A D G H J J K K L L P P I Y Y T R R R Q ! ^ ^ / ) / ) ) _ _ ) R  .q.u.f.f.f.f.f.f.f.f.f.f.f.f.f.f.f.f.f.f.f.f.f.",
"f.f.f.f.f.f.f.f.f.f.f.f.f.f.f.f.f.f.f.f.*.e.7._ ' ' { } }  ...o.O.+.#.%.*.=.;.>.<.1.3.5.6.9.e.y.i.p.p.a.s.d.d.7.+.t.w.f.f.f.f.f.f.f.f.f.f.f.f.f.f.f.f.f.f.f.f.f.",
"f.f.f.f.f.f.f.f.f.f.f.f.f.f.f.f.f.f.f.f.*.e.9.[ ' ' { } }  ...o.O.+.#.%.*.=.;.>.<.1.3.5.6.9.e.y.i.p.p.a.s.d.d.9.%.t.w.f.f.f.f.f.f.f.f.f.f.f.f.f.f.f.f.f.f.f.f.f.",
"f.f.f.f.f.f.f.f.f.f.f.f.f.f.f.f.f.f.f.f.&.e.9.{ ' ' { } }  ...o.O.+.#.%.*.=.;.>.<.1.3.5.6.9.e.y.i.p.p.a.s.d.d.9.%.e.0.f.f.f.f.f.f.f.f.f.f.f.f.f.f.f.f.f.f.f.f.f.",
"f.f.f.f.f.f.f.f.f.f.f.f.f.f.f.f.f.f.f.f.&.9.9.{ ' ' { } }  ...o.O.+.#.%.*.=.;.>.<.1.3.5.6.9.e.y.i.p.p.a.s.d.d.9.#.e.e.f.f.f.f.f.f.f.f.f.f.f.f.f.f.f.f.f.f.f.f.f.",
"f.f.f.f.f.f.f.f.f.f.f.f.f.f.f.f.f.f.f.f.&.9.9.{ ' ' { } }  ...o.O.+.#.%.*.=.;.>.n x 3.5.6.9.e.y.i.p.p.a.s.d.d.9.#.9.e.f.f.f.f.f.f.f.f.f.f.f.f.f.f.f.f.f.f.f.f.f.",
"f.f.f.f.f.f.f.f.f.f.f.f.f.f.f.f.f.f.f.f.%.9.8.{ ' ' { } }  ...o.O.+.#.%.*.=.%.M t e 3.5.6.9.e.y.i.p.p.a.s.d.d.9.@.9.e.f.f.f.f.f.f.f.f.f.f.f.f.f.f.f.f.f.f.f.f.f.",
"f.f.f.f.f.f.f.f.f.f.f.f.f.f.f.f.f.f.f.f.#.7.7.{ ' ' { } }  ...o.O.+.#.%.*.=.N   o j 3.5.6.9.e.y.i.p.p.a.s.d.d.9.@.9.e.f.f.f.f.f.f.f.f.f.f.f.f.f.f.f.f.f.f.f.f.f.",
"f.f.f.f.f.f.f.f.f.f.f.f.f.f.f.f.f.f.f.f.#.7.7.{ ' ' { } }  ...o.O.+.#.%.*.=.R $ + n 3.5.6.9.e.y.i.p.p.a.s.d.d.9.@.9.9.f.f.f.f.f.f.f.f.f.f.f.f.f.f.f.f.f.f.f.f.f.",
"f.f.f.f.f.f.f.f.f.f.f.f.f.f.f.f.f.f.f.f.+.7.7.{ ' ' { } }  ...o.O.+.#.%.*.=.T : > =.3.5.6.9.e.y.i.p.p.a.s.d.d.9.@.7.9.f.f.f.f.f.f.f.f.f.f.f.f.f.f.f.f.f.f.f.f.f.",
"f.f.f.f.f.f.f.f.f.f.f.f.f.f.f.f.f.f.f.f.O.7.6.{ ' ' { } }  ...o.O.+.#.%.*.=.! # = >.3.5.6.9.e.y.i.p.p.a.s.d.d.9.@.7.9.f.f.f.f.f.f.f.f.f.f.f.f.f.f.f.f.f.f.f.f.f.",
"f.f.f.f.f.f.f.f.f.f.f.f.f.f.f.f.f.f.f.f.O.6.6.{ ' ' { } }  ...o.O.+.#.%.*.=._ o % >.3.5.6.9.e.y.i.p.p.a.s.d.d.9.@.7.9.f.f.f.f.f.f.f.f.f.f.f.f.f.f.f.f.f.f.f.f.f.",
"f.f.f.f.f.f.f.f.f.f.f.f.f.f.f.f.f.f.f.f.O.6.6.{ ' ' { } }  ...o.O.+.#.%.*.=.I . O ` 3.5.6.9.e.y.i.p.p.a.s.d.d.9.+.7.7.f.f.f.f.f.f.f.f.f.f.f.f.f.f.f.f.f.f.f.f.f.",
"f.f.f.f.f.f.f.f.f.f.f.f.f.f.f.f.f.f.f.f.O.6.5.{ ' ' { } }  ...o.O.+.#.%.*.=.x , * D 3.5.6.9.e.y.i.p.p.a.s.d.d.9.+.7.6.f.f.f.f.f.f.f.f.f.f.f.f.f.f.f.f.f.f.f.f.f.",
"f.f.f.f.f.f.f.f.f.f.f.f.f.f.f.f.f.f.f.f.o.3.3.' ' ' { } }  ...o.O.+.#.%.*.=.+.' _ ;.3.5.6.9.e.y.i.p.p.a.s.d.d.9.O.6.6.f.f.f.f.f.f.f.f.f.f.f.f.f.f.f.f.f.f.f.f.f.",
"f.f.f.f.f.f.f.f.f.f.f.f.f.f.f.f.f.f.f.f.o.3.3.' ' ' { } }  ...o.O.K n H N m R L Y >.B n P n G 9.i.p.p.a.s.d.d.9.O.5.5.f.f.f.f.f.f.f.f.f.f.f.f.f.f.f.f.f.f.f.f.f.",
"f.f.f.f.f.f.f.f.f.f.f.f.f.f.f.f.f.f.f.f.o.3.1.' ' ' { } }  ...o.O.p . 0 ; < 6 2 3 ..@ 5 s X q 7.i.p.p.a.s.d.d.9.o.3.5.f.f.f.f.f.f.f.f.f.f.f.f.f.f.f.f.f.f.f.f.f.",
"f.f.f.f.f.f.f.f.f.f.f.f.f.f.f.f.f.f.f.f.o.1.1.' ' ' { } }  ...o.O.R & k 1 7 4 1 , v @ 8 ' - f y.i.p.p.a.s.d.d.9.o.3.3.f.f.f.f.f.f.f.f.f.f.f.f.f.f.f.f.f.f.f.f.f.",
"f.f.f.f.f.f.f.f.f.f.f.f.f.f.f.f.f.f.f.f.o.1.1.' ' ' { } }  ...o.O._ r ! r w g a 9 u i y } d ! y.i.p.p.a.s.d.d.7...3.3.f.f.f.f.f.f.f.f.f.f.f.f.f.f.f.f.f.f.f.f.f.",
"f.f.f.f.f.f.f.f.f.f.f.f.f.f.f.f.f.f.f.f...<.<.' ' ' { } }  ...o.O.+.#.%.*.=.;.>.<.1.3.5.6.9.e.y.i.p.p.a.s.d.d.7...1.3.f.f.f.f.f.f.f.f.f.f.f.f.f.f.f.f.f.f.f.f.f.",
"f.f.f.f.f.f.f.f.f.f.f.f.f.f.f.f.f.f.f.f. .<.<.` ' ' { } }  ...o.O.+.#.%.*.=.;.>.<.1.3.5.6.9.e.y.i.p.p.a.s.d.d.7...1.1.f.f.f.f.f.f.f.f.f.f.f.f.f.f.f.f.f.f.f.f.f.",
"f.f.f.f.f.f.f.f.f.f.f.f.f.f.f.f.f.f.f.f. .<.<.' ' ' { } }  ...o.O.+.#.%.*.=.;.>.<.1.3.5.6.9.e.y.i.p.p.a.s.d.d.7. .<.<.f.f.f.f.f.f.f.f.f.f.f.f.f.f.f.f.f.f.f.f.f.",
"f.f.f.f.f.f.f.f.f.f.f.f.f.f.f.f.f.f.f.f. .,.,.` ' ' { } }  ...o.O.+.#.%.*.=.;.>.<.1.3.5.6.9.e.y.i.p.p.a.s.d.d.7. .<.<.f.f.f.f.f.f.f.f.f.f.f.f.f.f.f.f.f.f.f.f.f.",
"f.f.f.f.f.f.f.f.f.f.f.f.f.f.f.f.f.f.f.f.{ ,.>._ ' ' { } }  ...o.O.+.#.%.*.=.;.>.<.1.3.5.6.9.e.y.i.p.p.a.s.d.d.7. .,.<.f.f.f.f.f.f.f.f.f.f.f.f.f.f.f.f.f.f.f.f.f.",
"f.f.f.f.f.f.f.f.f.f.f.f.f.f.f.f.f.f.f.f.' >.>._ ' ' { } }  ...o.O.+.#.%.*.=.;.>.<.1.3.5.6.9.e.y.i.p.p.a.s.d.d.7. .,.,.f.f.f.f.f.f.f.f.f.f.f.f.f.f.f.f.f.f.f.f.f.",
"f.f.f.f.f.f.f.f.f.f.f.f.f.f.f.f.f.f.f.f.' >.;._ ' ' { } }  ...o.O.+.#.%.*.=.;.>.<.1.3.5.6.9.e.y.i.p.p.a.s.d.d.7.} >.,.f.f.f.f.f.f.f.f.f.f.f.f.f.f.f.f.f.f.f.f.f.",
"f.f.f.f.f.f.f.f.f.f.f.f.f.f.f.f.f.f.f.f.` ;.=._ ' ' { } }  ...o.O.+.#.%.*.=.;.>.<.1.3.5.6.9.e.y.i.p.p.a.s.d.d.7.{ >.,.f.f.f.f.f.f.f.f.f.f.f.f.f.f.f.f.f.f.f.f.f.",
"f.f.f.f.f.f.f.f.f.f.f.f.f.f.f.f.f.f.f.f.` =.=._ ' ' { } }  ...o.O.+.#.%.*.=.;.>.<.1.3.5.6.9.e.y.i.p.p.a.s.d.d.7.[ >.>.f.f.f.f.f.f.f.f.f.f.f.f.f.f.f.f.f.f.f.f.f.",
"f.f.f.f.f.f.f.f.f.f.f.f.f.f.f.f.f.f.f.f._ *.*.) ' ' { } }  ...o.O.+.#.%.*.=.;.>.<.1.3.5.6.9.e.y.i.p.p.a.s.d.d.7.[ ;.;.f.f.f.f.f.f.f.f.f.f.f.f.f.f.f.f.f.f.f.f.f.",
"f.f.f.f.f.f.f.f.f.f.f.f.f.f.f.f.f.f.f.f._ *.&.) ' ' { } }  ...o.O.+.#.%.*.=.;.>.<.1.3.5.6.9.e.y.i.p.p.a.s.d.d.7.' *.=.f.f.f.f.f.f.f.f.f.f.f.f.f.f.f.f.f.f.f.f.f.",
"f.f.f.f.f.f.f.f.f.f.f.f.f.f.f.f.f.f.f.f./ &.&.) ' ' { } }  ...o.O.+.#.%.*.=.;.>.<.1.3.5.6.9.e.y.i.p.p.a.s.d.d.7.` *.=.f.f.f.f.f.f.f.f.f.f.f.f.f.f.f.f.f.f.f.f.f.",
"f.f.f.f.f.f.f.f.f.f.f.f.f.f.f.f.f.f.f.f./ &.&.) ' ' { } }  ...o.O.+.#.%.*.=.;.>.<.1.3.5.6.9.e.y.i.p.p.a.s.d.d.7._ *.*.f.f.f.f.f.f.f.f.f.f.f.f.f.f.f.f.f.f.f.f.f.",
"f.f.f.f.f.f.f.f.f.f.f.f.f.f.f.f.f.f.f.f./ %.%./ ' ' { } }  ...o.O.+.#.%.*.=.;.>.<.1.3.5.6.9.e.y.i.p.p.a.s.d.d.7._ &.&.f.f.f.f.f.f.f.f.f.f.f.f.f.f.f.f.f.f.f.f.f.",
"f.f.f.f.f.f.f.f.f.f.f.f.f.f.f.f.f.f.f.f./ %.+./ ' ' { } }  ...o.O.+.#.%.*.=.;.>.<.1.3.5.6.9.e.y.i.p.p.a.s.d.d.6./ %.&.f.f.f.f.f.f.f.f.f.f.f.f.f.f.f.f.f.f.f.f.f.",
"f.f.f.f.f.f.f.f.f.f.f.f.f.f.f.f.f.f.f.f./ #.#.^ ' ' { } }  ...o.O.+.#.%.*.=.;.>.<.1.3.5.6.9.e.y.i.p.p.a.s.d.d.6.^ #.%.f.f.f.f.f.f.f.f.f.f.f.f.f.f.f.f.f.f.f.f.f.",
"f.f.f.f.f.f.f.f.f.f.f.f.f.f.f.f.f.f.f.f.! #.#.^ ' ' { } }  ...o.O.+.#.%.*.=.;.>.<.1.3.5.6.9.e.y.i.p.p.a.s.d.d.6.! #.%.f.f.f.f.f.f.f.f.f.f.f.f.f.f.f.f.f.f.f.f.f.",
"f.f.f.f.f.f.f.f.f.f.f.f.f.f.f.f.f.f.f.f.! +.+.^ ' ' { } }  ...o.O.+.#.%.*.=.;.>.<.1.3.5.6.9.e.y.i.p.p.a.s.d.d.6.! #.%.f.f.f.f.f.f.f.f.f.f.f.f.f.f.f.f.f.f.f.f.f.",
"f.f.f.f.f.f.f.f.f.f.f.f.f.f.f.f.f.f.f.f.! +.O.^ ' ' { } }  ...o.O.+.#.%.*.=.;.>.<.1.3.5.6.9.e.y.i.p.p.a.s.d.d.6.^ #.#.f.f.f.f.f.f.f.f.f.f.f.f.f.f.f.f.f.f.f.f.f.",
"f.f.f.f.f.f.f.f.f.f.f.f.f.f.f.f.f.f.f.f.Q +.O.! ' ' { } }  ...o.O.+.#.%.*.=.;.>.<.1.3.5.6.9.e.y.i.p.p.a.a.6.4.5.^ #.#.f.f.f.f.f.f.f.f.f.f.f.f.f.f.f.f.f.f.f.f.f.",
"f.f.f.f.f.f.f.f.f.f.f.f.f.f.f.f.f.f.f.f.W O.o.! ' ' { } }  ...o.O.+.#.%.*.=.;.>.<.1.3.5.6.9.e.y.i.2.-.-.$.l h <.^ +.+.f.f.f.f.f.f.f.f.f.f.f.f.f.f.f.f.f.f.f.f.f.",
"f.f.f.f.f.f.f.f.f.f.f.f.f.f.f.f.f.f.f.f.R o...! ' ' { } }  ...o.O.+.#.%.*.=.;.>.<.1.3.5.6.9.e.y.i.:.X.| ] E U 3.^ O.+.f.f.f.f.f.f.f.f.f.f.f.f.f.f.f.f.f.f.f.f.f.",
"f.f.f.f.f.f.f.f.f.f.f.f.f.f.f.f.f.f.f.f.T .. .Q ' ' { } }  ...o.O.+.#.%.*.=.;.>.<.1.3.5.6.9.e.y.i.p.p.a.r.F Z <.! o.o.f.f.f.f.f.f.f.f.f.f.f.f.f.f.f.f.f.f.f.f.f.",
"f.f.f.f.f.f.f.f.f.f.f.f.f.f.f.f.f.f.f.f.T  . .Q ' ' { } }  ...o.O.+.#.%.*.=.;.>.<.1.3.5.6.9.e.y.i.p.p.a.i.( ~ 3.Q ....f.f.f.f.f.f.f.f.f.f.f.f.f.f.f.f.f.f.f.f.f.",
"f.f.f.f.f.f.f.f.f.f.f.f.f.f.f.f.f.f.f.f.T  .} Q ' ' { } }  ...o.O.+.#.%.*.=.;.>.<.1.3.5.6.9.e.y.i.p.p.a.s.d.d.6.!  ...f.f.f.f.f.f.f.f.f.f.f.f.f.f.f.f.f.f.f.f.f.",
"f.f.f.f.f.f.f.f.f.f.f.f.f.f.f.f.f.f.f.f.I } { R ' ' { } }  ...o.O.+.#.%.*.=.;.>.<.1.3.5.6.9.e.y.i.p.p.a.s.d.d.6.R }  .f.f.f.f.f.f.f.f.f.f.f.f.f.f.f.f.f.f.f.f.f.",
"f.f.f.f.f.f.f.f.f.f.f.f.f.f.f.f.f.f.f.f.P { { R ' ' { } }  ...o.O.+.#.%.*.=.;.>.<.1.3.5.6.9.e.y.i.p.p.a.s.d.d.6.R } } f.f.f.f.f.f.f.f.f.f.f.f.f.f.f.f.f.f.f.f.f.",
"f.f.f.f.f.f.f.f.f.f.f.f.f.f.f.f.f.f.f.f.L { ' R ' ' { } }  ...o.O.+.#.%.*.=.;.>.<.1.3.5.6.9.e.y.i.p.p.a.s.d.d.6.R { { f.f.f.f.f.f.f.f.f.f.f.f.f.f.f.f.f.f.f.f.f.",
"f.f.f.f.f.f.f.f.f.f.f.f.f.f.f.f.f.f.f.f.L { ' R ' ' { } }  ...o.O.+.#.%.*.=.;.>.<.1.3.5.6.9.e.y.i.p.p.a.s.d.d.6.T ' { f.f.f.f.f.f.f.f.f.f.f.f.f.f.f.f.f.f.f.f.f.",
"f.f.f.f.f.f.f.f.f.f.f.f.f.f.f.f.f.f.f.f.K ' ` T ' ' { } }  ...o.O.+.#.%.*.=.;.>.<.1.3.5.6.9.e.y.i.p.p.a.s.d.d.5.Y ' ' f.f.f.f.f.f.f.f.f.f.f.f.f.f.f.f.f.f.f.f.f.",
"f.f.f.f.f.f.f.f.f.f.f.f.f.f.f.f.f.f.f.f.K ` _ T ' ' { } }  ...o.O.+.#.%.*.=.;.>.<.1.3.5.6.9.e.y.i.p.p.a.s.d.d.5.Y ` ' f.f.f.f.f.f.f.f.f.f.f.f.f.f.f.f.f.f.f.f.f.",
"f.f.f.f.f.f.f.f.f.f.f.f.f.f.f.f.f.f.f.f.K _ ) Y ' ' { } }  ...o.O.+.#.%.*.=.;.>.<.1.3.5.6.9.e.y.i.p.p.a.s.d.d.6.I ` ` f.f.f.f.f.f.f.f.f.f.f.f.f.f.f.f.f.f.f.f.f.",
"f.f.f.f.f.f.f.f.f.f.f.f.f.f.f.f.f.f.f.f.J ) / Y ' ' { } }  ...o.O.+.#.%.*.=.;.>.<.1.3.5.6.9.e.y.i.p.p.a.s.d.d.5.P _ _ f.f.f.f.f.f.f.f.f.f.f.f.f.f.f.f.f.f.f.f.f.",
"f.f.f.f.f.f.f.f.f.f.f.f.f.f.f.f.f.f.f.f.J ) / Y ' ' { } }  ...o.O.+.#.%.*.=.;.>.<.1.3.5.6.9.e.y.i.p.p.a.s.d.d.5.P ) ) f.f.f.f.f.f.f.f.f.f.f.f.f.f.f.f.f.f.f.f.f.",
"f.f.f.f.f.f.f.f.f.f.f.f.f.f.f.f.f.f.f.f.H / / Y ' ' { } }  ...o.O.+.#.%.*.=.;.>.<.1.3.5.6.9.e.y.i.p.p.a.s.d.d.5.L / / f.f.f.f.f.f.f.f.f.f.f.f.f.f.f.f.f.f.f.f.f.",
"f.f.f.f.f.f.f.f.f.f.f.f.f.f.f.f.f.f.f.f.H / ^ I ' ' { } }  ...o.O.+.#.%.*.=.;.>.<.1.3.5.6.9.e.y.i.p.p.a.s.d.d.5.L / / f.f.f.f.f.f.f.f.f.f.f.f.f.f.f.f.f.f.f.f.f.",
"f.f.f.f.f.f.f.f.f.f.f.f.f.f.f.f.f.f.f.f.G ^ ! I ' ' { } }  ...o.O.+.#.%.*.=.;.>.<.1.3.5.6.9.e.y.i.p.p.a.s.d.d.5.L ^ ^ f.f.f.f.f.f.f.f.f.f.f.f.f.f.f.f.f.f.f.f.f.",
"f.f.f.f.f.f.f.f.f.f.f.f.f.f.f.f.f.f.f.f.D ! Q P ' ' { } }  ...o.O.+.#.%.*.=.;.>.<.1.3.5.6.9.e.y.i.p.p.a.s.d.d.5.K ! ! f.f.f.f.f.f.f.f.f.f.f.f.f.f.f.f.f.f.f.f.f.",
"f.f.f.f.f.f.f.f.f.f.f.f.f.f.f.f.f.f.f.f.A Q Q P ' ' { } }  ...o.O.+.#.%.*.=.;.>.<.1.3.5.6.9.e.y.i.p.p.a.s.d.d.5.J ! Q f.f.f.f.f.f.f.f.f.f.f.f.f.f.f.f.f.f.f.f.f.",
"f.f.f.f.f.f.f.f.f.f.f.f.f.f.f.f.f.f.f.f.C Q Q P ' ' { } }  ...o.O.+.#.%.*.=.;.>.<.1.3.5.6.9.e.y.i.p.p.a.s.d.d.5.J Q Q f.f.f.f.f.f.f.f.f.f.f.f.f.f.f.f.f.f.f.f.f.",
"f.f.f.f.f.f.f.f.f.f.f.f.f.f.f.f.f.f.f.f.C Q R P ' ' { } }  ...o.O.+.#.%.*.=.;.>.<.1.3.5.6.9.e.y.i.p.p.a.s.d.d.5.H R Q f.f.f.f.f.f.f.f.f.f.f.f.f.f.f.f.f.f.f.f.f.",
"f.f.f.f.f.f.f.f.f.f.f.f.f.f.f.f.f.f.f.f.V T T L ' ' { } }  ...o.O.+.#.%.*.=.;.>.<.1.3.5.6.9.e.y.i.p.p.a.s.d.d.5.G R R f.f.f.f.f.f.f.f.f.f.f.f.f.f.f.f.f.f.f.f.f.",
"f.f.f.f.f.f.f.f.f.f.f.f.f.f.f.f.f.f.f.f.B Y Y L ' ' { } }  ...o.O.+.#.%.*.=.;.>.<.1.3.5.6.9.e.y.i.p.p.a.s.d.d.3.D Y T f.f.f.f.f.f.f.f.f.f.f.f.f.f.f.f.f.f.f.f.f.",
"f.f.f.f.f.f.f.f.f.f.f.f.f.f.f.f.f.f.f.f.B Y I K ' ' { } }  ...o.O.+.#.%.*.=.;.>.<.1.3.5.6.9.e.y.i.p.p.a.s.d.d.3.A I Y f.f.f.f.f.f.f.f.f.f.f.f.f.f.f.f.f.f.f.f.f.",
"f.f.f.f.f.f.f.f.f.f.f.f.f.f.f.f.f.f.f.f.B I P K ' ' { } }  ...o.O.+.#.%.*.=.;.>.<.1.3.5.6.9.e.y.i.p.p.a.s.d.d.3.A I I f.f.f.f.f.f.f.f.f.f.f.f.f.f.f.f.f.f.f.f.f.",
"f.f.f.f.f.f.f.f.f.f.f.f.f.f.f.f.f.f.f.f.M P P K ' ' { } }  ...o.O.+.#.%.*.=.;.>.<.1.3.5.6.9.e.y.i.p.p.a.s.d.d.3.C P P f.f.f.f.f.f.f.f.f.f.f.f.f.f.f.f.f.f.f.f.f.",
"f.f.f.f.f.f.f.f.f.f.f.f.f.f.f.f.f.f.f.f.m L L K ' ' { } }  ...o.O.+.#.%.*.=.;.>.<.1.3.5.6.9.e.y.i.p.p.a.s.d.d.3.C P P f.f.f.f.f.f.f.f.f.f.f.f.f.f.f.f.f.f.f.f.f.",
"f.f.f.f.f.f.f.f.f.f.f.f.f.f.f.f.f.f.f.f.m L L J ' ' { } }  ...o.O.+.#.%.*.=.;.>.<.1.3.5.6.9.e.y.i.p.p.a.s.d.d.3.C L L f.f.f.f.f.f.f.f.f.f.f.f.f.f.f.f.f.f.f.f.f.",
"f.f.f.f.f.f.f.f.f.f.f.f.f.f.f.f.f.f.f.f.b K K J ' ' { } }  ...o.O.+.#.%.*.=.;.>.<.1.3.5.6.9.e.y.i.p.p.a.s.d.d.3.V K K f.f.f.f.f.f.f.f.f.f.f.f.f.f.f.f.f.f.f.f.f.",
"f.f.f.f.f.f.f.f.f.f.f.f.f.f.f.f.f.f.f.f.b J J H ' ' { } }  ...o.O.+.#.%.*.=.;.>.<.1.3.5.6.9.e.y.i.p.p.a.s.d.d.3.B K K f.f.f.f.f.f.f.f.f.f.f.f.f.f.f.f.f.f.f.f.f.",
"f.f.f.f.f.f.f.f.f.f.f.f.f.f.f.f.f.f.f.f.v H H H ' ' { } }  ...o.O.+.#.%.*.=.;.>.<.1.3.5.6.9.e.y.i.p.p.a.s.d.d.3.B J K f.f.f.f.f.f.f.f.f.f.f.f.f.f.f.f.f.f.f.f.f.",
"f.f.f.f.f.f.f.f.f.f.f.f.f.f.f.f.f.f.f.f.c G G H ' ' { } }  ...o.O.+.#.%.*.=.;.>.<.1.3.5.6.9.e.y.i.p.p.a.s.d.d.3.N H J f.f.f.f.f.f.f.f.f.f.f.f.f.f.f.f.f.f.f.f.f.",
"f.f.f.f.f.f.f.f.f.f.f.f.f.f.f.f.f.f.f.f.c D D G ' ' { } }  ...o.O.+.#.%.*.=.;.>.<.1.3.5.6.9.e.y.i.p.p.a.s.d.d.3.M G G f.f.f.f.f.f.f.f.f.f.f.f.f.f.f.f.f.f.f.f.f.",
"f.f.f.f.f.f.f.f.f.f.f.f.f.f.f.f.f.f.f.f.c D D G ' ' { } }  ...o.O.+.#.%.*.=.;.>.<.1.3.5.6.9.e.y.i.p.p.a.s.d.d.1.m D G f.f.f.f.f.f.f.f.f.f.f.f.f.f.f.f.f.f.f.f.f.",
"f.f.f.f.f.f.f.f.f.f.f.f.f.f.f.f.f.f.f.f.x A A G ' ' { } }  ...o.O.+.#.%.*.=.;.>.<.1.3.5.6.9.e.y.i.p.p.a.s.d.d.1.n A D f.f.f.f.f.f.f.f.f.f.f.f.f.f.f.f.f.f.f.f.f.",
"f.f.f.f.f.f.f.f.f.f.f.f.f.f.f.f.f.f.f.f.z C C G ' ' { } }  ...o.O.+.#.%.*.=.;.>.<.1.3.5.6.9.e.y.i.p.p.a.s.d.d.1.n A A f.f.f.f.f.f.f.f.f.f.f.f.f.f.f.f.f.f.f.f.f.",
"f.f.f.f.f.f.f.f.f.f.f.f.f.f.f.f.f.f.f.f.z C V D ' ' { } }  ...o.O.+.#.%.*.=.;.>.<.1.3.5.6.9.e.y.i.p.p.a.s.d.d.1.b C C f.f.f.f.f.f.f.f.f.f.f.f.f.f.f.f.f.f.f.f.f.",
"f.f.f.f.f.f.f.f.f.f.f.f.f.f.f.f.f.f.f.f.z C V D ' ' { } }  ...o.O.+.#.%.*.=.;.>.<.1.3.5.6.9.e.y.i.p.p.a.s.d.d.1.v V V f.f.f.f.f.f.f.f.f.f.f.f.f.f.f.f.f.f.f.f.f.",
"f.f.f.f.f.f.f.f.f.f.f.f.f.f.f.f.f.f.f.f.k V B S ' / / } }  . .` ` ' { { } ..=.>.<.>.#.%.%.&.*.=.;.;.>.,.6.d.d.1.b V V f.f.f.f.f.f.f.f.f.f.f.f.f.f.f.f.f.f.f.f.f."
};
