/* XPM */
static char *result[] = {
/* columns rows colors chars-per-pixel */
"80 80 64 1 ",
"  c #231F20",
". c #2A2627",
"X c #2C2A2B",
"o c #2D2A2B",
"O c #2E2A2B",
"+ c #2E2B2C",
"@ c #2F2C2D",
"# c #302C2D",
"$ c #302D2E",
"% c #302D2F",
"& c #312F30",
"* c #322F30",
"= c #343031",
"- c #343132",
"; c #343133",
": c #353233",
"> c #363335",
", c #363435",
"< c #393536",
"1 c #3A3637",
"2 c #3D3A3B",
"3 c #3E3B3C",
"4 c #3F3C3D",
"5 c #403D3E",
"6 c #423F40",
"7 c #444243",
"8 c #454344",
"9 c #464445",
"0 c #474445",
"q c #484546",
"w c #494747",
"e c #494748",
"r c #4B494A",
"t c #4D4A4C",
"y c #535052",
"u c #545152",
"i c #5F5D5E",
"p c #EF3829",
"a c #EF3929",
"s c #EF392A",
"d c #EF3A2A",
"f c #EF3B2A",
"g c #EF3A2B",
"h c #EF3B2B",
"j c #EF3C2B",
"k c #EF3D2B",
"l c #EF3C2C",
"z c #EF3D2C",
"x c #EF3D2D",
"c c #EF3E2C",
"v c #EF3E2D",
"b c #EF3F2E",
"n c #F03C2C",
"m c #F03D2D",
"M c #F03E2D",
"N c #F03F2E",
"B c #EF412F",
"V c #F0402F",
"C c #EF4030",
"Z c #EF4231",
"A c #F04230",
"S c #F04330",
"D c #F04231",
"F c None",
/* pixels */
"FFFFi2@                                                                  %7FFFFF",
"FFFr#FFFFFFFFFFFFFFFFFFFFFFFFFFFFFFFFFFFFFFFFFFFFFFFFFFFFFFFFFFFFFFFFFFFFFFOqFFF",
"FFyFFFFFFFFFFFFFFFFFFFFFFFFFFFFFFFFFFFFFFFFFFFFFFFFFFFFFFFFFFFFFFFFFFFFFFFFF+8FF",
"FF.FFbVVVVVVVVVVVVVVVVVVVVVVVVVVVVVVVVVVVVVVVVVVVVVVVVVVVVVVVVVVVVVVVVVVVmZFF&FF",
"F4FFxppppppppppppppppppppppppppppppppppppppppppppppppppppppppppppppppppppppzFF9F",
"FoFkpdFFFFFFFFFFFFFFFFFFFFFFFFFFFFFFFFFFFFFFFFFFFFFFFFFFFFFFFFFFFFFFFFFFFldpCF;F",
"3FFpcFFFFFFFFFFFFFFFFFFFFFFFFFFFFFFFFFFFFFFFFFFFFFFFFFFFFFFFFFFFFFFFFFFFFFFpaFFF",
"6FbpFFFFFFFFFFFFFFFFFFFFFFFFFFFFFFFFFFFFFFFFFFFFFFFFFFFFFFFFFFFFFFFFFFFFFFFFpAFq",
"6FhlFFFFFFFFFFFFFFFFFFFFFFFFFFFFFFFFFFFFFFFFFFFFFFFFFFFFFFFFFFFFFFFFFFFFFFFFszF4",
"-FglFFFFFFFFFFFFFFFFFFFFFFFFFFFFFFFFFFFFFFFFFFFFFFFFFFFFFFFFFFFFFFFFFFFFFFFFldF4",
">FlaFFFFFFFFFFFFFFFFFFFFFFFFFFFFFFFFFFFFFFFFFFFFFFFFFFFFFFFFFFFFFFFFFFFFFFFFspF1",
",FlpFFFFFFFFFFFFFFFFFFFFFFFFFFFFFFFFFFFFFFFFFFFFFFFFFFFFFFFFFFFFFFFFFFFFFFFFppF<",
",FlpFFFFFFFFFFFFFFFFFFFFFFFFFFFFFFFFFFFFFFFFFFFFFFFFFFFFFFFFFFFFFFFFFFFFFFFFppF<",
",FlpFFFFFFFFFFFFpppppppppppSFFFpppsFFFFFappaFFFpppFFpppppppppppnFFFFFFFFFFFFppF<",
",FlpFFFFFFFFFFFFpppppppppppSFFFhpppFFFFFpppjFFFpppFFpppppppppppnFFFFFFFFFFFFppF<",
",FlpFFFFFFFFFFFFpppppppppppSFFFFppplFFFdpppFFFppppFFpppppppppppnFFFFFFFFFFFFppF<",
",FlpFFFFFFFFFFFFpppppppppppSFFFFpppdFFFpppfFFFppppFFpppppppppppnFFFFFFFFFFFFppF<",
",FlpFFFFFFFFFFFFpppppppppppSFFFFlpppFFhpppFFFFppppFFpppppppppppnFFFFFFFFFFFFppF<",
",FlpFFFFFFFFFFFFpppFFFFFFFFFFFFFFpppdFappaFFFFppppFFFFFFppppFFFFFFFFFFFFFFFFppF<",
",FlpFFFFFFFFFFFFpppFFFFFFFFFFFFFFdpppvpppdFFFFppppFFFFFFpppFFFFFFFFFFFFFFFFFppF<",
",FlpFFFFFFFFFFFFpppFFFFFFFFFFFFFFFpppsppaFFFFFppppFFFFFFpppFFFFFFFFFFFFFFFFFppF<",
",FlpFFFFFFFFFFFFpppFFFFFFFFFFFFFFFhppppphFFFFFppppFFFFFFpppFFFFFFFFFFFFFFFFFppF<",
",FlpFFFFFFFFFFFFpppFFFFFFFFFFFFFFFNpppppFFFFFFppppFFFFFFpppFFFFFFFFFFFFFFFFFppF<",
",FlpFFFFFFFFFFFFppppppppFFFFFFFFFFFpppplFFFFFFppppFFFFFFpppFFFFFFFFFFFFFFFFFppF<",
",FlpFFFFFFFFFFFFppppppppFFFFFFFFFFFvppplFFFFFFppppFFFFFFpppFFFFFFFFFFFFFFFFFppF<",
",FlpFFFFFFFFFFFFppppppppFFFFFFFFFFFjpppxFFFFFFppppFFFFFFpppFFFFFFFFFFFFFFFFFppF<",
",FlpFFFFFFFFFFFFppppppppFFFFFFFFFFFapppdFFFFFFppppFFFFFFpppFFFFFFFFFFFFFFFFFppF<",
",FlpFFFFFFFFFFFFppppppppFFFFFFFFFFzpppppFFFFFFppppFFFFFFpppFFFFFFFFFFFFFFFFFppF<",
",FlpFFFFFFFFFFFFpppFFFFFFFFFFFFFFFdppppphFFFFFppppFFFFFFpppFFFFFFFFFFFFFFFFFppF<",
",FlpFFFFFFFFFFFFpppFFFFFFFFFFFFFFFappsppsFFFFFppppFFFFFFpppFFFFFFFFFFFFFFFFFppF<",
",FlpFFFFFFFFFFFFpppFFFFFFFFFFFFFFjppazpppFFFFFppppFFFFFFpppFFFFFFFFFFFFFFFFFppF<",
",FlpFFFFFFFFFFFFpppFFFFFFFFFFFFFFsppsFsppsFFFFppppFFFFFFpppFFFFFFFFFFFFFFFFFppF<",
",FlpFFFFFFFFFFFFpppFFFFFFFFFFFFFhpppFFhpppFFFFppppFFFFFFpppFFFFFFFFFFFFFFFFFppF<",
",FlpFFFFFFFFFFFFppppppppppppFFFFdppdFFFspphFFFppppFFFFFFpppFFFFFFFFFFFFFFFFFppF<",
",FlpFFFFFFFFFFFFppppppppppppFFFFspplFFFgpppFFFppppFFFFFFpppFFFFFFFFFFFFFFFFFppF<",
",FlpFFFFFFFFFFFFppppppppppppFFFlppsFFFFFpppFFFppppFFFFFFpppFFFFFFFFFFFFFFFFFppF<",
",FlpFFFFFFFFFFFFppppppppppppFFFsppdFFFFFappdFFppppFFFFFFpppFFFFFFFFFFFFFFFFFppF<",
",FlpFFFFFFFFFFFFppppppppppppFFFpppFFFFFFdpppFFppppFFFFFFpppFFFFFFFFFFFFFFFFFppF<",
",FlpFFFFFFFFFFFFFFFFFFFFFFFFFFFFFFFFFFFFFFFFFFFFFFFFFFFFFFFFFFFFFFFFFFFFFFFFppF<",
",FlpFFFFFFFFFFFFFFFFFFFFFFFFFFFFFFFFFFFFFFFFFFFFFFFFFFFFFFFFFFFFFFFFFFFFFFFFppF<",
",FlpFFFFFFFFFFFFFFFFFFFFFFFFFFFFFFFFFFFFFFFFFFFFFFFFFFFFFFFFFFFFFFFFFFFFFFFFppF<",
",FlpFFFFFFFFFFFFFFFFFFFFFFFFFFFFFFFFFFFFFFFFFFFFFFFFFFFFFFFFFFFFFFFFFFFFFFFFppF<",
",FlpFFFFFFFFFFFFFFFFFFFFFFFFFFFFFFFFFFFFFFFFFFFFFFFFFFFFFFFFFFFFFFFFFFFFFFFFppF<",
",FlpFFFFFFFFFFFFFFFFFFFFFFFFFFFFFFFFFFFFFFFFFFFFFFFFFFFFFFFFFFFFFFFFFFFFFFFFppF<",
",FlpFFFFFFFFFFFFFFFFFFFFFFFFFFFFFFFFFFFFFFFFFFFFFFFFFFFFFFFFFFFFFFFFFFFFFFFFppF<",
",FlpFFFFFFFFFFFFFFFFFFFFFFFFFFFFFFFFFFFFFFFFFFFFFFFFFFFFFFFFFFFFFFFFFFFFFFFFppF<",
",FlpFFFFFFFFFFFFFFFFFFFFFFFFFFFFFFFFFFFFFFFFFFFFFFFFFFFFFFFFFFFFFFFFFFFFFFFFppF<",
",FlpFFFFFFFFFFFFFFFFFFFFFFFFFFFFFFFFFFFFFFFFFFFFFFFFFdpFFFFFFFFFFFFFFFFFFFFFppF<",
",FlpFFFFFFFFFFFFFFFFFFFFFFFFFFFFFFFFFFFFFFFFFFFFFFFFFappaFFFFFFFFFFFFFFFFFFFppF<",
",FlpFFFFFFFFFFFFFFFFFFFFFFFFFFFFFFFFFFFFFFFFFFFFFFFFFapppdFFFFFFFFFFFFFFFFFFppF<",
",FlpFFFFFFFFFFFFFFFFFFFFFFFFFFFFFFFFFFFFFFFFFFFFFFFFFlppppaFFFFFFFFFFFFFFFFFppF<",
",FlpFFFFFFFFFFFFFFFFFFFFFFFFFFFFFFFFFFFFFFFFFFFFFFFFFFpppppphFFFFFFFFFFFFFFFppF<",
",FlpFFFFFFFFFFFFFFFFFFFFFFFFFFFFFFFFFFFFFFFFFFFFFFFFFFapppppahFFFFFFFFFFFFFFppF<",
",FlpFFFFFFFFFFFFFFFFFFFFFFFFFFFFFFFFFFFFFFFFFFFFFFFFFFspppppppdFFFFFFFFFFFFFppF<",
",FlpFFFFFFFppppppppppppppppppppppppppppppppppppppppppppppppppppsMFFFFFFFFFFFppF<",
",FlpFFFFFFFppppppppppppppppppppppppppppppppppppppppppppppppppppppNFFFFFFFFFFppF<",
",FlpFFFFFFFppppppppppppppppppppppppppppppppppppppppppppppppppppppphFFFFFFFFFppF<",
",FlpFFFFFFFpppppppppppppppppppppppppppppppppppppppppppppppppppppppphFFFFFFFFppF<",
",FlpFFFFFFFpppppppppppppppppppppppppppppppppppppppppppppppppppppppslFFFFFFFFppF<",
",FlpFFFFFFFppppppppppppppppppppppppppppppppppppppppppppppppppppppdzFFFFFFFFFppF<",
",FlpFFFFFFFpppppppppppppppppppppppppppppppppppppppppppppppppppppsBFFFFFFFFFFppF<",
",FlpFFFFFFFpppppppppppppppppppppppppppppppppppppppppppppppppppagFFFFFFFFFFFFppF<",
",FlpFFFFFFFFFFFFFFFFFFFFFFFFFFFFFFFFFFFFFFFFFFFFFFFFFFsppppppadFFFFFFFFFFFFFppF<",
",FlpFFFFFFFFFFFFFFFFFFFFFFFFFFFFFFFFFFFFFFFFFFFFFFFFFFppppppajFFFFFFFFFFFFFFppF<",
",FlpFFFFFFFFFFFFFFFFFFFFFFFFFFFFFFFFFFFFFFFFFFFFFFFFFbpppppsFFFFFFFFFFFFFFFFppF<",
",FlpFFFFFFFFFFFFFFFFFFFFFFFFFFFFFFFFFFFFFFFFFFFFFFFFFspppppFFFFFFFFFFFFFFFFFppF<",
",FlpFFFFFFFFFFFFFFFFFFFFFFFFFFFFFFFFFFFFFFFFFFFFFFFFFsppppFFFFFFFFFFFFFFFFFFppF<",
",FlpFFFFFFFFFFFFFFFFFFFFFFFFFFFFFFFFFFFFFFFFFFFFFFFFFsssFFFFFFFFFFFFFFFFFFFFppF<",
",FlpFFFFFFFFFFFFFFFFFFFFFFFFFFFFFFFFFFFFFFFFFFFFFFFFFlvFFFFFFFFFFFFFFFFFFFFFppF<",
",FlpFFFFFFFFFFFFFFFFFFFFFFFFFFFFFFFFFFFFFFFFFFFFFFFFFFFFFFFFFFFFFFFFFFFFFFFFppF<",
">FlaFFFFFFFFFFFFFFFFFFFFFFFFFFFFFFFFFFFFFFFFFFFFFFFFFFFFFFFFFFFFFFFFFFFFFFFFspF1",
"-FglFFFFFFFFFFFFFFFFFFFFFFFFFFFFFFFFFFFFFFFFFFFFFFFFFFFFFFFFFFFFFFFFFFFFFFFFldF4",
"5FhlFFFFFFFFFFFFFFFFFFFFFFFFFFFFFFFFFFFFFFFFFFFFFFFFFFFFFFFFFFFFFFFFFFFFFFFFsxF4",
"=FbpFFFFFFFFFFFFFFFFFFFFFFFFFFFFFFFFFFFFFFFFFFFFFFFFFFFFFFFFFFFFFFFFFFFFFFFFpDFw",
"3FFpcFFFFFFFFFFFFFFFFFFFFFFFFFFFFFFFFFFFFFFFFFFFFFFFFFFFFFFFFFFFFFFFFFFFFFFpaFFF",
"FoFkpdFFFFFFFFFFFFFFFFFFFFFFFFFFFFFFFFFFFFFFFFFFFFFFFFFFFFFFFFFFFFFFFFFFFldpCF:F",
"F4FFxppppppppppppppppppppppppppppppppppppppppppppppppppppppppppppppppppppppdFF0F",
"FF.FFbVVVVVVVVVVVVVVVVVVVVVVVVVVVVVVVVVVVVVVVVVVVVVVVVVVVVVVVVVVVVVVVVVVVmZFF*FF",
"FFuFFFFFFFFFFFFFFFFFFFFFFFFFFFFFFFFFFFFFFFFFFFFFFFFFFFFFFFFFFFFFFFFFFFFFFFFFXqFF",
"FFFt$FFFFFFFFFFFFFFFFFFFFFFFFFFFFFFFFFFFFFFFFFFFFFFFFFFFFFFFFFFFFFFFFFFFFFF.eFFF"
};
