/* XPM */
static char *result[] = {
/* columns rows colors chars-per-pixel */
"80 80 173 2 ",
"   c black",
".  c #010101",
"X  c #020202",
"o  c #040404",
"O  c gray2",
"+  c #060606",
"@  c #070707",
"#  c gray3",
"$  c #0C0C0C",
"%  c gray5",
"&  c #0E0E0E",
"*  c gray6",
"=  c #101010",
"-  c #111111",
";  c #131313",
":  c gray8",
">  c #151515",
",  c #161616",
"<  c gray9",
"1  c #181818",
"2  c gray10",
"3  c #1B1B1B",
"4  c gray11",
"5  c #1D1D1D",
"6  c gray12",
"7  c #222222",
"8  c gray14",
"9  c #252525",
"0  c #272727",
"q  c #282828",
"w  c gray16",
"e  c gray17",
"r  c #2D2D2D",
"t  c gray18",
"y  c #2F2F2F",
"u  c #323232",
"i  c gray20",
"p  c #343434",
"a  c #373737",
"s  c #3A3A3A",
"d  c #3C3C3C",
"f  c gray24",
"g  c #3E3E3E",
"h  c #3F3F3F",
"j  c gray25",
"k  c #414141",
"l  c gray26",
"z  c #434343",
"x  c #444444",
"c  c gray27",
"v  c #464646",
"b  c #494949",
"n  c gray29",
"m  c #4C4C4C",
"M  c gray30",
"N  c #4E4E4E",
"B  c gray31",
"V  c gray32",
"C  c #535353",
"Z  c gray33",
"A  c #555555",
"S  c #565656",
"D  c #585858",
"F  c gray35",
"G  c #5A5A5A",
"H  c #5B5B5B",
"J  c gray36",
"K  c #5D5D5D",
"L  c #5F5F5F",
"P  c gray38",
"I  c #626262",
"U  c gray39",
"Y  c #646464",
"T  c #656565",
"R  c #676767",
"E  c #686868",
"W  c DimGray",
"Q  c #6A6A6A",
"!  c #6D6D6D",
"~  c gray43",
"^  c gray44",
"/  c #717171",
"(  c #727272",
")  c gray45",
"_  c gray46",
"`  c #767676",
"'  c #777777",
"]  c gray47",
"[  c gray48",
"{  c #7B7B7B",
"}  c #7C7C7C",
"|  c gray49",
" . c gray50",
".. c #808080",
"X. c gray51",
"o. c #838383",
"O. c #848484",
"+. c gray52",
"@. c #868686",
"#. c #888888",
"$. c gray54",
"%. c #8B8B8B",
"&. c gray55",
"*. c #8D8D8D",
"=. c #8E8E8E",
"-. c #909090",
";. c gray57",
":. c #929292",
">. c #939393",
",. c gray58",
"<. c #959595",
"1. c gray59",
"2. c #979797",
"3. c #989898",
"4. c #9B9B9B",
"5. c #9D9D9D",
"6. c gray62",
"7. c #9F9F9F",
"8. c gray64",
"9. c #A4A4A4",
"0. c #A5A5A5",
"q. c gray65",
"w. c #A7A7A7",
"e. c gray66",
"r. c #AAAAAA",
"t. c gray67",
"y. c #ACACAC",
"u. c gray68",
"i. c #AFAFAF",
"p. c gray69",
"a. c #B1B1B1",
"s. c #B2B2B2",
"d. c gray70",
"f. c #B4B4B4",
"g. c gray71",
"h. c #B6B6B6",
"j. c #B7B7B7",
"k. c gray72",
"l. c #B9B9B9",
"z. c #BBBBBB",
"x. c #BCBCBC",
"c. c gray74",
"v. c gray",
"b. c gray75",
"n. c #C0C0C0",
"m. c #C1C1C1",
"M. c gray76",
"N. c #C3C3C3",
"B. c gray77",
"V. c #CACACA",
"C. c #CBCBCB",
"Z. c #CDCDCD",
"A. c #CECECE",
"S. c #D0D0D0",
"D. c gray82",
"F. c #D2D2D2",
"G. c gray83",
"H. c gray84",
"J. c #D7D7D7",
"K. c #D8D8D8",
"L. c #DADADA",
"P. c #DDDDDD",
"I. c gray88",
"U. c gray89",
"Y. c gray90",
"T. c #E7E7E7",
"R. c #EAEAEA",
"E. c #ECECEC",
"W. c gray94",
"Q. c gray95",
"!. c #F8F8F8",
"~. c #FDFDFD",
"^. c white",
/* pixels */
"                                                                                                                                                                ",
"                                                                                                                                                                ",
"                                                                                                                                                                ",
"                                                                                                                                                                ",
"                                                                                                                                                                ",
"                                                                                                                                                                ",
"                                                                                                                                                                ",
"                                                                                                                                                                ",
"                                                                                                                                                                ",
"                                                                                                                                                                ",
"                                                                                                                                                                ",
"                                                                                                                                                                ",
"                                                                                                                                                                ",
"                                                                                                                                                                ",
"                                                                                                                                                                ",
"                                                                                                                                                                ",
"                                                                                                                                                                ",
"                                                                                                                                                                ",
"                                                                                                                                                                ",
"                                                                                                                                                                ",
"                                                                                                                                                                ",
"                                                                                                                                                                ",
"                                                                                                                                                                ",
"                                                                                                                                                                ",
"                                                                                                                                                                ",
"                                                                                                                                                                ",
"                                                                                                                                                                ",
"                                                                                                                                                                ",
"                                                                                                                                                                ",
"                                                                                                                                                                ",
"                                                                                                                                                                ",
"                                                                                                                                                                ",
"                                                                                                                                                                ",
"                                            r | $._ o.) .       3 D.U.G.R.k.w.X       k ..w.k.f.g.O     - #.<.&.*.X...                                          ",
"                                          Y e.E _ W } K.&       z.s $ = > x l.        A.U D j e @./       A.` Q ( ^ R p.                                        ",
"                                        o.4.        Z.8       N %.        E `         K.:       3 i.      2 m.        6 I.*                                     ",
"                                    @ F.F         N.d         Y.2         h.b         G.e         p.B       V u.        # W.q                                   ",
"                                  g Y.r         8.B         T ]           x.@         a.f         f 3.        { Q           J.g                                 ",
"                                ( m.          3.R           ^.          p C.          r.A           K.0         m.g           a.F                               ",
"                              ;.*.          +.[           o.~           ! o.          <.Q           T O.          !.@           q.Y                             ",
"                          ; P.V           E X.          1 T.            s.M           ' '           X ~.          t D.            [ #.                          ",
"                        z E.7           G 0.            w.D             Q.%           E 2.            2.E           Y 4.            ' 6.                        ",
"                      ..<.            f 3.            u y.            y a.            n ;.            w B.            #.K             P t.                      ",
"                    g. .            y S.              N.d             ( *.            f M.              v.k             D.t             v S.                    ",
"                5 P.n             1 s.              n 2.              4.b             9 y.              B 8.            + F.              y b.                  ",
"              m H.J k j a u t 8 , L.                n.C l k z b x b N N.*             & V.h v c C Z H W Y C.<             a e.L S V Z b b g b P.4               ",
"              X.9.p.2.b.j.u.D.g.y.+               3 :.7.c.t.8.h.,.i.d.L                 $.k.l.>.y.1.;.1.{ I o               i >.=.:.t.-.h.5.a.M.&.              ",
"                                                                                                                                                                ",
"                                                                                                                                                                ",
"                                                                                                                                                                ",
"                                                                                                                                                                ",
"                                                                                                                                                                ",
"                                                                                                                                                                ",
"                                                                                                                                                                ",
"                                                                                                                                                                ",
"                                                                                                                                                                ",
"                                                                                                                                                                ",
"                                                                                                                                                                ",
"                                                                                                                                                                ",
"                                                                                                                                                                ",
"                                                                                                                                                                ",
"                                                                                                                                                                ",
"                                                                                                                                                                ",
"                                                                                                                                                                ",
"                                                                                                                                                                ",
"                                                                                                                                                                ",
"                                                                                                                                                                ",
"                                                                                                                                                                ",
"                                                                                                                                                                ",
"                                                                                                                                                                ",
"                                                                                                                                                                ",
"                                                                                                                                                                ",
"                                                                                                                                                                ",
"                                                                                                                                                                ",
"                                                                                                                                                                ",
"                                                                                                                                                                ",
"                                                                                                                                                                ",
"                                                                                                                                                                ",
"                                                                                                                                                                ",
"                                                                                                                                                                "
};
