/* XPM */
static char *result[] = {
/* columns rows colors chars-per-pixel */
"80 80 209 2 ",
"   c black",
".  c #020202",
"X  c gray1",
"o  c #797979",
"O  c gray56",
"+  c #7E7E7E",
"@  c #5D5D5D",
"#  c #4E4E4E",
"$  c #3C3C3C",
"%  c #222222",
"&  c gray6",
"*  c #4C4C4C",
"=  c #808080",
"-  c gray60",
";  c #8D8D8D",
":  c gray72",
">  c #ACACAC",
",  c #D7D7D7",
"<  c #DFDFDF",
"1  c #BCBCBC",
"2  c #D2D2D2",
"3  c #656565",
"4  c #131313",
"5  c #2A2A2A",
"6  c gray27",
"7  c #646464",
"8  c DimGray",
"9  c #959595",
"0  c #565656",
"q  c gray40",
"w  c #818181",
"e  c #848484",
"r  c gray61",
"t  c #C3C3C3",
"y  c gray68",
"u  c #D0D0D0",
"i  c gray31",
"p  c gray43",
"a  c #6C6C6C",
"s  c gray28",
"d  c #343434",
"f  c #282828",
"g  c gray9",
"h  c #070707",
"j  c gray54",
"k  c #505050",
"l  c #252525",
"z  c #A4A4A4",
"x  c #B7B7B7",
"c  c gray70",
"v  c gray62",
"b  c #B2B2B2",
"n  c gray57",
"m  c #AFAFAF",
"M  c #A0A0A0",
"N  c gray48",
"B  c #4B4B4B",
"V  c gray52",
"C  c gray66",
"Z  c #9D9D9D",
"A  c gray87",
"S  c gray",
"D  c #ECECEC",
"F  c #AEAEAE",
"G  c gray67",
"H  c #9B9B9B",
"J  c gray49",
"K  c gray79",
"L  c #444444",
"P  c #010101",
"I  c #F3F3F3",
"U  c gray76",
"Y  c #0E0E0E",
"T  c gray26",
"R  c #484848",
"E  c #464646",
"W  c gray30",
"Q  c #A2A2A2",
"!  c gray88",
"~  c #7C7C7C",
"^  c gray34",
"/  c #373737",
"(  c gray13",
")  c gray38",
"_  c gray59",
"`  c #1D1D1D",
"'  c #F9F9F9",
"]  c gray16",
"[  c gray84",
"{  c gray55",
"}  c gray45",
"|  c #CBCBCB",
" . c #C8C8C8",
".. c gray11",
"X. c gray83",
"o. c gray33",
"O. c #060606",
"+. c #111111",
"@. c #EEEEEE",
"#. c #BBBBBB",
"$. c #767676",
"%. c #2D2D2D",
"&. c #5B5B5B",
"*. c gray39",
"=. c gray73",
"-. c #CECECE",
";. c gray2",
":. c #A5A5A5",
">. c #5A5A5A",
",. c gray75",
"<. c gray25",
"1. c #838383",
"2. c gray37",
"3. c gray20",
"4. c gray85",
"5. c #909090",
"6. c gray53",
"7. c #DDDDDD",
"8. c #323232",
"9. c #CDCDCD",
"0. c #040404",
"q. c LightGray",
"w. c #191919",
"e. c #E6E6E6",
"r. c gray4",
"t. c gray96",
"y. c gray17",
"u. c gray15",
"i. c #B6B6B6",
"p. c #6F6F6F",
"a. c #FDFDFD",
"s. c gray65",
"d. c gray35",
"f. c #FEFEFE",
"g. c gray64",
"h. c #555555",
"j. c gray58",
"k. c gray92",
"l. c gray8",
"z. c #414141",
"x. c #B1B1B1",
"c. c #8E8E8E",
"v. c #717171",
"b. c #D8D8D8",
"n. c #272727",
"m. c gray86",
"M. c gray14",
"N. c #202020",
"B. c #777777",
"V. c #747474",
"C. c #8B8B8B",
"Z. c #9A9A9A",
"A. c gray12",
"S. c #434343",
"D. c gray47",
"F. c gray21",
"G. c gray95",
"H. c gray5",
"J. c #686868",
"K. c #979797",
"L. c #F8F8F8",
"P. c #3F3F3F",
"I. c #C0C0C0",
"U. c #515151",
"Y. c #232323",
"T. c gray71",
"R. c #0C0C0C",
"E. c gray42",
"W. c #0B0B0B",
"Q. c #F4F4F4",
"!. c #989898",
"~. c #676767",
"^. c #3A3A3A",
"/. c #C5C5C5",
"(. c gray63",
"). c gray90",
"_. c gray10",
"`. c #F1F1F1",
"'. c #DADADA",
"]. c gray46",
"[. c #C6C6C6",
"{. c #393939",
"}. c gray19",
"|. c gray81",
" X c #E2E2E2",
".X c gray23",
"XX c gray77",
"oX c #868686",
"OX c gray36",
"+X c #CACACA",
"@X c #353535",
"#X c #535353",
"$X c #494949",
"%X c gray51",
"&X c #E9E9E9",
"*X c #161616",
"=X c gray44",
"-X c gray82",
";X c gray18",
":X c #888888",
">X c gray69",
",X c white",
"<X c #B4B4B4",
"1X c gray74",
"2X c #7B7B7B",
"3X c #585858",
"4X c #D5D5D5",
"5X c #A7A7A7",
"6X c gray80",
/* pixels */
"                                                                                                                                                                ",
"                                                                                                                                                                ",
"                                                                                                                                                                ",
"                                                                                                                                                                ",
"                                                                                                                                                                ",
"                                                                                                                                                                ",
"                                                                                                                                                                ",
"                                                                                                                                                                ",
"                                                                                                                                                                ",
"                                                                                                                                                                ",
"                                                                                                                                                                ",
"                                                                                                                                                                ",
"                                                                                                                                                                ",
"                                                                                                                                                                ",
"                                                                                                                                                                ",
"                                                                                                                                                                ",
"                                                                                                                                                                ",
"                                                                                                                                                                ",
"                                                                                                                                                                ",
"                                                                                                                                                                ",
"                                                                                                                                                                ",
"                                                                                                                                                                ",
"                                                                                                                                                                ",
"                                                                                                                                                                ",
"                                                                                                                                                                ",
"                                                                                                                                                                ",
"                                                                                                                                                                ",
"                                                                                                                                                                ",
"                                                                                                                                                                ",
"                                                                                                                                                                ",
"                                                                                                                                                                ",
"                                                                                                                                                                ",
"                                                                                                                                                                ",
"                                                                                                                                                                ",
"                                                                                                                                                                ",
"                                                                                                                                                                ",
"                                                                                                                                                                ",
"                                                                                                                                                                ",
"                                                                                                                                                                ",
"                                                                                                                                                                ",
"                                                                                                                                                                ",
"                                                                                                                                                                ",
"                                                                                                                                                                ",
"                                                                                                                                                                ",
"                                                                                                                                                                ",
"                                                                                                                                                                ",
"                                                                                                                                                                ",
"                                                                                                                                                                ",
"                                                                                                                                                                ",
"                                                                                                                                                                ",
"                                                                                                                                                                ",
"                                                                                                                                                                ",
"                                                                                                                                                                ",
"                                                                                                                                                                ",
"                                                                        . X                                                                                     ",
"                  o O + @ # $ % &                     * = - ; : > , < 1 2 3                                                             4 5 6 7 8               ",
"                9 0 q w e r t y t u i               p y a q # s d f g h j k             l z 9 x c v b n m M N               B V C Z A S D F G H 8 J             ",
"              K L               $ H P               I                   U Y             p - T R s E W R k W Q @             ! ~ ^ / ( X           ) _           ",
"          ` ' f               ] [                 { }                 d |               ) v                 /  .            ..X.                    o.x         ",
"        6 : O.              +.@.                g #.                  a $.              R x                   2 %.            &.z                     R M       ",
"      *.=.                  -.;.                :.>.                  ,.<.              %.C                   ) ~               1.2.                    3.4.    ",
"    5.6.                  7.%                 8.9.                  0.q.                w.e.                  r.t.                X.y.                    u.i.  ",
"  c p.                  t $                   ,.<.                  * c                 . a.                    s.d.              +.@.                      4 f.",
"1 *                   g.h.                  L j.                    w )                   k.l.                  z.S                 # x.                      P ",
"l                   c.v.                    b.n.                    m.M.                  X.y.                    -.N.                B.q                       ",
"                  V.C.                    3 Z.                    A.>                     1 S.                    D.6.                  K F.                    ",
"                >.:.                      G.H.                    J.K.                    z &.                    4 D                   h L.                    ",
"              P.I.                      $.B.                      H W                     { }                       F U.                  L #.                  ",
"            Y.T.                      R.I                         I R.                    E.J                       L H                     } p.                ",
"          W.Q.                        !.~.                      ^./.                      2.(.                        )._.                    I.P.              ",
"          `.Y                       l '.                        D.].                      s :                         w +                       a..             ",
"        , f                         x.#                         [.{.                      }.|.                        `  X                      .XXX            ",
"      Z.$                         .XG                         r.1                         g c                           _ z.                      o oX          ",
"    g.OX                          +X@X                        #X>                         P f.                          #X>                         i.$X        ",
"  j ].                          ^ C                           %X>.                          &X*X                          @.+.                        I R.      ",
"=XO                             '.w.                          ! A.                          -X;X                          :XB.                        }.|.      ",
"O                             v.c.                          Y.F                             >XS.                          ( XX                          *.w     ",
"                              ,X                            8 {                             Q @                             ,.<.                          G o.  ",
"                            N 7                             <XB                             o ~.                            #Xc.                            &X*X",
"                          & u | m 1X<Xc.(.K.2XoX+ 8 a OX3XE q.X                             $X| '.y , , >X[ 4XG 2 -X5X-.6XXX=.[ 0.                          M.y "
};
