/* XPM */
static char *result[] = {
/* columns rows colors chars-per-pixel */
"80 80 87 1 ",
"  c #070704",
". c #080705",
"X c #070803",
"o c #090A04",
"O c #0D0E08",
"+ c #110E06",
"@ c #110F08",
"# c #0F100A",
"$ c #141107",
"% c #181407",
"& c #13130C",
"* c #19140A",
"= c #15190F",
"- c #1E190E",
"; c #151610",
": c #1A1710",
"> c #161810",
", c #1C1A11",
"< c #21170B",
"1 c #211A0E",
"2 c #251E12",
"3 c #291F12",
"4 c #2D2315",
"5 c #302617",
"6 c #302618",
"7 c #33291A",
"8 c #3B2E1E",
"9 c #3F301E",
"0 c #392F21",
"q c #3D3322",
"w c #413423",
"e c #463A27",
"r c #4A3A27",
"t c #463A29",
"y c #4A3C29",
"u c #52412D",
"i c #574632",
"p c #574A33",
"a c #594B35",
"s c #5C4D38",
"d c #614F37",
"f c #604E39",
"g c #65533C",
"h c #6A563E",
"j c #6C5A3F",
"k c #665741",
"l c #685740",
"z c #675840",
"x c #6C5A42",
"c c #736044",
"v c #7B664B",
"b c #7E6A4D",
"n c #826D4F",
"m c #836D51",
"M c #867152",
"N c #8C7555",
"B c #8D7559",
"V c #8E795C",
"C c #90775B",
"Z c #927B5C",
"A c #987F5D",
"S c #957F60",
"D c #97815E",
"F c #99815F",
"G c #968062",
"H c #9C8462",
"J c #A08763",
"K c #A38A65",
"L c #A98C67",
"P c #A18569",
"I c #A68D69",
"U c #AA8D6A",
"Y c #AD926D",
"T c #B3956E",
"R c #B6986F",
"E c #AE9472",
"W c #B49672",
"Q c #B69972",
"! c #BA9C74",
"~ c #B69C7A",
"^ c #BC9E79",
"/ c #BFA07B",
"( c #C1A37E",
") c #BF9F80",
"_ c #C3A581",
"` c #C6A983",
"' c #CAAB85",
/* pixels */
"_))))~~~~~!~!~^W!!!WW)^WW)A)W)WWWWWPWPPvsq2,>>===========#;==;;;;;;;;;;#;;;;,,20",
")))^~~^^!~!~~!!^~WW!WWWWWWW)WWWWWW)PPPCmsq2>,>====>=====;;===;;;;;;#&;;;;;;;:22q",
")_)))/~~!^~^!!^!!!!!^WWWWWWW)WWW)WWWLLPvsq2=>=========#===#;&;#;;;;;#;#;#;;;:120",
"___)/)///^^^)^^)^^^!^^^^))W)WW)!WWWWLLAvp8-=>=####=############OOOOO########::10",
"``___))))^(^))^)(^^(^^^^W)^^^^^!W!WWWLAvp8=%##OO############OOOOOO.OOoOoOOO#;;17",
"````___)__)())))_)))(//^^^^^^^^^^!)WTLAmp7=$OOOOoooooooooXoXoooXoXoooooX...O@@:0",
"'````____))_)_))__)(((//)^)^^^^^^^WWWLAmp7%OOOoooooooXooXoXXX o X.  ..  ....@*:7",
"'''``___((_)____)_)/((((^^^(^^/^^^)WWLAmp7%OOooooooooXXXXXX o      ...  ...O@@*6",
"'''('('(_((((`(((((((^(^(R((!((!^^!RTUHba7*oOooooXoXoXXXoXXXXXXXXXXXXXX X...@&&7",
"''''('(((((((((((((((^^((((R((!(^!^REEHbi7%+ooooooXoXXXXoXXXXXXXXXXXX   ...OO&*7",
"'''''(`((((((((((((((^^^((((!(!!^^!RWUAmp7%+ooooXooXoXXXX XXXXXXXXXXX   Xo.o@+*7",
"'''''((((_(_((`((((((^(((R!((!//!^!!~WAmp7%ooooXoXXooXXXXoXXXXXXXXXXX    ..O@&*7",
"''''`((((__((((_(_((((/(((((//!!^!!!TTAmp7%+oooXXXXXXXXXXXXXXXXXXXXX X  XXXoO$*7",
"''''``(`________((_(//(((R(R!///^^!!!AAmp7%oooooXXXXXXXXXXXXXXXXXXXXXX o X OO$*7",
"''''`((________((`(((/(!(!!(!/!/!/!!RAAmp7%++ooXXXXoXXXXXXXXXXXXXXX X XXX  o@$&7",
"''''``((___(____((((((((!((!////!!!!RTACp7%+oooXooXXXXXXXXXXXXXoX XXXXX X .oO$*7",
"''''`___(``(((`_~`___~_~//!/!//!^^~QEEHbp7$+ooo XXXXXXXXXXXXXXXXXXXXXXXXXXX O$*7",
"''''``(_((/`(``~``__))_/(!(///!/!^!QWEHbp5%+oX  oXXX XoXXXoXXXXXXXXXXXXXXX  @$-7",
"''''`(_(`(`/``(`/_____~/(/(!/////!!QEYHbp7%o+oooXXXX ooXoXXXXXXXXXXXXXXXX. XO$&7",
"''''``(_`/`'(((``___~_/_////!//!^/^QWYHbp5%+ooooXXXXXoXXXXXoooXXXXXXXXXX X o@&*7",
"'''```((`/'/'('(____`/_//!((/((!/^!!QYHbp7%$oo.oXXoXXoXooXXXXXXX XXXXXXXXXXo+$*7",
"''''`((`('/'((((__)__/_/(/(!!!/!^^^!QYHba7%o+oooXoXooXoXXoXXXXXXXXX XXXXX XoO$*7",
"'''('((((('('(((_)___//_////(/((^^^QQYHnd7%+oo oXoXXXXoXXoXXXXXXX XX XXXXXXo@$*7",
"''''``(`'(('((((_~/___//(/////!((/^~QYJbp7%o.ooooXXoXoXoXXXXXXXXXX  XXXXX  XO$*7",
"''''((((''((((('__/_((((////((!!^^!!QYJma7*+..ooXooXoXXooXXXXXXXXXXXXoXoX.Xo@@&7",
"'''''''((('('(((/__/(/(/(///!(((//!!QYHba7*+oooooXooXoXXXXXXXXXXXXXXXXoXXXXO@@*7",
"'''(((('('((((((/`/_(((((/(/((((/^^!QYHna7*o+o.oXooXXooXXXXXXXXXXXXXooXXXXX.@&*7",
"''''''(('(('('((//`/(((//(//!((!^^^!WTHba7%+oooooXXoXXXXXXXXXXXXXXXXXXXoXXo.@+*6",
"''''('(((('(((((`//`////(//(/(((////TYHba7*OoooXXXoXXXooXXoXXXXXO   X X oXoo@@*7",
"'''''('(('((('('`/`//`'/(((/(/(!//RWQYHbs7*OoooXooXooXXXooXXXXXXXX  OXXX.o o@@-7",
"''''('((((''((((/`////`((/((/(/(///RRYHna7%oooXooXoXXoXoXXXoXXXXX O.     O O@@*6",
"'''''((''(((('((`//`'///(//((//////~RTHba7%$OoXoXXoXXoXXXoXoXXXX   .     . oO+:6",
"''''```___`___/_/`/``////////////Q/REYHbs0&+..o.ooo.XXoXoXoXXXXX......o.. .O@@*0",
"'''``````_``__`_`/`///'////////////~EYHby0&+..ooo..ooXXooXXXXXoX......oo  OX@@<6",
"''''`````_``_____//`/`/////////////~REHbi0@++.+.oooooooooooXoXXX.+......XX O+*<8",
"''````__`______)__`////////~/////QQREEHbi6<+.+.+oXoooo+oooo+o+oo@..+O..O.oOO+$<6",
"````_______))__)/__~///////!/~//W//WEYGbyw<++++++oo$ooooooooO+o+++.@++++O+o+$<<6",
"``___/_/)_/)__))_~_/~~~//!!~/~~!//W~EYGbs0<@+++++$o+$$+$++$+++$o@@++++++++++$*<6",
"~~/~~~~W~E~~EEEEEEEEYYYIYYYYIIIKIIEHHHDvyt31<<<:11-1----111-1---:<<:<<<<11-1<<49",
"GGGGVDVVVVVVVVGDVVVVVVVVVVMDDbDDMVNMNbvxlyrwwwwwqqwq9qqq9wqwqw99wwwwwwwwwwwwwrrr",
"xxxxxxkxzzzzzzzzkkzzzzkggggzgkgggggggdgdggggllllhhhhhhhhghhgghdhgggggghhjdjdgddd",
"ttttqtqqe99eqqqqqqqq8qq8998888q900009qepjvNNBBmCNCCCNNCCNNCNNNNNNNNNNNCCNNNMMnbc",
"66242222--2-2---==2,-==-----==-=-===135ulBHUUUUYATAWLLUUYLLLLLLLLLLLLLLALLLJJDDn",
">,,;:;;;%%%%%=%%===#=$$=&$&&=$%$%$%=%-4uxVEETWWWWRRWWRWWTTRTTTTRTTYTTUWTTLRLLJFM",
"::::&@&@$$$$$$#$#$##$O$+$$o$O$O$#O#%%%4exSYWWWWW!WW!WRWWRRWWRRRTWTTTTTTTRTTLLJFM",
";;;#&@@@##oOoOoOOOoO+oooOoo#+OooOoo$%-2elSEWW~!!!!!!!!!!!W!!RRRRRRRRTRTTTTTTYKJN",
"@;;#@O.+#ooooooooooOooooooooXoooooo#$%3elCEW~~!!W^!!^!!!!!!R!R!RRRRRRRTTTTTTYKJM",
";@##O@@.oOooooooooooooooooooooXoooO#$%3uxSEW!!^!^^^!!!!!!!R!!!!!!RRRRRRTRRTTYIKM",
"O;O##OoOooXOXoooOoooooooooooooooooo+$%2uzDYR!!!/!!^^!/!/R//RQQ/RRRR!RRWRWRRTYKJM",
";#;O#OXOooXOXOXXoXo o oXoooXXXXoooo+$%29zDY~!/!!^^^!!//R/RQR/RQR!WRWWRRWRRRYYIJD",
";#OOOXOXooXXXXoXXooX XXXXo.XXoXXooo+$%2ujDY~!!/!^!!^/!!^R/R//R/RR!!RWWRRRTRYYIHN",
"##;##OX#ooXXXXoXoXXoo XXoXXooXo.ooX++%-uzDY!!~!!!^!!!!!!/R/RR/QQ!WRW!RRRWRRTYIKN",
";###OOXXOoOoXXXXXoXXoXXoXXXoXoXooooo$%29zDIQ!!!/^^!^!!^!/QR/Q/RQRRRR!RRRRRRTUUKN",
"#;##O.ooXXXXOXXooXoXXoXXXoX.oXoXXooO$%2ujDYQ!!/!!!^^!^!!Q/QR/QR/!!!WRRRRRRTTYUKN",
";#;#O.OoXOOXXXXOoXXoXoXooXXoXXoooo+O$=2ezDY/!!/!^!!!!!^^/QQ//~/R!RRRRRRRRRWTYLJN",
"#;@@OOOXXX.ooXXXXoXXoXoXXooXXoXXooo+$%2ezDYR!!!!!^!^^!!!/Q/QRR/R!R!RRRRRWRWTYLKN",
"#;##Ooooo.oo XXXXoXXoXoXXoXXoXXooooO$%4ejDI!!!/!/!R/Q/QRQ/R/RR/RR!R!RRRRRQQYYUJN",
";#;OOOooXOooo XXXXoXXoXooXooXXoXooo+$=4egDIRR!!!R!/R/R///R/RR/RR!RRR!RRRQQQTYLKN",
";#;#OoOoooooXXXXXXoXXoXXXXoXoXoXoooO#%-ejDI/R/!!/!R/R//RRRRRRR/RR!!RR!R!QQQTYIKN",
"#;#OOOooooooXXOXXXXXoXoXo.XX.oXoXoo#$#4egDYR/R!//!/R/RR/R/R/R/RRR!RRRRRRQQTRYUKN",
";;##oooooOooOoXooXXoXooXXX.oo.XXoooo$&4tjDURQ!^!!/R/R/RRRRRR/R/RR!R!R!RRRQTTYLJN",
"#####ooo X ooXoXXooXoXXooXoXXoXoooo+$$2tjNURQ!^^/R/R/RQ///R/RRRR!!RRRRRRRQQTYLJN",
"#;###oooXOoooX XoXoXXoXX.XXoXXXooXo@O$2ejZYQ!^/!!!R!R/RRRRRRRR/RRRRRRRRRRQWTYLKN",
"##;##ooXXXooX oo.XXoXXoXooXXoXoXXooo@$4ejZYQQ!!!/Q/!/R//R/R/R/RR!RRRRRRRRRTTYLKB",
";##OO.O.XX#XXXXXXXXXoXXoXooXXoXo oXo$*2ehZURR///R/!!!!!!RR!R!!!R!RRRRR!RR!WTTALC",
"#;;OO..OXooXOXXoXOoXXooXXXXooXX. oX++*4exZYQ!!R/!!!!/!/!(R!!!!R!!!!R!R!RRRRRTTAC",
";;#OOOOOoooooXXXXXXXXXoXo.XXoXXooooO$*2tjZYQR!!!!!!!!!!!!!!!R(R!RRRRRR!!R!RTTLAC",
";#;OOOO.oOXoXooXXXXOoX.oXoXoXXoXooO+$$3tjZYQ!!!/!!!/!!(!R(R!!!R!(R!R!!R!RRRTLLUC",
";;;#OO XooooXXXooXoXoXoXoXoXoXXoo.OO+%2txZYQ/Q/RR(RR!!(RRR(RR!R!!R!!R!R!!RRTTLLN",
"##;#OOOXooooooXXXoXooXXXXoXXXooXo.o@+%2rjZYQ/QR/RR(((R(R(RRR!!!!!!RR!!!RRR!TYLLN",
";###OOOXooooXXoXXoXXXXXoXoXo.oXXoo++@*2txZYQR//R(RRR(RR((R!!!RR!R!R!!R!RRRRTYLJN",
";;##OOXOoooooooXoXXooooXoXoXXXoooo..+*2txVYQQQR/(R(RRR(RR!!!R!!R!R!R!!R!RRRTYLLN",
"##;#OoOooooooXoooXoo+...o.oooXooo.+++*3txCYWQ!^!RR(R!!!!!!R!!R!!!R!RR!!!WRRRTLLN",
";;##OOooo#oooooooooo....oooooooooo.++%3txCW!Q!!^(R(RR/!!!!(RR!R!R!!!!RRRWWRRLLJN",
"#;##OOo.ooooXoooooXo.o.+oXoooooX.o+++%3txCYW!!!!R(RR/RRRRRRR!RRR!!!!!Q!WWRTTTLJN",
"&;;;@OO+++o++o+oooo+o+.+oOooo+oo.+.+%*3rcCTWW!!~RRR(RR//RRRR!RRRRR!RQQWWRTTTLLJN",
";;&&$+++++o++o++$o+++++++.++$o$o+++$$<3rxCYWWQQQ(RRRQ/~RRRRRRTRRRRWWWWWTTTWULLJM",
"***$$&+++$+$$$++$++++$++++++$o$$+++$<<4rxCAWWWQ~(RRRRRRRRRRRTTTTTRTTTWWTTTWYLPJN",
"1**&**$*$&$$$+$$%$$$$$$$$$+%$$$$+++<<<4rxCWWWWQWRRRRTRTRRRTYYYYYTYYTYTEYAWWULJSM",
"00006666555555555454544454545444644464wylmSSSHHFDDDFDGDGFFDDDDDDAAAASSSSAACCCBNv"
};
