/* XPM */
static char *result[] = {
/* columns rows colors chars-per-pixel */
"80 80 169 2 ",
"   c #956223",
".  c #B68235",
"X  c #BC8634",
"o  c #BD8B3B",
"O  c #C58A22",
"+  c #CF9225",
"@  c #DB9D27",
"#  c #D5962C",
"$  c #D8972C",
"%  c #DC9C2B",
"&  c #CD9634",
"*  c #C7923A",
"=  c #D59736",
"-  c #D69E37",
";  c #DC9D31",
":  c #D49A39",
">  c #E09F2A",
",  c #DFA02F",
"<  c #DFA235",
"1  c #DDA13D",
"2  c #E4A527",
"3  c #E4A42A",
"4  c #E8A729",
"5  c #EAAA28",
"6  c #EEB02F",
"7  c #E1A333",
"8  c #E6A935",
"9  c #EBAE34",
"0  c #E3A639",
"q  c #E6AA3B",
"w  c #E9AD3C",
"e  c #EFB233",
"r  c #ECB13D",
"t  c #F1B534",
"y  c #F1B639",
"u  c #F4BA3C",
"i  c #BD8B42",
"p  c #BC8E4B",
"a  c #BC8F51",
"s  c #BFA17D",
"d  c #C59442",
"f  c #D59E42",
"g  c #CB9D55",
"h  c #C59B5B",
"j  c #D7A445",
"k  c #DDA345",
"l  c #DCA846",
"z  c #D6A348",
"x  c #DBA44A",
"c  c #CFA45A",
"v  c #D4A553",
"b  c #DDA651",
"n  c #DCAA54",
"m  c #E4AA43",
"M  c #E9AF40",
"N  c #E3AC4D",
"B  c #ECB344",
"V  c #E5B14E",
"C  c #ECB64D",
"Z  c #EEB84F",
"A  c #F0B641",
"S  c #F4BC44",
"D  c #F3BC4C",
"F  c #E3AD53",
"G  c #E2AE5C",
"H  c #E6B254",
"J  c #EAB552",
"K  c #E7B856",
"L  c #EDB953",
"P  c #E4B25C",
"I  c #E8B659",
"U  c #ECBA5B",
"Y  c #F2BD53",
"T  c #F1BE5A",
"R  c #C39D67",
"E  c #C9A669",
"W  c #D7B16E",
"Q  c #CBAA75",
"!  c #C6A97C",
"~  c #CBAC7F",
"^  c #C4A47B",
"/  c #DAB77D",
"(  c #D7B378",
")  c #E5B665",
"_  c #E8B761",
"`  c #EBBB63",
"'  c #E6BA6B",
"]  c #ECBD6B",
"[  c #F0BF61",
"{  c #ECBF71",
"}  c #F7C047",
"|  c #FBC345",
" . c #FFC847",
".. c #F7C24F",
"X. c #F9C34B",
"o. c #FFC94C",
"O. c #F6C255",
"+. c #FAC653",
"@. c #FFCB53",
"#. c #F4C35C",
"$. c #F9C659",
"%. c #FFCE5C",
"&. c #EFC164",
"*. c #EEC16D",
"=. c #F4C464",
"-. c #FCCC63",
";. c #F1C46C",
":. c #F5C96C",
">. c #FACD6C",
",. c #FFD164",
"<. c #FFD26A",
"1. c #EFC374",
"2. c #EFC57C",
"3. c #F2C672",
"4. c #F5CA72",
"5. c #F9CF70",
"6. c #F0C579",
"7. c #F4CB7D",
"8. c #F8CF78",
"9. c #FFD472",
"0. c #FDD57B",
"q. c #FFD87E",
"w. c #919191",
"e. c #989694",
"r. c #9F9F9F",
"t. c #B2A596",
"y. c #BBA990",
"u. c #BDAF9D",
"i. c gray68",
"p. c #B8B8B7",
"a. c gray72",
"s. c #D7B782",
"d. c #D2B589",
"f. c #CEB89D",
"g. c #D1B690",
"h. c #D4BFA7",
"j. c #C5BEB5",
"k. c #DCC39D",
"l. c #E7C485",
"z. c #EFCC88",
"x. c #F3CC83",
"c. c #F5CF88",
"v. c #FAD484",
"b. c #FFD983",
"n. c #F6D18B",
"m. c #FBD68A",
"M. c #FFDB8C",
"N. c #F8D591",
"B. c #FEDC94",
"V. c #F7D798",
"C. c #FEDE9B",
"Z. c #F4D394",
"A. c #FFE09F",
"S. c #DDC8A8",
"D. c #DCCAB1",
"F. c #FFE0A1",
"G. c #CDCDCC",
"H. c #E2D5C6",
"J. c #E9DECE",
"K. c #E9DFD2",
"L. c #EDE3D7",
"P. c #EBE9E7",
"I. c #EBEAE8",
"U. c #F2EAE1",
"Y. c #F6F2ED",
"T. c #F9F7F3",
"R. c #FAF8F5",
"E. c #FEFEFE",
"W. c None",
/* pixels */
"W.W.W.W.W.W.W.W.W.W.W.W.W.W.W.W.W.W.W.W.W.W.W.W.W.W.W.W.W.W.W.W.W.W.W.W.W.W.W.W.W.W.W.W.W.W.W.W.W.W.W.W.W.W.W.W.W.W.W.W.W.W.W.W.W.W.W.W.W.W.W.W.W.W.W.W.W.W.W.W.",
"W.W.W.W.W.W.W.W.W.W.W.W.W.W.W.W.W.W.W.W.W.W.W.W.W.W.W.W.W.W.W.W.W.W.W.W.W.W.W.W.$.$.3 W.W.W.W.W.W.W.W.W.W.W.W.W.W.W.W.W.W.W.W.W.W.W.W.W.W.W.W.W.W.W.W.W.W.W.W.W.",
"W.W.W.W.W.W.W.W.W.W.W.W.W.W.W.W.W.W.W.W.W.W.W.W.W.W.W.W.W.W.W.W.W.W.W.W.W.W.W.L -.@.3 W.W.W.W.W.W.W.W.W.W.W.W.W.W.W.W.W.W.W.W.W.W.W.W.W.W.W.W.W.W.W.W.W.W.W.W.W.",
"W.W.W.W.W.W.W.W.W.W.W.W.W.W.W.W.W.W.W.W.W.W.W.W.W.W.W.W.W.W.W.W.W.W.W.W.W.W.W.C %.S % W.W.W.W.W.W.W.W.W.W.W.W.W.W.W.W.W.W.W.W.W.W.W.W.W.W.W.W.W.W.W.W.W.W.W.W.W.",
"W.W.W.W.W.W.W.W.W.W.W.W.W.W.W.W.W.W.W.W.W.W.W.W.W.W.W.W.W.W.W.W.W.W.W.W.W.= C B 7 8 r = W.W.W.W.W.W.W.W.W.W.W.W.W.W.W.W.W.W.W.W.W.W.W.W.W.W.W.W.W.W.W.W.W.W.W.W.",
"W.W.W.W.W.W.W.W.W.W.W.W.W.W.W.W.W.W.W.W.W.W.W.W.W.W.W.W.W.W.W.W.W.W.W.W.W.L -.$.O.B 3 % W.W.W.W.W.W.W.W.W.W.W.W.W.W.W.W.W.W.W.W.W.W.W.W.W.W.W.W.W.W.W.W.W.W.W.W.",
"W.W.W.W.W.W.W.W.W.W.W.W.W.W.W.W.W.W.W.W.W.W.W.W.W.W.W.W.W.W.W.W.W.W.W.= #.Y <.,.%.w 4 W.W.W.W.W.W.W.W.W.W.W.W.W.W.W.W.W.W.W.W.W.W.W.W.W.W.W.W.W.W.W.W.W.W.W.W.W.",
"W.W.W.W.W.W.W.W.W.W.W.W.W.W.W.W.W.W.W.W.W.W.W.W.W.W.W.W.W.W.W.W.W.W.W.J L L ,.,.$.; m q 3 W.W.W.W.W.W.W.W.W.W.W.W.W.W.W.W.W.W.W.W.W.W.W.W.W.W.W.W.W.W.W.W.W.W.W.",
"W.W.W.W.W.W.W.W.W.W.W.W.W.W.W.W.W.W.W.W.W.W.W.W.W.W.W.W.W.W.W.W.W.W.W.=.<.<.,.,.$.Y D 4 > W.W.W.W.W.W.W.W.W.W.W.W.W.W.W.W.W.W.W.W.W.W.W.W.W.W.W.W.W.W.W.W.W.W.W.",
"W.W.W.W.W.W.W.W.W.W.W.W.W.W.W.W.W.W.W.W.W.W.W.W.W.W.W.W.W.W.W.W.W.W.W.-.<.,.,.%.%.%.D 5 % W.W.W.W.W.W.W.W.W.W.W.W.W.W.W.W.W.W.W.W.W.W.W.W.W.W.W.W.W.W.W.W.W.W.W.",
"W.W.W.W.W.W.W.W.W.W.W.W.W.W.W.W.W.W.W.W.W.W.W.W.W.W.W.W.W.W.W.W.W.W.W.<.<.<.<.%.%.%.B 5 % W.W.W.W.W.W.W.W.W.W.W.W.W.W.W.W.W.W.W.W.W.W.W.W.W.W.W.W.W.W.W.W.W.W.W.",
"W.W.W.W.W.W.W.W.W.W.W.W.W.W.W.W.W.W.W.W.W.W.W.W.W.W.W.W.W.W.W.W.W.W.W.J l -.,.,.$.%.w 5 W.W.W.W.W.W.W.W.W.W.W.W.W.W.W.W.W.W.W.W.W.W.W.W.W.W.W.W.W.W.W.W.W.W.W.W.",
"W.W.W.W.W.W.W.W.W.W.W.W.W.W.W.W.W.W.W.W.W.W.W.W.W.W.W.W.W.W.W.W.W.W.W.W.V <.,.-.7 w < # W.W.W.W.W.W.W.W.W.W.W.W.W.W.W.W.W.W.W.W.W.W.W.W.W.W.W.W.W.W.W.W.W.W.W.W.",
"W.W.W.W.W.W.W.W.W.W.W.W.W.W.W.W.W.W.W.W.W.W.W.W.W.W.W.W.W.W.W.W.W.W.N H #.<.<.,.8 5 % 3 % W.W.W.W.W.W.W.W.W.W.W.W.W.W.W.W.W.W.W.W.W.W.W.W.W.W.W.W.W.W.W.W.W.W.W.",
"W.W.W.W.W.W.W.W.W.W.W.W.W.W.W.W.W.W.W.W.W.W.W.W.W.W.W.W.W.W.W.W.F =.q.0.T Y Y Y 7 3 4 5 5 4 % W.W.W.W.W.W.W.W.W.W.W.W.W.W.W.W.W.W.W.W.W.W.W.W.W.W.W.W.W.W.W.W.W.",
"W.W.W.W.W.W.W.W.W.W.W.W.W.W.W.W.W.W.W.W.W.W.W.W.W.W.W.W.W.W.W.` B.A.V.F.9.<.<.%.$.y 5 5 5 5 5 % W.W.W.W.W.W.W.W.W.W.W.W.W.W.W.W.W.W.W.W.W.W.W.W.W.W.W.W.W.W.W.W.",
"W.W.W.W.W.W.W.W.W.W.W.W.W.W.W.W.W.W.W.W.W.W.W.W.W.W.W.W.W.W.] F.Z.a l.A.9.,.K -.%.%.} 5 5 5 5 5 W.W.W.W.W.W.W.W.W.W.W.W.W.W.W.W.W.W.W.W.W.W.W.W.W.W.W.W.W.W.W.W.",
"W.W.W.W.W.W.W.W.W.W.W.W.W.W.W.W.W.W.W.W.W.W.W.W.W.W.W.W.W.W.P z.h V.A.A.9.,.K X $.%.%.S 5 5 5 % W.W.W.W.W.W.W.W.W.W.W.W.W.W.W.W.W.W.W.W.W.W.W.W.W.W.W.W.W.W.W.W.",
"W.W.W.W.W.W.W.W.W.W.W.W.W.W.W.W.W.W.W.W.W.W.W.W.W.W.W.W.W.W.f d m.A.F.A.<.<.,.$.o %.@.@.e 4 3 % W.W.W.W.W.W.W.W.W.W.W.W.W.W.W.W.W.W.W.W.W.W.W.W.W.W.W.W.W.W.W.W.",
"W.W.W.W.W.W.W.W.W.W.W.W.W.W.W.W.W.W.W.W.W.W.W.W.W.W.W.W.W.W.f *.Q g./ :.,.&.W P C l O.D 8 2 4 W.W.W.W.W.W.W.W.W.W.W.W.W.W.W.W.W.W.W.W.W.W.W.W.W.W.W.W.W.W.W.W.W.",
"W.W.W.W.W.W.W.W.W.W.W.W.W.W.W.W.W.W.W.W.W.W.W.W.W.W.W.W.W.W.i J.E.E.Y.* c L.R.R.~ < ..@.6 5 , W.W.W.W.W.W.W.W.W.W.W.W.W.W.W.W.W.W.W.W.W.W.W.W.W.W.W.W.W.W.W.W.W.",
"W.W.W.W.W.W.W.W.W.W.W.W.W.W.W.W.W.W.W.W.W.W.W.W.W.W.W.W.W.W.f.E.E.E.E.^ P.E.E.E.R.: u X.5 5 @ W.W.W.W.W.W.W.W.W.W.W.W.W.W.W.W.W.W.W.W.W.W.W.W.W.W.W.W.W.W.W.W.W.",
"W.W.W.W.W.W.W.W.W.W.W.W.W.W.W.W.W.W.W.W.W.W.W.W.W.W.W.W.W.W.h.E.E.a.I.s E.E.E.E.R.: u e 5 3 W.W.W.W.W.W.W.W.W.W.W.W.W.W.W.W.W.W.W.W.W.W.W.W.W.W.W.W.W.W.W.W.W.W.",
"W.W.W.W.W.W.W.W.W.W.W.W.W.W.W.W.W.W.W.W.W.W.W.W.W.W.W.W.W.W.W.Y.E.e.d.g E.E.E.w.t., y 5 2 % W.W.W.W.W.W.W.W.W.W.W.W.W.W.W.W.W.W.W.W.W.W.W.W.W.W.W.W.W.W.W.W.W.W.",
"W.W.W.W.W.W.W.W.W.W.W.W.W.W.W.W.W.W.W.W.W.W.W.W.W.W.W.W.W.W.W.d W j u L D.E.E.H.1 r 6 O , W.W.W.W.W.W.W.W.W.W.W.W.W.W.W.W.W.W.W.W.W.W.W.W.W.W.W.W.W.W.W.W.W.W.W.",
"W.W.W.W.W.W.W.W.W.W.W.W.W.W.W.W.W.W.W.W.W.W.W.W.W.W.W.W.W.W.W.. o c W ` K a i O + & O , @ W.W.W.W.W.W.W.W.W.W.W.W.W.W.W.W.W.W.W.W.W.W.W.W.W.W.W.W.W.W.W.W.W.W.W.",
"W.W.W.W.W.W.W.W.W.W.W.W.W.W.W.W.W.W.W.W.W.W.W.W.W.W.W.W.W.W.W.W.0.k.T.L.k.s d z V 3 4 4 W.W.W.W.W.W.W.W.W.W.W.W.W.W.W.W.W.W.W.W.W.W.W.W.W.W.W.W.W.W.W.W.W.W.W.W.",
"W.W.W.W.W.W.W.W.W.W.W.W.W.W.W.W.W.W.W.W.W.W.W.W.W.W.W.W.W.W.W.W.>.s.Y.G.w.a.u.n ,.+ 4 # W.W.W.W.W.W.W.W.W.W.W.W.W.W.W.W.W.W.W.W.W.W.W.W.W.W.W.W.W.W.W.W.W.W.W.W.",
"W.W.W.W.W.W.W.W.W.W.W.W.W.W.W.W.W.W.W.W.W.W.W.W.W.W.W.W.W.W.W.W.&.' ' ( P.r.i.y.%.% > W.W.W.W.W.W.W.W.W.W.W.W.W.W.W.W.W.W.W.W.W.W.W.W.W.W.W.W.W.W.W.W.W.W.W.W.W.",
"W.W.W.W.W.W.W.W.W.W.W.W.W.W.W.W.W.W.W.W.W.W.G 1.n.F W.W.W.W.W.b :...j =.! G.D.E S 4 q W.W.W.W.W.W.W.W.W.W.W.W.W.W.W.W.W.W.W.W.W.W.W.W.W.W.W.W.W.W.W.W.W.W.W.W.W.",
"W.W.W.W.W.W.W.W.W.W.W.W.W.W.W.W.W.W.W.W.W.W.1.` B.U W.W.W.W.) x j K q 9 C s g 9 4 7 - ' W.W.W.W.W.W.W.W.W.W.W.W.W.W.W.W.W.W.W.W.W.W.W.W.W.W.W.W.W.W.W.W.W.W.W.W.",
"W.W.W.W.W.W.W.W.W.W.W.W.W.W.W.W.W.W.W.W.W.W.1.J I _ W.W.W.n c.=.. . X < , , @ , ; 3 4 N.) W.W.W.W.W.W.W.W.W.W.W.W.W.W.W.W.W.W.W.W.W.W.W.W.W.W.W.W.W.W.W.W.W.W.W.",
"W.W.W.W.W.W.W.W.W.W.W.W.W.W.W.W.W.W.W.W.W.W.] 3.b.W.W.W.G ' x.G   ( A.b.-.-.,.,.5 3 ` ) 6.W.W.W.W.W.W.W.W.W.W.W.W.W.W.W.W.W.W.W.W.W.W.W.W.W.W.W.W.W.W.W.W.W.W.W.",
"W.W.W.W.W.W.W.W.W.W.W.W.W.W.W.W.W.W.W.W.W.W.W.` F W.W.W.x 6._ g c *.6.:.=.#.U K N H q m ] W.W.W.W.W.W.W.W.W.W.W.W.W.W.W.W.W.W.W.W.W.W.W.W.W.W.W.W.W.W.W.W.W.W.W.",
"W.W.W.W.W.W.W.W.W.W.W.W.W.W.W.W.W.W.W.W.W.W.W._ _ W.W.W.` ] ) ' 3.;.&.&.I I &.L q 0 N H 4 W.W.W.W.W.W.W.W.W.W.W.W.W.W.W.W.W.W.W.W.W.W.W.W.W.W.W.W.W.W.W.W.W.W.W.",
"W.W.W.W.W.W.W.W.W.W.W.W.W.W.W.W.W.W.W.W.W.W.W.) v.W.W.W.` b.m.] P n F H H H N N H 0 4 5 4 W.W.W.W.W.W.W.W.W.W.W.W.W.W.W.W.W.W.W.W.W.W.W.W.W.W.W.W.W.W.W.W.W.W.W.",
"W.W.W.W.W.W.W.W.W.W.W.W.W.W.W.W.W.W.W.W.W.W.W.W.B._ W.W.W.4.C.C.F.B.m.>.-.-.%.-.,.5 5 3 W.W.W.W.W.W.W.W.W.W.W.W.W.W.W.W.W.W.W.W.W.W.W.W.W.W.W.W.W.W.W.W.W.W.W.W.",
"W.W.W.W.W.W.W.W.W.W.W.W.W.W.W.W.W.W.W.W.W.W.W.W.x.v.W.W.W.W.N 1.v.B.M.9.<.<.<.-.O.3 % W.W.W.W.W.W.W.W.W.W.W.W.W.W.W.W.W.W.W.W.W.W.W.W.W.W.W.W.W.W.W.W.W.W.W.W.W.",
"W.W.W.W.W.W.W.W.W.W.W.W.W.W.W.W.W.W.W.W.W.W.W.W.1.M.*.W.W.% 4 % 7 8 w w M r 8 0 J Z D D D } S } 0 W.W.W.W.W.W.W.W.W.W.W.W.W.W.W.W.W.W.W.W.W.W.W.W.W.W.W.W.W.W.W.",
"W.W.W.W.W.W.W.W.W.W.W.W.W.W.W.W.W.W.W.W.W.W.W.W.W.B.4.l L 5 4 % 5 e 6 5 4 5 5 3.9.%.$...S w 7 o.q W.W.W.W.W.W.W.W.W.W.W.W.W.W.W.W.W.W.W.W.W.W.W.W.W.W.W.W.W.W.W.",
"W.W.W.W.W.W.W.W.W.W.W.W.W.W.W.W.W.W.W.W.W.W.W.W.W.3.b.b.0.< W.H 0.9.9.,.S 5 S <.O.< W.W.W.W.W.o.q W.W.W.W.W.W.W.W.W.W.W.W.W.W.W.W.W.W.W.W.W.W.W.W.W.W.W.W.W.W.W.",
"W.W.W.W.W.W.W.W.W.W.W.W.W.W.W.W.W.W.W.W.W.W.W.W.W.P 0.3.W.W.W.H 0.<.9.<.<.%.-.,.8 3 W.W.W.W.W.S 8 W.W.W.W.W.W.W.W.W.W.W.W.W.W.W.W.W.W.W.W.W.W.W.W.W.W.W.W.W.W.W.",
"W.W.W.W.W.W.W.W.W.W.W.W.W.W.W.W.W.W.W.W.W.W.W.W.W.W.W.W.W.W.W.W.b.9.9.<.<.<.<.%.3 3 W.W.W.W.W.w 8 W.W.W.W.W.W.W.W.W.W.W.W.W.W.W.W.W.W.W.W.W.W.W.W.W.W.W.W.W.W.W.",
"W.W.W.W.W.W.W.W.W.W.W.W.W.W.W.W.W.W.W.W.W.W.W.W.W.W.W.W.W.W.W.W.A.q.9.<.<.<.,.%.5 4 W.W.W.W.W.W.8 W.W.W.W.W.W.W.W.W.W.W.W.W.W.W.W.W.W.W.W.W.W.W.W.W.W.W.W.W.W.W.",
"W.W.W.W.W.W.W.W.W.W.W.W.W.W.W.W.W.W.W.W.W.W.W.W.W.W.W.W.W.W.W.W.A.q.9.<.<.<.<.%.5 4 W.W.W.W.W.W.w W.W.W.W.W.W.W.W.W.W.W.W.W.W.W.W.W.W.W.W.W.W.W.W.W.W.W.W.W.W.W.",
"W.W.W.W.W.W.W.W.W.W.W.W.W.W.W.W.W.W.W.W.W.W.W.W.W.W.W.W.W.W.W.W.A.b.9.<.<.<.,.,.4 4 W.W.W.W.W.B u W.W.W.W.W.W.W.W.W.W.W.W.W.W.W.W.W.W.W.W.W.W.W.W.W.W.W.W.W.W.W.",
"W.W.W.W.W.W.W.W.W.W.W.W.W.W.W.W.W.W.W.W.W.W.W.W.W.W.W.W.W.W.W.W.A.M.<.9.<.<.,.,.e 5 % W.W.W.0 A S W.W.W.W.W.W.W.W.W.W.W.W.W.W.W.W.W.W.W.W.W.W.W.W.W.W.W.W.W.W.W.",
"W.W.W.W.W.W.W.W.W.W.W.W.W.W.W.W.W.W.W.W.W.W.W.W.W.W.W.W.W.W.W.W.A.M.9.<.<.,.,.,.y 5 3 W.W.W.% 8 u W.W.W.W.W.W.W.W.W.W.W.W.W.W.W.W.W.W.W.W.W.W.W.W.W.W.W.W.W.W.W.",
"W.W.W.W.W.W.W.W.W.W.W.W.W.W.W.W.W.W.W.W.W.W.W.W.W.W.W.W.W.W.W.I A.A.0.<.<.,.<.,.S 5 4 W.W.W.W.3 4 W.W.W.W.W.W.W.W.W.W.W.W.W.W.W.W.W.W.W.W.W.W.W.W.W.W.W.W.W.W.W.",
"W.W.W.W.W.W.W.W.W.W.W.W.W.W.W.W.W.W.W.W.W.W.W.W.W.W.W.W.W.W.W.I A.A.<.<.<.<.,.,.X.4 4 # W.W.W.W.W.W.W.W.W.W.W.W.W.W.W.W.W.W.W.W.W.W.W.W.W.W.W.W.W.W.W.W.W.W.W.W.",
"W.W.W.W.W.W.W.W.W.W.W.W.W.W.W.W.W.W.W.W.W.W.W.W.W.W.W.W.W.W.W.U A.B.<.9.<.<.,.%.%.5 5 3 W.W.W.W.W.W.W.W.W.W.W.W.W.W.W.W.W.W.W.W.W.W.W.W.W.W.W.W.W.W.W.W.W.W.W.W.",
"W.W.W.W.W.W.W.W.W.W.W.W.W.W.W.W.W.W.W.W.W.W.W.W.W.W.W.W.W.W.W.*.A.A.9.<.<.,.<.,.%.y 4 4 W.W.W.W.W.W.W.W.W.W.W.W.W.W.W.W.W.W.W.W.W.W.W.W.W.W.W.W.W.W.W.W.W.W.W.W.",
"W.W.W.W.W.W.W.W.W.W.W.W.W.W.W.W.W.W.W.W.W.W.W.W.W.W.W.W.W.W.W.M.A.B.9.<.<.,.,.%.%.S 5 5 > W.W.W.W.W.W.W.W.W.W.W.W.W.W.W.W.W.W.W.W.W.W.W.W.W.W.W.W.W.W.W.W.W.W.W.",
"W.W.W.W.W.W.W.W.W.W.W.W.W.W.W.W.W.W.W.W.W.W.W.W.W.W.W.W.W.W.N C.A.B.9.9.<.<.,.,.,.X.5 5 5 W.W.W.W.W.W.W.W.W.W.W.W.W.W.W.W.W.W.W.W.W.W.W.W.W.W.W.W.W.W.W.W.W.W.W.",
"W.W.W.W.W.W.W.W.W.W.W.W.W.W.W.W.W.W.W.W.W.W.W.W.W.W.W.W.W.W._ A.A.A.9.<.<.,.,.,.%.%.t 5 5 > z W.W.W.W.W.W.W.W.W.W.W.W.W.W.W.W.W.W.W.W.W.W.W.W.W.W.W.W.W.W.W.W.W.",
"W.W.W.W.W.W.W.W.W.W.W.W.W.W.W.W.W.W.W.W.W.W.W.W.W.W.W.W.W.1.0.A.A.B.9.<.<.<.<.,.%.%.} 5 5 4 J ' W.W.W.W.W.W.W.W.W.W.W.W.W.W.W.W.W.W.W.W.W.W.W.W.W.W.W.W.W.W.W.W.",
"W.W.W.W.W.W.W.W.W.W.W.W.W.W.W.W.W.W.W.W.W.W.W.W.W.W.W.W.W.m.;.A.A.b.9.<.<.<.<.%.%.%.%.e 5 5 H N.W.W.W.W.W.W.W.W.W.W.W.W.W.W.W.W.W.W.W.W.W.W.W.W.W.W.W.W.W.W.W.W.",
"W.W.W.W.W.W.W.W.W.W.W.W.W.W.W.W.W.W.W.W.W.W.W.W.W.W.W.W.F 1.n.*.0.9.9.<.<.<.,.,.%.%.%.X.5 V n.] % W.W.W.W.W.W.W.W.W.W.W.W.W.W.W.W.W.W.W.W.W.W.W.W.W.W.W.W.W.W.W.",
"W.W.W.W.W.W.W.W.W.W.W.W.W.W.W.W.W.W.W.W.W.W.W.W.W.W.W.H 0.0.*.x.2.3.=.=.-.=.%.%.$.O.O.&.6.n.` 5 5 4 W.W.W.W.W.W.W.W.W.W.W.W.W.W.W.W.W.W.W.W.W.W.W.W.W.W.W.W.W.W.",
"W.W.W.W.W.W.W.W.W.W.W.W.W.W.W.W.W.W.W.W.W.W.W.W.W.W.n q.b.b.q.9.` 1.x.n.c.x.x.z.c.c.c.6.V 3 4 5 5 4 4 % W.W.W.W.W.W.W.W.W.W.W.W.W.W.W.W.W.W.W.W.W.W.W.W.W.W.W.W.",
"W.W.W.W.W.W.W.W.W.W.W.W.W.W.W.W.W.W.W.W.W.W.W.W.W.W.;.M.M.F.A.B.q.9.<.=.#.=.#.#.$.$.+.u 5 5 5 5 5 5 5 5 W.W.W.W.W.W.W.W.W.W.W.W.W.W.W.W.W.W.W.W.W.W.W.W.W.W.W.W.",
"W.W.W.W.W.W.W.W.W.W.W.W.W.W.W.W.W.W.W.W.W.W.W.W.W.W.0.b.M.A.F.F.F.C.M.M.b.b.b.q.,.%.%.X.t t t t t 5 5 5 3 W.W.W.W.W.W.W.W.W.W.W.W.W.W.W.W.W.W.W.W.W.W.W.W.W.W.W.",
"W.W.W.W.W.W.W.W.W.W.W.W.W.W.W.W.W.W.W.W.W.W.W.W.W.W.8.b.b.M.F.F.F.F.F.F.F.F.A.A.M.%.%.%.@.o.o.o. .t 5 5 5 W.W.W.W.W.W.W.W.W.W.W.W.W.W.W.W.W.W.W.W.W.W.W.W.W.W.W.",
"W.W.W.W.W.W.W.W.W.W.W.W.W.W.W.W.W.W.W.W.W.W.W.W.W.W.*.b.b.q.M.C.F.F.F.F.F.F.A.A.q.%.@.@.@.o.o.o. .t 5 5 5 W.W.W.W.W.W.W.W.W.W.W.W.W.W.W.W.W.W.W.W.W.W.W.W.W.W.W.",
"W.W.W.W.W.W.W.W.W.W.W.W.W.W.W.W.W.W.W.W.W.W.W.W.W.W.F b.b.q.q.q.M.M.A.A.M.M.q.<.%.%.%.@.@.o.o.o. .t 5 5 5 @ W.W.W.W.W.W.W.W.W.W.W.W.W.W.W.W.W.W.W.W.W.W.W.W.W.W.",
"W.W.W.W.W.W.W.W.W.W.W.W.W.W.W.W.W.W.W.W.W.W.W.W.W.W.G 3.b.q.q.0.9.9.<.<.,.<.,.,.%.%.%.@.@.@.o.o. .6 5 5 5 , W.W.W.W.W.W.W.W.W.W.W.W.W.W.W.W.W.W.W.W.W.W.W.W.W.W.",
"W.W.W.W.W.W.W.W.W.W.W.W.W.W.W.W.W.W.W.W.W.W.W.W.W.W.2.n.4.q.9.q.9.9.9.9.<.<.<.,.,.%.%.@.@.o.o. .6 5 5 5 3 4 3 W.W.W.W.W.W.W.W.W.W.W.W.W.W.W.W.W.W.W.W.W.W.W.W.W.",
"W.W.W.W.W.W.W.W.W.W.W.W.W.W.W.W.W.W.W.W.W.W.W.W.W.W.2.F.c.;.q.9.0.9.9.<.<.,.,.%.%.%.%.@.@.@.o.t 5 5 5 4 3 5 4 W.W.W.W.W.W.W.W.W.W.W.W.W.W.W.W.W.W.W.W.W.W.W.W.W.",
"W.W.W.W.W.W.W.W.W.W.W.W.W.W.W.W.W.W.W.W.W.W.W.W.W.W.x C.A.B.*.=.9.0.<.<.<.<.<.,.%.%.%.@.@.| 6 5 5 4 % 2 5 5 5 # W.W.W.W.W.W.W.W.W.W.W.W.W.W.W.W.W.W.W.W.W.W.W.W.",
"W.W.W.W.W.W.W.W.W.W.W.W.W.W.W.W.W.W.W.W.W.W.W.W.W.W.W.] V.A.M.9.=.T L #.%.,.,.-.%.%.X.u 6 5 2 , > 4 5 5 5 5 3 % W.W.W.W.W.W.W.W.W.W.W.W.W.W.W.W.W.W.W.W.W.W.W.W.",
"W.W.W.W.W.W.W.W.W.W.W.W.W.W.W.W.W.W.W.W.W.W.W.W.W.W.W.0.;.2.N.q.0.<.-.Y w 7 8 w 9 3 3 , , 2 4 4 5 5 4 5 5 @ 2 4 W.W.W.W.W.W.W.W.W.W.W.W.W.W.W.W.W.W.W.W.W.W.W.W.",
"W.W.W.W.W.W.W.W.W.W.W.W.W.W.W.W.W.W.W.W.W.W.W.W.W.W.W.*.b.0.&.=.:.9.9.<.<.%.S t 6 5 5 5 5 5 5 5 5 5 4 3 > 5 5 5 % W.W.W.W.W.W.W.W.W.W.W.W.W.W.W.W.W.W.W.W.W.W.W.",
"W.W.W.W.W.W.W.W.W.W.W.W.W.W.W.W.W.W.W.W.W.W.W.W.W.W.W.H b.q.b.C.m.6.=.U L #.-.-.%.@.} S y 5 3 3 % 2 2 5 5 5 5 5 2 W.W.W.W.W.W.W.W.W.W.W.W.W.W.W.W.W.W.W.W.W.W.W.",
"W.W.W.W.W.W.W.W.W.W.W.W.W.W.W.W.W.W.W.W.W.W.W.W.W.W.W.W.0.b.M.A.F.F.A.A.C.v.4.T Y Y D D D D 4 5 5 5 5 5 5 5 5 5 4 W.W.W.W.W.W.W.W.W.W.W.W.W.W.W.W.W.W.W.W.W.W.W.",
"W.W.W.W.W.W.W.W.W.W.W.W.W.W.W.W.W.W.W.W.W.W.W.W.W.W.W.W.I q.b.A.F.F.F.F.A.F.F.B.-.%.%.@.@.@.6 5 5 5 5 5 5 5 5 5 3 W.W.W.W.W.W.W.W.W.W.W.W.W.W.W.W.W.W.W.W.W.W.W.",
"W.W.W.W.W.W.W.W.W.W.W.W.W.W.W.W.W.W.W.W.W.W.W.W.W.W.W.W.W.I 8.A.F.F.F.F.A.A.F.F.b.%.%.@.@.o.6 5 5 5 5 5 5 5 5 4 # W.W.W.W.W.W.W.W.W.W.W.W.W.W.W.W.W.W.W.W.W.W.W.",
"W.W.W.W.W.W.W.W.W.W.W.W.W.W.W.W.W.W.W.W.W.W.W.W.W.W.W.W.W.W.W.] B.A.A.A.F.F.F.C.M.%.@.@.@.@.6 5 5 5 5 5 5 5 4 $ W.W.W.W.W.W.W.W.W.W.W.W.W.W.W.W.W.W.W.W.W.W.W.W.",
"W.W.W.W.W.W.W.W.W.W.W.W.W.W.W.W.W.W.W.W.W.W.W.W.W.W.W.W.W.W.W.W.W._ 1.7.B.B.B.M.<.%.%.@.@.o.5 5 5 5 4 4 3 % W.W.W.W.W.W.W.W.W.W.W.W.W.W.W.W.W.W.W.W.W.W.W.W.W.W.",
"W.W.W.W.W.W.W.W.W.W.W.W.W.W.W.W.W.W.W.W.W.W.W.W.W.W.W.W.W.W.W.W.W.W.W.W.W.V L L Y Y D ..D D 3 3 > > % W.W.W.W.W.W.W.W.W.W.W.W.W.W.W.W.W.W.W.W.W.W.W.W.W.W.W.W.W.",
"W.W.W.W.W.W.W.W.W.W.W.W.W.W.W.W.W.W.W.W.W.W.W.W.W.W.W.W.W.W.W.W.W.W.W.W.W.W.W.W.W.W.W.W.W.W.W.W.W.W.W.W.W.W.W.W.W.W.W.W.W.W.W.W.W.W.W.W.W.W.W.W.W.W.W.W.W.W.W.W."
};
