/* XPM */
static char *result[] = {
/* columns rows colors chars-per-pixel */
"80 80 89 1 ",
"  c #4E7838",
". c #4E7938",
"X c #4F7938",
"o c #4F7A38",
"O c #507A38",
"+ c #507A39",
"@ c #507B39",
"# c #517B39",
"$ c #517C39",
"% c #527C39",
"& c #527D39",
"* c #537E39",
"= c #527D3A",
"- c #537E3A",
"; c #54803A",
": c #55803A",
"> c #55813A",
", c #56823A",
"< c #57823B",
"1 c #57833B",
"2 c #58843B",
"3 c #58853B",
"4 c #59863C",
"5 c #5A863C",
"6 c #5A873C",
"7 c #5B883C",
"8 c #5B893C",
"9 c #5C893C",
"0 c #5D8A3D",
"q c #5E8C3D",
"w c #5F8C3D",
"e c #5F8D3D",
"r c #608E3E",
"t c #608F3E",
"y c #618F3E",
"u c #61903E",
"i c #63913E",
"p c #63923E",
"a c #63923F",
"s c #64933F",
"d c #64943F",
"f c #65943F",
"g c #65953F",
"h c #66953F",
"j c #669640",
"k c #679740",
"l c #689840",
"z c #689940",
"x c #699940",
"c c #699A40",
"v c #6A9A40",
"b c #6A9B41",
"n c #6B9B41",
"m c #6B9C41",
"M c #6C9C41",
"N c #6C9D41",
"B c #6E9E41",
"V c #6E9F41",
"C c #6F9F41",
"Z c #70A042",
"A c #70A142",
"S c #72A242",
"D c #73A242",
"F c #74A343",
"G c #77A543",
"H c #78A643",
"J c #7AA844",
"K c #7BA844",
"L c #7BA944",
"P c #7CA944",
"I c #7DAA44",
"U c #7EAB44",
"Y c #7FAB44",
"T c #82AD45",
"R c #84AF45",
"E c #86B045",
"W c #88B246",
"Q c #8BB447",
"! c #8BB547",
"~ c #8CB547",
"^ c #8DB647",
"/ c #8FB848",
"( c #90B847",
") c #90B848",
"_ c #92B948",
"` c #93BA48",
"' c #93BB48",
"] c #94BB48",
"[ c None",
/* pixels */
"[[[[[[[[[[[[[[[[[[[[[[[[[[[[[[[[[[[[[[[[[[[[[[[[[[[[[[[[[[[[[[[[[[[[[[[[[[[[[[[[",
"[[[[[[[[[[[[[[[[[[[[[[[[[[[[[[[[[[[[[[[[[[[[[[[[[[[[[[[[[[[[[[[[[[[[[[[[[[[[[[[[",
"[[[[[[[[[[[[[[[[[[[[[[[[[[[[[[[[[[[[[[[[[[[[[[[[[[[[[[[[[[[[[[[[[[[[[[[[[[[[[[[[",
"[[[[[[[[[[[[[[[[[[[[[[[[[[[[[[[[[[[[[[[[[[[[[[[[[[[[[[[[[[[[[[[[[[[[[[[[[[[[[[[[",
"[[[[[[[[[[[[[[[[[[[[[[[[[[[[[[[[[[[[NNNNNNNNm[[[[[[[[[[[[[[[[[[[[[[[[[[[[[[[[[[[",
"[[[[[[[[[[[[[[[[[[[[[[[[[[[[[[[[[[NNBSFSCNNNNs<[[[[[[[[[[[[[[[[[[[[[[[[[[[[[[[[[",
"[[[[[[[[[[[[[[[[[[[[[[[[[[[[[[[[[NNFT~/^EDNNNNtX[[[[[[[[[[[[[[[[[[[[[[[[[[[[[[[[",
"[[[[[[[[[[[[[[[[[[[[[[[[[[[[[[[NNBP']]]]]QNNNNM8 [[[[[[[[[[[[[[[[[[[[[[[[[[[[[[[",
"[[[[[[[[[[[[[[[[[[[[[[[[[[[[[[[NNK)]]]]]]WNNNNNx$ [[[[[[[[[[[[[[[[[[[[[[[[[[[[[[",
"[[[[[[[[[[[[[[[[[[[[[[[[[[[[[[NNZ^]]]]]]]HNNNNNN8 [[[[[[[[[[[[[[[[[[[[[[[[[[[[[[",
"[[[[[[[[[[[[[[[[[[[[[[[[[[[[[[NNI]]]]]]`YNNNNNNNd  [[[[[[[[[[[[[[[[[[[[[[[[[[[[[",
"[[[[[[[[[[[[[[[[[[[[[[[[[[[[[NNN^]]]]]_LNNNNNNNNn  [[[[[[[[[[[[[[[[[[[[[[[[[[[[[",
"[[[[[[[[[[[[[[[[[[[[[[[[[[[[[NNN']]]`!GNNNNNNNNNN=  [[[[[[[[[[[[[[[[[[[[[[[[[[[[",
"[[[[[[[[[[[[[[[[[[[[[[[[[[[[NNNN(]]_RANNNNNNNNNNN>  [[[[[[[[[[[[[[[[[[[[[[[[[[[[",
"[[[[[[[[[[[[[[[[[[[[[[[[[[[[NNNNDUJVNNNNNNNNNNNNN;  [[[[[[[[[[[[[[[[[[[[[[[[[[[[",
"[[[[[[[[[[[[[[[[[[[[[[[[[[[[NNNNNNNNNNNNNNNNNNNNN@  [[[[[[[[[[[[[[[[[[[[[[[[[[[[",
"[[[[[[[[[[[[[[[[[[[[[[[[[[[[NNNNNNNNNNNNNNNNNNNNz   [[[[[[[[[[[[[[[[[[[[[[[[[[[[",
"[[[[[[[[[[[[[[[[[[[[[[[[[[[[[NNNNNNNNNNNNNNNNNNNt   [[[[[[[[[[[[[[[[[[[[[[[[[[[[",
"[[[[[[[[[[[[[[[[[[[[[[[[[[[[[NNNNNNNNNNNNNNNNNNN>   [[[[[[[[[[[[[[[[[[[[[[[[[[[[",
"[[[[[[[[[[[[[[[[[[[[[[[[[[[[[NNNNNNNNNNNNNNNNNNtX  [[[[[[[[[[[[[[[[[[[[[[[[[[[[[",
"[[[[[[[[[[[[[[[[[[[[[[[[[[[[[[NNNNNNNNNNNNNNNNl&   [[[[[[[[[[[[[[[[[[[[[[[[[[[[[",
"[[[[[[[[[[[[[[[[[[[[[[[[[[[[[[NNNNNNNNNNNNNNNj:   [[[[[[[[[[[[[[[[[[[[[[[[[[[[[[",
"[[[[[[[[[[[[[[[[[[[[[[[[[[[[[[[NNNNNNNNNNNNMk:X   [[[[[[[[[[[[[[[[[[[[[[[[[[[[[[",
"[[[[[[[[[[[[[[[[[[[[[[[[[[[[[[[[NNNNNNNNNNNe$    [[[[[[[[[[[[[[[[[[[[[[[[[[[[[[[",
"[[[[[[[[[[[[[[[[[[[[[[[[[[[[[[[[[NNNNNNNNa>.    [[[[[[[[[[[[[[[[[[[[[[[[[[[[[[[[",
"[[[[[[[[[[[[[[[[[[[[[[[[[[[[[[[[NNNNNNNNNu.     [[[[[[[[[[[[[[[[[[[[[[[[[[[[[[[[",
"[[[[[[[[[[[[[[[[[[[[[[[[[[[[[[[NNNNNNNNNNMqo      [[[[[[[[[[[[[[[[[[[[[[[[[[[[[[",
"[[[[[[[[[[[[[[[[[[[[[[[[[[[[[NNNNNNNNNNNNNn2       [[[[[[[[[[[[[[[[[[[[[[[[[[[[[",
"[[[[[[[[[[[[[[[[[[[[[[[[[[[[NNNNNNNNNNNNNNNv6        [[[[[[[[[[[[[[[[[[[[[[[[[[[",
"[[[[[[[[[[[[[[[[[[[[[[[[[[NNNNNNNNNNNNNNNNNNx-        [[[[[[[[[[[[[[[[[[[[[[[[[[",
"[[[[[[[[[[[[[[[[[[[[[[[[[NNNNNNNNNNNNNNNNNNNNp$        [[[[[[[[[[[[[[[[[[[[[[[[[",
"[[[[[[[[[[[[[[[[[[[[[[[[[NNNNNNNNNNNNNNNNNNNNs%         [[[[[[[[[[[[[[[[[[[[[[[[",
"[[[[[[[[[[[[[[[[[[[[[[[[[NNNNNNNNNNNNNNNNNNNNt+        [[[[[[[[[[[[[[[[[[[[[[[[[",
"[[[[[[[[[[[[[[[[[[[[[[[[[NNNNNNNNNNNNNNNNNNNN7         [[[[[[[[[[[[[[[[[[[[[[[[[",
"[[[[[[[[[[[[[[[[[[[[[[[[[[NNNNNNNNNNNNNNNNNNN;         [[[[[[[[[[[[[[[[[[[[[[[[[",
"[[[[[[[[[[[[[[[[[[[[[[[[[[[[[[[[[e55555555554  [[[[[[[[[[[[[[[[[[[[[[[[[[[[[[[[[",
"[[[[[[[[[[[[[[[[[[[[[[[[[[[[[[[[[[             [[[[[[[[[[[[[[[[[[[[[[[[[[[[[[[[[",
"[[[[[[[[[[[[[[[[[[[[[[[[[[[[[[[[[[             [[[[[[[[[[[[[[[[[[[[[[[[[[[[[[[[[",
"[[[[[[[[[[[[[[[[[[[[[[[[[[[[[[[[[kfr9,+        [[[[[[[[[[[[[[[[[[[[[[[[[[[[[[[[[",
"[[[[[[[[[[[[[[[[[[[[[[[[[[[[[[[[[NNNNNme;.     [[[[[[[[[[[[[[[[[[[[[[[[[[[[[[[[[",
"[[[[[[[[[[[[[[[[[[[[[[[[[[[[[[[[[NNNNNNNv9     [[[[[[[[[[[[[[[[[[[[[[[[[[[[[[[[[",
"[[[[[[[[[[[[[[[[[[[[[[[[[[[[[[[[[NNNNNNNNN8    [[[[[[[[[[[[[[[[[[[[[[[[[[[[[[[[[",
"[[[[[[[[[[[[[[[[[[[[[[[[[[[[[[[[[NNNNNNNNNl$   [[[[[[[[[[[[[[[[[[[[[[[[[[[[[[[[[",
"[[[[[[[[[[[[[[[[[[[[[[[[[[[[[[[[[NNNNNNNNNc*    [[[[[[[[[[[[[[[[[[[[[[[[[[[[[[[[",
"[[[[[[[[[[[[[[[[[[[[[[[[[[[[[[[[NNNNNNNNNNz&    [[[[[[[[[[[[[[[[[[[[[[[[[[[[[[[[",
"[[[[[[[[[[[[[[[[[[[[[[[[[[[[[[[[NNNNNNNNNNhX     [[[[[[[[[[[[[[[[[[[[[[[[[[[[[[[",
"[[[[[[[[[[[[[[[[[[[[[[[[[[[[[[[NNNNNNNNNNNu      [[[[[[[[[[[[[[[[[[[[[[[[[[[[[[[",
"[[[[[[[[[[[[[[[[[[[[[[[[[[[[[[[NNNNNNNNNNN6       [[[[[[[[[[[[[[[[[[[[[[[[[[[[[[",
"[[[[[[[[[[[[[[[[[[[[[[[[[[[[[[NNNNNNNNNNNN-       [[[[[[[[[[[[[[[[[[[[[[[[[[[[[[",
"[[[[[[[[[[[[[[[[[[[[[[[[[[[[[[NNNNNNNNNNNb         [[[[[[[[[[[[[[[[[[[[[[[[[[[[[",
"[[[[[[[[[[[[[[[[[[[[[[[[[[[[[NNNNNNNNNNNNg          [[[[[[[[[[[[[[[[[[[[[[[[[[[[",
"[[[[[[[[[[[[[[[[[[[[[[[[[[[[NNNNNNNNNNNNNy          [[[[[[[[[[[[[[[[[[[[[[[[[[[[",
"[[[[[[[[[[[[[[[[[[[[[[[[[[[NNNNNNNNNNNNNN8            [[[[[[[[[[[[[[[[[[[[[[[[[[",
"[[[[[[[[[[[[[[[[[[[[[[[[[[NNNNNNNNNNNNNNN1            [[[[[[[[[[[[[[[[[[[[[[[[[[",
"[[[[[[[[[[[[[[[[[[[[[[[[[NNNNNNNNNNNNNNNN%              [[[[[[[[[[[[[[[[[[[[[[[[",
"[[[[[[[[[[[[[[[[[[[[[[[[NNNNNNNNNNNNNNNNc                [[[[[[[[[[[[[[[[[[[[[[[",
"[[[[[[[[[[[[[[[[[[[[[[NNNNNNNNNNNNNNNNNNu                 [[[[[[[[[[[[[[[[[[[[[[",
"[[[[[[[[[[[[[[[[[[[[[NNNNNNNNNNNNNNNNNNN4                  [[[[[[[[[[[[[[[[[[[[[",
"[[[[[[[[[[[[[[[[[[[[NNNNNNNNNNNNNNNNNNNm;                   [[[[[[[[[[[[[[[[[[[[",
"[[[[[[[[[[[[[[[[[[[NNNNNNNNNNNNNNNNNNNNl$                    [[[[[[[[[[[[[[[[[[[",
"[[[[[[[[[[[[[[[[[[[NNNNNNNNNNNNNNNNNNNNfX                     [[[[[[[[[[[[[[[[[[",
"[[[[[[[[[[[[[[[[[[NNNNNNNNNNNNNNNNNNNNN9                      [[[[[[[[[[[[[[[[[[",
"[[[[[[[[[[[[[[[[[[NNNNNNNNNNNNNNNNNNNNcO                       [[[[[[[[[[[[[[[[[",
"[[[[[[[[[[[[[[[[[NNNNNNNNNNNNNNNNNNNNN7                        [[[[[[[[[[[[[[[[[",
"[[[[[[[[[[[[[[[[[fnNNNNNNNNNNNNNNNNNv0X                         [[[[[[[[[[[[[[[[",
"[[[[[[[[[[[[[[[[[#6izNNNNNNNNNNNNNNg5X                          [[[[[[[[[[[[[[[[",
"[[[[[[[[[[[[[[[[     $:370qweeeq71&                             [[[[[[[[[[[[[[[[",
"[[[[[[[[[[[[[[[[          XXXXX.                                [[[[[[[[[[[[[[[[",
"[[[[[[[[[[[[[[[[                                                [[[[[[[[[[[[[[[[",
"[[[[[[[[[[[[[[[[                                                [[[[[[[[[[[[[[[[",
"[[[[[[[[[[[[[[[[                                                 [[[[[[[[[[[[[[[",
"[[[[[[[[[[[[[[[[                                                 [[[[[[[[[[[[[[[",
"[[[[[[[[[[[[[[[[                                                [[[[[[[[[[[[[[[[",
"[[[[[[[[[[[[[[[[[                                              [[[[[[[[[[[[[[[[[",
"[[[[[[[[[[[[[[[[[[[                                          [[[[[[[[[[[[[[[[[[[",
"[[[[[[[[[[[[[[[[[[[[[[[[                                [[[[[[[[[[[[[[[[[[[[[[[[",
"[[[[[[[[[[[[[[[[[[[[[[[[[[[[[[[[[[[          [[[[[[[[[[[[[[[[[[[[[[[[[[[[[[[[[[[",
"[[[[[[[[[[[[[[[[[[[[[[[[[[[[[[[[[[[[[[[[[[[[[[[[[[[[[[[[[[[[[[[[[[[[[[[[[[[[[[[[",
"[[[[[[[[[[[[[[[[[[[[[[[[[[[[[[[[[[[[[[[[[[[[[[[[[[[[[[[[[[[[[[[[[[[[[[[[[[[[[[[[",
"[[[[[[[[[[[[[[[[[[[[[[[[[[[[[[[[[[[[[[[[[[[[[[[[[[[[[[[[[[[[[[[[[[[[[[[[[[[[[[[["
};
