/* XPM */
static char *result[] = {
/* columns rows colors chars-per-pixel */
"80 80 220 2 ",
"   c #251D18",
".  c #2C231D",
"X  c #30251F",
"o  c #2E2520",
"O  c #312721",
"+  c #352A23",
"@  c #3A2C25",
"#  c #362D29",
"$  c #382F2A",
"%  c #3D312B",
"&  c #35333B",
"*  c #3D3A3C",
"=  c #3A373C",
"-  c #1D1713",
";  c #43352D",
":  c #49352E",
">  c #55322D",
",  c #413631",
"<  c #453933",
"1  c #4A3C35",
"2  c #4A3F39",
"3  c #403D3F",
"4  c #513D38",
"5  c #512E2E",
"6  c #66372E",
"7  c #702B29",
"8  c #4D413B",
"9  c #4F4037",
"0  c #53433B",
"q  c #5C443D",
"w  c #59483F",
"e  c #57483E",
"r  c #74453B",
"t  c #6B473F",
"y  c #393642",
"u  c #3C3945",
"i  c #3E3B49",
"p  c #413F43",
"a  c #413E4C",
"s  c #423F52",
"d  c #5D3A46",
"f  c #6B3C45",
"g  c #454244",
"h  c #4C4A4C",
"j  c #484446",
"k  c #524741",
"l  c #544943",
"z  c #5B4B43",
"x  c #594C49",
"c  c #5E5049",
"v  c #454254",
"b  c #4D4B53",
"n  c #474459",
"m  c #49465B",
"M  c #4C4A5E",
"N  c #4A4751",
"B  c #504E56",
"V  c #545255",
"C  c #595659",
"Z  c #634D45",
"A  c #6A4848",
"S  c #784B4C",
"D  c #64544B",
"F  c #6C554C",
"G  c #6A584F",
"H  c #645147",
"J  c #72534C",
"K  c #79564C",
"L  c #6A4A56",
"P  c #7B4854",
"I  c #6C5C53",
"U  c #655858",
"Y  c #725D53",
"T  c #7A5A55",
"R  c #6F6158",
"E  c #716057",
"W  c #73635A",
"Q  c #7C645B",
"!  c #79675D",
"~  c #4E4B63",
"^  c #504E64",
"/  c #514F68",
"(  c #535166",
")  c #55526A",
"_  c #59576E",
"`  c #5C5A6C",
"'  c #585660",
"]  c #5C5B72",
"[  c #4D5565",
"{  c #655C62",
"}  c #775764",
"|  c #615F75",
" . c #556D74",
".. c #58787A",
"X. c #556A6A",
"o. c #626163",
"O. c #6D6C6D",
"+. c #696565",
"@. c #7B6A62",
"#. c #786567",
"$. c #626176",
"%. c #646379",
"&. c #6A697D",
"*. c #756977",
"=. c #737273",
"-. c #7C7B7C",
";. c #767579",
":. c #7C726C",
">. c #8F3534",
",. c #A2423F",
"<. c #854D3F",
"1. c #85544D",
"2. c #834D5A",
"3. c #875858",
"4. c #935D55",
"5. c #915248",
"6. c #AD4E49",
"7. c #8A604D",
"8. c #85635A",
"9. c #9C635A",
"0. c #95665B",
"q. c #A1665D",
"w. c #8A5963",
"e. c #945B6B",
"r. c #915767",
"t. c #876C64",
"y. c #956E63",
"u. c #9C636D",
"i. c #9E6762",
"p. c #83736A",
"a. c #897268",
"s. c #9A756A",
"d. c #9C6375",
"f. c #8B7C74",
"g. c #987D75",
"h. c #8A6D74",
"j. c #A6766C",
"k. c #A26978",
"l. c #A97877",
"z. c #B26E67",
"x. c #C7756C",
"c. c #CB7C73",
"v. c #C17E75",
"b. c #C16D65",
"n. c #9C8076",
"m. c #A4857A",
"M. c #B6857A",
"N. c #C9857B",
"B. c #D2857B",
"V. c #D2887E",
"C. c #587C8F",
"Z. c #6E6D82",
"A. c #737385",
"S. c #78788B",
"D. c #7E7F92",
"F. c #706F85",
"G. c #877B86",
"H. c #906F80",
"J. c #A57184",
"K. c #A46D81",
"L. c #6D94A6",
"P. c #838283",
"I. c #858799",
"U. c #94858D",
"Y. c #B78883",
"T. c #A89B99",
"R. c #AE8D87",
"E. c #9798A9",
"W. c #8F93A5",
"Q. c #9EA2B2",
"!. c #A2A8B6",
"~. c #BAA5AC",
"^. c #ABA29E",
"/. c #CB8D82",
"(. c #D48D82",
"). c #C3958A",
"_. c #DA9287",
"`. c #D4958A",
"'. c #DD9A8E",
"]. c #D99589",
"[. c #C79C92",
"{. c #D89D94",
"}. c #D8A397",
"|. c #CDA498",
" X c #E2A195",
".X c #E4A699",
"XX c #E6AA9D",
"oX c #E9AC9E",
"OX c #D8AFA3",
"+X c #D4B6AD",
"@X c #C5A7A9",
"#X c #E7ADA1",
"$X c #ECB3A5",
"%X c #ECB5A9",
"&X c #EEBAAD",
"*X c #E2B4A8",
"=X c #F1BAAC",
"-X c #F1B7A8",
";X c #EFBDB0",
":X c #F0BEB2",
">X c #E09C91",
",X c #C7C0BC",
"<X c #F4C2B4",
"1X c #F8C6B7",
"2X c #F4C6B9",
"3X c #F7CABD",
"4X c #F9CBBD",
"5X c #CCC9C6",
"6X c #EBCCC3",
"7X c #F9CEC1",
"8X c #F5CEC3",
"9X c #FAD2C5",
"0X c #FAD5CA",
"qX c #F9D8CE",
"wX c #E6DDD8",
"eX c #FBDDD3",
"rX c #F5DFD7",
"tX c #FCE1D8",
"yX c #EBEAE7",
"uX c None",
/* pixels */
"uXuXuXuXuXuXuXuXuXuXuXuXuXuXuXuXuXuXuXuXuXuXuXuXuXuXuXuXuXuXuXuXuXF F F t.! uXuXuXuXuXuXuXuXuXuXuXuXuXuXuXuXuXuXuXuXuXuXuXuXuXuXuXuXuXuXuXuXuXuXuXuXuXuXuXuXuXuX",
"uXuXuXuXuXuXuXuXuXuXuXuXuXuXuXuXuXuXuXuXuXuXuXuXuXuXuXuXuXuXG Y Z G Y Y W Q F F K Y uXuXuXuXuXuXuXuXuXuXuXuXuXuXuXuXuXuXuXuXuXuXuXuXuXuXuXuXuXuXuXuXuXuXuXuXuXuX",
"uXuXuXuXuXuXuXuXuXuXuXuXuXuXuXuXuXuXuXuXuXuXuXuXuXuXuXuXuXD D @.H z p.@.Q G q G Q ! G p.W H H uXuXuXuXuXuXuXuXuXuXuXuXuXuXuXuXuXuXuXuXuXuXuXuXuXuXuXuXuXuXuXuXuX",
"uXuXuXuXuXuXuXuXuXuXuXuXuXuXuXuXuXuXuXuXuXuXuXuXuXuXuXuXR w w W R c z E W ! H w W U.Q W f.E Y J E t.uXuXuXuXuXuXuXuXuXuXuXuXuXuXuXuXuXuXuXuXuXuXuXuXuXuXuXuXuXuX",
"uXuXuXuXuXuXuXuXuXuXuXuXuXuXuXuXuXuXuXuXuXuXuXuXuXuXuXI I z w 0 w w @ D 9 D : D 0 ; G 0 H G p.E p.W @.uXuXuXuXuXuXuXuXuXuXuXuXuXuXuXuXuXuXuXuXuXuXuXuXuXuXuXuXuX",
"uXuXuXuXuXuXuXuXuXuXuXuXuXuXuXuXuXuXuXuXuXuXuXuXuXuXuXW E e : 1 : ; @ @ ; ; @ < : ; 9 < 1 9 e z z e G ! uXuXuXuXuXuXuXuXuXuXuXuXuXuXuXuXuXuXuXuXuXuXuXuXuXuXuXuX",
"uXuXuXuXuXuXuXuXuXuXuXuXuXuXuXuXuXuXuXuXuXuXuXuXuXuXE z e ; % % < ; @ X @ X X @ % % ; X @ ; @ < < 4 0 Z uXuXuXuXuXuXuXuXuXuXuXuXuXuXuXuXuXuXuXuXuXuXuXuXuXuXuXuX",
"uXuXuXuXuXuXuXuXuXuXuXuXuXuXuXuXuXuXuXuXuXuXuXuXuXD E 9 % @ X @ : K j.N.M.j.M.j.y.y.0.J 1 @ X O X @ X : uXuXuXuXuXuXuXuXuXuXuXuXuXuXuXuXuXuXuXuXuXuXuXuXuXuXuXuX",
"uXuXuXuXuXuXuXuXuXuXuXuXuXuXuXuXuXuXuXuXuXuXuXuXW W G e ; @ X q /.XXoX$X%X&X&X:X:X:X:X:X%X[.t.e @ X . uXuXuXuXuXuXuXuXuXuXuXuXuXuXuXuXuXuXuXuXuXuXuXuXuXuXuXuXuX",
"uXuXuXuXuXuXuXuXuXuXuXuXuXuXuXuXuXuXuXuXuXuXuXz G D < @ @ t z.(.XX$X&X&X:X2X8X7X9X9X9X8X4X4X4XqX+X< e n.W uXuXuXuXuXuXuXuXuXuXuXuXuXuXuXuXuXuXuXuXuXuXuXuXuXuXuX",
"uXuXuXuXuXuXuXuXuXuXuXuXuXuXuXuXuXuXuXuXuXuXuX1 9 < ; @ 4 z.B._.XX%X&X<X2X3X7X7X0X0X0X7X9X4X4XtXtXc G I W E uXuXuXuXuXuXuXuXuXuXuXuXuXuXuXuXuXuXuXuXuXuXuXuXuXuX",
"uXuXuXuXuXuXuXuXuXuXuXuXuXuXuXuXuXuXuXuXuXuXuX< @ @ @ 0 K q.B._..X%X&X&X:X2X3X7X7X7X0X9X9X9X4XqXtXn.e D G p.uXuXuXuXuXuXuXuXuXuXuXuXuXuXuXuXuXuXuXuXuXuXuXuXuXuX",
"uXuXuXuXuXuXuXuXuXuXuXuXuXuXuXuXuXuXuXuXuXuXuXuX9 e R R W 9.B._.}.$X&X=X<X2X2X3X7X7X8X7X7X7X4XqXtXT.G G D p.uXuXuXuXuXuXuXuXuXuXuXuXuXuXuXuXuXuXuXuXuXuXuXuXuXuX",
"uXuXuXuXuXuXuXuXuXuXuXuXuXuXuXuXuXuXuXuXuXuXuXuX0 D D :.t.9.c.(. X$X%X:X:X<X2X3X7X7X7X7X7X7X4X0XrXT.:.I R ! uXuXuXuXuXuXuXuXuXuXuXuXuXuXuXuXuXuXuXuXuXuXuXuXuXuX",
"uXuXuXuXuXuXuXuXuXuXuXuXuXuXuXuXuXuXuXuXuXuX; % ; 9 G p.R 0.B._.XX}.*X*X2X2XOX2X1X4X2X8X7X4X4XqXeXa.W @.:.! uXuXuXuXuXuXuXuXuXuXuXuXuXuXuXuXuXuXuXuXuXuXuXuXuXuX",
"uXuXuXuXuXuXuXuXuXuXuXuXuXuXuXuXuXuXuXuXuXuX@ ; 9 e R R W 0.c. XM.Z q 4 Q z Z <X1X4X8.a.l.g.m.8XqXD c I R R @.uXuXuXuXuXuXuXuXuXuXuXuXuXuXuXuXuXuXuXuXuXuXuXuXuX",
"uXuXuXuXuXuXuXuXuXuXuXuXuXuXuXuXuXuXuXuXuXuX+ + ; 9 e c W Q c.z.e.v.(.v.0.1.N.=X<X1Xj.A 1.0.q.T.3X9 e H c H D uXuXuXuXuXuXuXuXuXuXuXuXuXuXuXuXuXuXuXuXuXuXuXuXuX",
"uXuXuXuXuXuXuXuXuXuXuXuXuXuXuXuXuXuXuXuXuXuX@ @ @ : c F z y.x.B.B.c.h.#.T./.(.oX<X#Xc.j.g.T.].}.,X; e e e G E uXuXuXuXuXuXuXuXuXuXuXuXuXuXuXuXuXuXuXuXuXuXuXuXuX",
"uXuXuXuXuXuXuXuXuXuXuXuXuXuXuXuXuXuXuXuXuXuX@ @ @ 9 1 1 w 4.x.B.B.[.C.= L.{._.oX1X Xc.G.h C.+X=X+X@ 9 9 9 0 0 uXuXuXuXuXuXuXuXuXuXuXuXuXuXuXuXuXuXuXuXuXuXuXuXuX",
"uXuXuXuXuXuXuXuXuXuXuXuXuXuXuXuXuXuXuXuXuXuXuX+ @ @ ; 0 , 1.c.'.>X[.@XZ.@X#X.XoX8X6X'.[.I.~.1X4X3X9 ; 9 z z D uXuXuXuXuXuXuXuXuXuXuXuXuXuXuXuXuXuXuXuXuXuXuXuXuX",
"uXuXuXuXuXuXuXuXuXuXuXuXuXuXuXuXuXuXuXuXuXuXuX%     1.4.4 7.B. X#X%X%X$X$X$X-X$X2X0X:X1X4X4X4XqXtXR @ 1 1 < uXuXuXuXuXuXuXuXuXuXuXuXuXuXuXuXuXuXuXuXuXuXuXuXuXuX",
"uXuXuXuXuXuXuXuXuXuXuXuXuXuXuXuXuXuXuXuXuXuXuX1 .   8.S q 1.V.XX=X9X2X:X-X$X-X-X:X9X1X1X4X9XtXtXtXl q 0 , uXuXuXuXuXuXuXuXuXuXuXuXuXuXuXuXuXuXuXuXuXuXuXuXuXuXuX",
"uXuXuXuXuXuXuXuXuXuXuXuXuXuXuXuXuXuXuXuXuXuXuX< O . K j.H 1.B..X*X|.OX:X=X$X-X=X<X9X1X:X1X4XqXtXrX0 0.q ; uXuXuXuXuXuXuXuXuXuXuXuXuXuXuXuXuXuXuXuXuXuXuXuXuXuXuX",
"uXuXuXuXuXuXuXuXuXuXuXuXuXuXuXuXuXuXuXuXuXuXuXuX@ . z [.J F x.].T e T [. X].=X=X7XeX0X$X<X4X0XqXwX9 Y.1 uXuXuXuXuXuXuXuXuXuXuXuXuXuXuXuXuXuXuXuXuXuXuXuXuXuXuXuX",
"uXuXuXuXuXuXuXuXuXuXuXuXuXuXuXuXuXuXuXuXuXuXuXuX% @ o [.s.H b.K 1 y.1 D y.j.N.`.oX2X*X).&X<X4X9X6X4 }.O < uXuXuXuXuXuXuXuXuXuXuXuXuXuXuXuXuXuXuXuXuXuXuXuXuXuXuX",
"uXuXuXuXuXuXuXuXuXuXuXuXuXuXuXuXuXuXuXuXuXuXuXuXuX% X 4 s.0 z.5.F N.1 1 z D 0 e T s.8.|.=X<X1X4X+Xz Q O uXuXuXuXuXuXuXuXuXuXuXuXuXuXuXuXuXuXuXuXuXuXuXuXuXuXuXuX",
"uXuXuXuXuXuXuXuXuXuXuXuXuXuXuXuXuXuXuXuXuXuXuXuXl % O   . @ 9.1.J  Xt.+.c l 8 k z H I I G Q OX1Xn.% . < uXuXuXuXuXuXuXuXuXuXuXuXuXuXuXuXuXuXuXuXuXuXuXuXuXuXuXuX",
"uXuXuXuXuXuXuXuXuXuXuXuXuXuXuXuXuXuXuXuXuXuXuXuXj % o . . X H A z XX).T.5X5X,X^.R.:.V 9 w m.m.OXc @ # l uXuXuXuXuXuXuXuXuXuXuXuXuXuXuXuXuXuXuXuXuXuXuXuXuXuXuXuX",
"uXuXuXuXuXuXuXuXuXuXuXuXuXuXuXuXuXuXuXuXuXuXuXuX8 % # + o o 0 c z }. XS +.T.5XwXyXyXyXR.%X[.t.p.< * @ k uXuXuXuXuXuXuXuXuXuXuXuXuXuXuXuXuXuXuXuXuXuXuXuXuXuXuXuX",
"uXuXuXuXuXuXuXuXuXuXuXuXuXuXuXuXuXuXuXuXuXuXuXuXuXx $ % $ $ * e 0 Y.XX/.; 7 >.>.7 > r -X4Xn.D z % < l uXuXuXuXuXuXuXuXuXuXuXuXuXuXuXuXuXuXuXuXuXuXuXuXuXuXuXuXuX",
"uXuXuXuXuXuXuXuXuXuXuXuXuXuXuXuXuXuXuXuXuXuXuXuXuXl * < 8 % # % 1 I M.#Xc.5.6.6.6.5.(.1X<XD l 1 % % k uXuXuXuXuXuXuXuXuXuXuXuXuXuXuXuXuXuXuXuXuXuXuXuXuXuXuXuXuX",
"uXuXuXuXuXuXuXuXuXuXuXuXuXuXuXuXuXuXuXuXuXuXuXuXuXuXuX0 j 8 * @ , l z Y.#X].'.#X#X'.$X&Xf.9 < # g < c uXuXuXuXuXuXuXuXuXuXuXuXuXuXuXuXuXuXuXuXuXuXuXuXuXuXuXuXuX",
"uXuXuXuXuXuXuXuXuXuXuXuXuXuXuXuXuXuXuXuXuXuXuXuXuXuXuXuXuXuXk , # < l H ).#X].N./.XX<Xm.D < % < uXuXR uXuXuXuXuXuXuXuXuXuXuXuXuXuXuXuXuXuXuXuXuXuXuXuXuXuXuXuXuX",
"uXuXuXuXuXuXuXuXuXuXuXuXuXuXuXuXuXuXuXuXuXuXuXuXuXuXuXuXuXuXuXuX< % 2 2 G @.a.g.g.g.p.G l % < uXuXuXuXuXuXuXuXuXuXuXuXuXuXuXuXuXuXuXuXuXuXuXuXuXuXuXuXuXuXuXuXuX",
"uXuXuXuXuXuXuXuXuXuXuXuXuXuXuXuXuXuXuXuXuXuXuXuXuXuXuXuXuXuXuXuXuXZ < # k @.p.:.p.p.p.x % < uXuXuXuXuXuXuXuXuXuXuXuXuXuXuXuXuXuXuXuXuXuXuXuXuXuXuXuXuXuXuXuXuXuX",
"uXuXuXuXuXuXuXuXuXuXuXuXuXuXuXuXuXuXuXuXuXuXuXuXuXuXuXuXuXuXuXuXuXP } A < x W @.W U x , 8 uXuXuXuXuXuXuXuXuXuXuXuXuXuXuXuXuXuXuXuXuXuXuXuXuXuXuXuXuXuXuXuXuXuXuX",
"uXuXuXuXuXuXuXuXuXuXuXuXuXuXuXuXuXuXuXuXuXuXuXuXuXuXuXuXuXuXuXuXuXf e.K.w.2 2 2 8 2 1 Y ).uXuXuXuXuXuXuXuXuXuXuXuXuXuXuXuXuXuXuXuXuXuXuXuXuXuXuXuXuXuXuXuXuXuXuX",
"uXuXuXuXuXuXuXuXuXuXuXuXuXuXuXuXuXuXuXuXuXuXuXuXuXuXuXuXuXuXuXuXuX6 f 2.e.d.P f P w.R.).Y.uXuXuXuXuXuXuXuXuXuXuXuXuXuXuXuXuXuXuXuXuXuXuXuXuXuXuXuXuXuXuXuXuXuXuX",
"uXuXuXuXuXuXuXuXuXuXuXuXuXuXuXuXuXuXuXuXuXuXuXuXuXuXuXuXuXuXuXuXuXL P w.u.u.d.u.k.l.d.P e.uXuXuXuXuXuXuXuXuXuXuXuXuXuXuXuXuXuXuXuXuXuXuXuXuXuXuXuXuXuXuXuXuXuXuX",
"uXuXuXuXuXuXuXuXuXuXuXuXuXuXuXuXuXuXuXuXuXuXuXuXuXuXuXuXuXuXuXuX%.) L 2.r.e.r.e.w.P 2.} H.Z.G.uXuXuXuXuXuXuXuXuXuXuXuXuXuXuXuXuXuXuXuXuXuXuXuXuXuXuXuXuXuXuXuXuX",
"uXuXuXuXuXuXuXuXuXuXuXuXuXuXuXuXuXuXuXuXuXuXuXuXuXuXuXuXuXuXuX%.S.] ~ d P 2.f f 6 r.e.K.E.| | ~ uXuXuXuXuXuXuXuXuXuXuXuXuXuXuXuXuXuXuXuXuXuXuXuXuXuXuXuXuXuXuXuX",
"uXuXuXuXuXuXuXuXuXuXuXuXuXuXuXuXuXuXuXuXuXuXuXuXuXuXuXuXuXuX~ $.Z./ ) ~ *.} H.L.L d.d.J.E.| | ~ n uXuXuXuXuXuXuXuXuXuXuXuXuXuXuXuXuXuXuXuXuXuXuXuXuXuXuXuXuXuXuX",
"uXuXuXuXuXuXuXuXuXuXuXuXuXuXuXuXuXuXuXuXuXuXuXuXuXuXuXuXuXuX~ $.A.n ( ( I.E.Q.!.L d.K.J.E.S.%._ n b uXuXuXuXuXuXuXuXuXuXuXuXuXuXuXuXuXuXuXuXuXuXuXuXuXuXuXuXuXuX",
"uXuXuXuXuXuXuXuXuXuXuXuXuXuXuXuXuXuXuXuXuXuXuXuXuXuXuXuXuXi ( | S.g m ) O.L.Q.!.} d.d.K.U.| | / n a uXuXuXuXuXuXuXuXuXuXuXuXuXuXuXuXuXuXuXuXuXuXuXuXuXuXuXuXuXuX",
"uXuXuXuXuXuXuXuXuXuXuXuXuXuXuXuXuXuXuXuXuXuXuXuXuXuXuXuXuXi ) | F.& & n M ` W.E.} e.k.u.H.%.Z._ ~ v u uXuXuXuXuXuXuXuXuXuXuXuXuXuXuXuXuXuXuXuXuXuXuXuXuXuXuXuXuX",
"uXuXuXuXuXuXuXuXuXuXuXuXuXuXuXuXuXuXuXuXuXuXuXuXuXuXuXuXi i ) %.&.& & i m C %.I.L w.u.u.} _ Z.%.( n u a uXuXuXuXuXuXuXuXuXuXuXuXuXuXuXuXuXuXuXuXuXuXuXuXuXuXuXuX",
"uXuXuXuXuXuXuXuXuXuXuXuXuXuXuXuXuXuXuXuXuXuXuXuXuXuXuXuXi n ( $.uXuXu & i n m ] L 3.u.i.} _ uXZ.] m a u uXuXuXuXuXuXuXuXuXuXuXuXuXuXuXuXuXuXuXuXuXuXuXuXuXuXuXuX",
"uXuXuXuXuXuXuXuXuXuXuXuXuXuXuXuXuXuXuXuXuXuXuXuXuXuXuXi i m / Z.uXuXM = y i s ~ P 4.9.i.{ / uXuXZ.` ( s u uXuXuXuXuXuXuXuXuXuXuXuXuXuXuXuXuXuXuXuXuXuXuXuXuXuXuX",
"uXuXuXuXuXuXuXuXuXuXuXuXuXuXuXuXuXuXuXuXuXuXuXuXuXuXuXy a [ $.uXuXuXuXu & i n n A 0.i.i.{ uXuXuXD.D.Z.~ v uXuXuXuXuXuXuXuXuXuXuXuXuXuXuXuXuXuXuXuXuXuXuXuXuXuXuX",
"uXuXuXuXuXuXuXuXuXuXuXuXuXuXuXuXuXuXuXuXuXuXuXuXuXuXuXi ) F.S.uXuXuXuXN y i n s S t A x / uXuXuXD.A.) v V uXuXuXuXuXuXuXuXuXuXuXuXuXuXuXuXuXuXuXuXuXuXuXuXuXuXuX",
"uXuXuXuXuXuXuXuXuXuXuXuXuXuXuXuXuXuXuXuXuXuXuXuXuXuXuXb m &.D.G.uXuXuX' y i n a J S J L / uXuXuXA.` v b uXuXuXuXuXuXuXuXuXuXuXuXuXuXuXuXuXuXuXuXuXuXuXuXuXuXuXuX",
"uXuXuXuXuXuXuXuXuXuXuXuXuXuXuXuXuXuXuXuXuXuXuXuXuXuXuXC n n ] Z.Z.uXuXuXu a n m M m ) / / uXuX| _ v g C uXuXuXuXuXuXuXuXuXuXuXuXuXuXuXuXuXuXuXuXuXuXuXuXuXuXuXuX",
"uXuXuXuXuXuXuXuXuXuXuXuXuXuXuXuXuXuXuXuXuXuXuXuXuXuXuXuXV v v ^ ] _ uXuXb y s n M ~ m / / ] ] ~ s a j uXuXuXuXuXuXuXuXuXuXuXuXuXuXuXuXuXuXuXuXuXuXuXuXuXuXuXuXuX",
"uXuXuXuXuXuXuXuXuXuXuXuXuXuXuXuXuXuXuXuXuXuXuXuXuXuXuXuXuXB p i v ^ U.uX;.B ) ^ ~ ) [ / ) I.*.v y uXuXuXuXuXuXuXuXuXuXuXuXuXuXuXuXuXuXuXuXuXuXuXuXuXuXuXuXuXuXuX",
"uXuXuXuXuXuXuXuXuXuXuXuXuXuXuXuXuXuXuXuXuXuXuXuXuXuXuXuXuXuXuXg y v Y.<XA.&.D.) ^ )  .[ ` ] Y.uXuXuXuXuXuXuXuXuXuXuXuXuXuXuXuXuXuXuXuXuXuXuXuXuXuXuXuXuXuXuXuXuX",
"uXuXuXuXuXuXuXuXuXuXuXuXuXuXuXuXuXuXuXuXuXuXuXuXuXuXuXuXuXuXuXuXuXuX_.&X*.s n ^ ) _ C. .| $.J.uXuXuXuXuXuXuXuXuXuXuXuXuXuXuXuXuXuXuXuXuXuXuXuXuXuXuXuXuXuXuXuXuX",
"uXuXuXuXuXuXuXuXuXuXuXuXuXuXuXuXuXuXuXuXuXuXuXuXuXuXuXuXuXuXuXuXuXuX(.#X_ n ~ / _ | C... .%.h.{.uXuXuXuXuXuXuXuXuXuXuXuXuXuXuXuXuXuXuXuXuXuXuXuXuXuXuXuXuXuXuXuX",
"uXuXuXuXuXuXuXuXuXuXuXuXuXuXuXuXuXuXuXuXuXuXuXuXuXuXuXuXuXuXuXuXuX`.'.Y./ M ^ _ | &.O. .` &.*.`.uXuXuXuXuXuXuXuXuXuXuXuXuXuXuXuXuXuXuXuXuXuXuXuXuXuXuXuXuXuXuXuX",
"uXuXuXuXuXuXuXuXuXuXuXuXuXuXuXuXuXuXuXuXuXuXuXuXuXuXuXuXuXuXuXuXuXuX(.G./ ~ / _ | &.=.-.C F.&.uXuXuXuXuXuXuXuXuXuXuXuXuXuXuXuXuXuXuXuXuXuXuXuXuXuXuXuXuXuXuXuXuX",
"uXuXuXuXuXuXuXuXuXuXuXuXuXuXuXuXuXuXuXuXuXuXuXuXuXuXuXuXuXuXuXuXuXuXuXS./ ~ / _  .b U O.{ ` uXuXuXuXuXuXuXuXuXuXuXuXuXuXuXuXuXuXuXuXuXuXuXuXuXuXuXuXuXuXuXuXuXuX",
"uXuXuXuXuXuXuXuXuXuXuXuXuXuXuXuXuXuXuXuXuXuXuXuXuXuXuXuXuXuXuXuXuXuXuXuX_ ~ / ^ V * g C O.uXuXuXuXuXuXuXuXuXuXuXuXuXuXuXuXuXuXuXuXuXuXuXuXuXuXuXuXuXuXuXuXuXuXuX",
"uXuXuXuXuXuXuXuXuXuXuXuXuXuXuXuXuXuXuXuXuXuXuXuXuXuXuXuXuXuXuXuXuXuXuXuXuXp g O.=.* h o.=.uXuXuXuXuXuXuXuXuXuXuXuXuXuXuXuXuXuXuXuXuXuXuXuXuXuXuXuXuXuXuXuXuXuXuX",
"uXuXuXuXuXuXuXuXuXuXuXuXuXuXuXuXuXuXuXuXuXuXuXuXuXuXuXuXuXuXuXuXuXuXuXuXuXV O.;.uXg V o.-.uXuXuXuXuXuXuXuXuXuXuXuXuXuXuXuXuXuXuXuXuXuXuXuXuXuXuXuXuXuXuXuXuXuXuX",
"uXuXuXuXuXuXuXuXuXuXuXuXuXuXuXuXuXuXuXuXuXuXuXuXuXuXuXuXuXuXuXuXuXuXuXuXuXb =.=.uX* b o.uXuXuXuXuXuXuXuXuXuXuXuXuXuXuXuXuXuXuXuXuXuXuXuXuXuXuXuXuXuXuXuXuXuXuXuX",
"uXuXuXuXuXuXuXuXuXuXuXuXuXuXuXuXuXuXuXuXuXuXuXuXuXuXuXuXuXuXuXuXuXuXuXuXh C P.uXuX* V O.uXuXuXuXuXuXuXuXuXuXuXuXuXuXuXuXuXuXuXuXuXuXuXuXuXuXuXuXuXuXuXuXuXuXuXuX",
"uXuXuXuXuXuXuXuXuXuXuXuXuXuXuXuXuXuXuXuXuXuXuXuXuXuXuXuXuXuXuXuXuXuXuXuXh =.P.uXuXg C P.uXuXuXuXuXuXuXuXuXuXuXuXuXuXuXuXuXuXuXuXuXuXuXuXuXuXuXuXuXuXuXuXuXuXuXuX",
"uXuXuXuXuXuXuXuXuXuXuXuXuXuXuXuXuXuXuXuXuXuXuXuXuXuXuXuXuXuXuXuXuXuXuXuXh P.uXuXuXj o.uXuXuXuXuXuXuXuXuXuXuXuXuXuXuXuXuXuXuXuXuXuXuXuXuXuXuXuXuXuXuXuXuXuXuXuXuX",
"uXuXuXuXuXuXuXuXuXuXuXuXuXuXuXuXuXuXuXuXuXuXuXuXuXuXuXuXuXuXuXuXuXuXuXuXC P.uXuXuXh O.uXuXuXuXuXuXuXuXuXuXuXuXuXuXuXuXuXuXuXuXuXuXuXuXuXuXuXuXuXuXuXuXuXuXuXuXuX",
"uXuXuXuXuXuXuXuXuXuXuXuXuXuXuXuXuXuXuXuXuXuXuXuXuXuXuXuXuXuXuXuXuXuXuXj +.-.uXuX* b =.uXuXuXuXuXuXuXuXuXuXuXuXuXuXuXuXuXuXuXuXuXuXuXuXuXuXuXuXuXuXuXuXuXuXuXuXuX",
"uXuXuXuXuXuXuXuXuXuXuXuXuXuXuXuXuXuXuXuXuXuXuXuXuXuXuXuXuXuXuXuXuXuXuXg -.=.uXuX8 V uXuXuXuXuXuXuXuXuXuXuXuXuXuXuXuXuXuXuXuXuXuXuXuXuXuXuXuXuXuXuXuXuXuXuXuXuXuX",
"uXuXuXuXuXuXuXuXuXuXuXuXuXuXuXuXuXuXuXuXuXuXuXuXuXuXuXuXuXuXuXuXuXuXuXg S.uXuXuX3 o.uXuXuXuXuXuXuXuXuXuXuXuXuXuXuXuXuXuXuXuXuXuXuXuXuXuXuXuXuXuXuXuXuXuXuXuXuXuX",
"uXuXuXuXuXuXuXuXuXuXuXuXuXuXuXuXuXuXuXuXuXuXuXuXuXuXuXuXuXuXuXuXuXuXuXj -.uXuXuXp +.uXuXuXuXuXuXuXuXuXuXuXuXuXuXuXuXuXuXuXuXuXuXuXuXuXuXuXuXuXuXuXuXuXuXuXuXuXuX",
"uXuXuXuXuXuXuXuXuXuXuXuXuXuXuXuXuXuXuXuXuXuXuXuXuXuXuXuXuXuXuXuXuXuXuXV =.uXuXuX8 ;.uXuXuXuXuXuXuXuXuXuXuXuXuXuXuXuXuXuXuXuXuXuXuXuXuXuXuXuXuXuXuXuXuXuXuXuXuXuX",
"uXuXuXuXuXuXuXuXuXuXuXuXuXuXuXuXuXuXuXuXuXuXuXuXuXuXuXuXuXuXuXuXuXuXuXo.O.uXuXuXu uXuXuXuXuXuXuXuXuXuXuXuXuXuXuXuXuXuXuXuXuXuXuXuXuXuXuXuXuXuXuXuXuXuXuXuXuXuXuX",
"uXuXuXuXuXuXuXuXuXuXuXuXuXuXuXuXuXuXuXuXuXuXuXuXuXuXuXuXuXuXuXuXuXuXZ.W.!.uXuX&.A.E.uXuXuXuXuXuXuXuXuXuXuXuXuXuXuXuXuXuXuXuXuXuXuXuXuXuXuXuXuXuXuXuXuXuXuXuXuXuX",
"uXuXuXuXuXuXuXuXuXuXuXuXuXuXuXuXuXuXuXuXuXuXuXuXuXuXuXuXuXuXuXuXuXuXuX .uXuXuXuXX.uXuXuXuXuXuXuXuXuXuXuXuXuXuXuXuXuXuXuXuXuXuXuXuXuXuXuXuXuXuXuXuXuXuXuXuXuXuXuX",
"uXuXuXuXuXuXuXuXuXuXuXuXuXuXuXuXuXuXuXuXuXuXuXuXuXuXuXuXuXuXuXuXuXuXuXR uXuXuXuXX.uXuXuXuXuXuXuXuXuXuXuXuXuXuXuXuXuXuXuXuXuXuXuXuXuXuXuXuXuXuXuXuXuXuXuXuXuXuXuX",
"uXuXuXuXuXuXuXuXuXuXuXuXuXuXuXuXuXuXuXuXuXuXuXuXuXuXuXuXuXuXuXuXuXuX6 r uXuXuX<.r 6 uXuXuXuXuXuXuXuXuXuXuXuXuXuXuXuXuXuXuXuXuXuXuXuXuXuXuXuXuXuXuXuXuXuXuXuXuXuX",
"uXuXuXuXuXuXuXuXuXuXuXuXuXuXuXuXuXuXuXuXuXuXuXuXuXuXuXuXuXuXuXuXuX6 9.7.uXuXuXn.r 6 5.0.j.uXuXuXuXuXuXuXuXuXuXuXuXuXuXuXuXuXuXuXuXuXuXuXuXuXuXuXuXuXuXuXuXuXuXuX",
"uXuXuXuXuXuXuXuXuXuXuXuXuXuXuXuXuXuXuXuXuXuXuXuXuXuXuXuXuXuXuXuXuXy.7.q.uXuXuXuXuXF 7.0.uXuXuXuXuXuXuXuXuXuXuXuXuXuXuXuXuXuXuXuXuXuXuXuXuXuXuXuXuXuXuXuXuXuXuXuX"
};
