/* XPM */
static char *result[] = {
/* columns rows colors chars-per-pixel */
"80 80 129 2 ",
"   c #190A07",
".  c #1D0D0B",
"X  c #220E0B",
"o  c #25110E",
"O  c #2B130F",
"+  c #3A170F",
"@  c #261412",
"#  c #2C1612",
"$  c #2D1915",
"%  c #2E1C19",
"&  c #311712",
"*  c #341A15",
"=  c #3B1C16",
"-  c #341D19",
";  c #3B1E19",
":  c #35201C",
">  c #3D211C",
",  c #372420",
"<  c #3D2421",
"1  c #421D15",
"2  c #411F19",
"3  c #422017",
"4  c #4D2117",
"5  c #43231C",
"6  c #4B241C",
"7  c #52261C",
"8  c #54291E",
"9  c #5A291E",
"0  c #652D1E",
"q  c #6A2E1E",
"w  c #742F1B",
"e  c #6D311E",
"r  c #74311E",
"t  c #442621",
"y  c #4A2621",
"u  c #452923",
"i  c #4C2A23",
"p  c #472E28",
"a  c #4C2D29",
"s  c #522720",
"d  c #522B24",
"f  c #5B2D24",
"g  c #532E29",
"h  c #5B2E29",
"j  c #4E322A",
"k  c #563126",
"l  c #5C3126",
"z  c #55312B",
"x  c #5D332B",
"c  c #5D392E",
"v  c #553431",
"b  c #5C3531",
"n  c #5E3A34",
"m  c #632E23",
"M  c #6B2E21",
"N  c #612F29",
"B  c #722F21",
"V  c #643126",
"C  c #6C3225",
"Z  c #63342C",
"A  c #6B352B",
"S  c #65382F",
"D  c #6C392E",
"F  c #743425",
"G  c #7A3525",
"H  c #753826",
"J  c #7C3926",
"K  c #74362A",
"L  c #793729",
"P  c #753A2D",
"I  c #7B3A2C",
"U  c #633631",
"Y  c #6A3631",
"T  c #643A33",
"R  c #6C3A33",
"E  c #633C38",
"W  c #6E3E39",
"Q  c #713730",
"!  c #743C33",
"~  c #7B3E32",
"^  c #733E38",
"/  c #793F38",
"(  c #6E4137",
")  c #6E413C",
"_  c #6F483C",
"`  c #744136",
"'  c #7C4135",
"]  c #74423B",
"[  c #7B433B",
"{  c #7E493E",
"}  c #6E4441",
"|  c #754641",
" . c #794741",
".. c #774945",
"X. c #7C4A45",
"o. c #7C4D49",
"O. c #7F514C",
"+. c #813725",
"@. c #823A26",
"#. c #893D26",
"$. c #833D2C",
"%. c #883E2C",
"&. c #813E31",
"*. c #85402E",
"=. c #89412D",
"-. c #844334",
";. c #894535",
":. c #8D4937",
">. c #83463A",
",. c #894739",
"<. c #85493D",
"1. c #8B4A3C",
"2. c #934D3D",
"3. c #97513F",
"4. c #99503F",
"5. c #844B43",
"6. c #8B4E43",
"7. c #824F49",
"8. c #914E41",
"9. c #875047",
"0. c #8D5146",
"q. c #83514B",
"w. c #8C524A",
"e. c #945244",
"r. c #985445",
"t. c #92554A",
"y. c #995749",
"u. c #93584E",
"i. c #925951",
/* pixels */
"> 5 t t t y a y t t y y i y @ v g b v v v b b U b b b b b b b - z U U U U b U T ] Y U Y Z U Y Z i u T T U U U b U U N b b b b h v b % N N M N N f h s s s s s y ",
"5.6.5. .5.6.6.6.6.w.6.6.6.5.$ o.X.X...o.X. . .X.X.X.X.X. . .| < U / /  ./ / / / [ [ ^ ' / >.~ ~ b i ^ ^ ^ ^ Q / ^ Q ^ ^ Q Q Q ^ Y W % Q I L &.&.$.$.+.L &.Q Q +.",
"9.w.7.5.t.5.t.w.w.w.6.6.9.5.* ..o.X.X.o.X. .X.7.7.X.X.7. .| | < b / / / [ [ [ / / / /  ./ [ ! ` n u ^ ^ ^ ^ / Y ^ Y Y Y ^ Q Q ^ Q ^ * Q L &.~ &.&.&.&.L +.+.L Q ",
"9.9.w.w.6.w.9.9.w.6.t.t.0.5.$ o.o.o.7.o.o.X.7.X.X.X. .7.|  .| , E / / / / &./ 5.[ &./ &.-.>./ >.T y W ^ W W ^ ^ ^ Q ^ ^ Q Q ^ Q Q | : Q ~ $.&.+.&.&.L &.&.Q +.&.",
"w.i.u.7.w.w.u.t.w.t.t.t.t.5.# ..X.| ......| ] | | | | |  . .W , n ! R ! ^ ^ ^ Q ^ ! R / ! ! ! / b u U T T Y U Y Y Y U Y Y Y Y Y N Y , Q Q L Q Q L Q Q &.L L +.L ",
"a g g d 6 i i d s i g d i y @ t 5 ; ; - ; - * : > ; 2 2 2 < 5 & ; = * - - = ; * & ; ; ; ; ; 2 ; - - ; * ; ; ; ; ; @ * ; - = * * * * - 2 1 = 1 2 2 2 ; ; 2 2 2 4 ",
"g g g g g # b U Z U T c T W T U U S S U T T @ T ^ ^ ^ Q ^ Q ! Q / R ! ! ! ! ! h t T W Y ! W W R R ^ ^ ^ ^ ^ W ^ W < b Y Y Y Y Y Y Y Y Y U Y U U N N g t N N s s ",
"5.5.5.w.5.- 7.9.5.6.9.5.5.6.6.0.5.<.6.5.6.<.@ _ 6.5.6.8.6.5.6.1.1.<.1.>.>.>.>.h < ` ` ^ ^ [ / / [ [ [ [ [ [ [ / Q < U ^ / / / / / / / / ! Q / Q Q ^ h t Q B L L ",
"9.9.i.i.w.% X.5.7.6.6.7.5.5.w.5.9.6.6.0.6.5.. [ 6.<.1.5.5.1.<.<.<.` <.1.1.>.` x > ` ] W ] [ [ ] [ ^ { [ [  .{ / ^ - U ^ / / / / / Q / / Q ! / / / Q h t B L L L ",
"w.i.i.w.w.% <.9.w.w.5.5.w.<.6.9.5.0.w.t.9.<.. [ 5.5.0.6.5.<.>.>.<.<.<.6.1.>.>.k ; ^ [ W [ ` ] [ ^ [ [ [ / [ ` / ^ < U Q Q Q / Q ! ^ ! ! / Q Q / Q Q h a Q L G G ",
"i.w.w.w.i.% 9.{ 7.5.7.5.5.{ 5.X.X.{ 5.[ [ [   ] [ ! [ ` ` R R D Y D D D R D V 5 ; x x x x Z l x h x h x x x l h h - a h h g h h h h h h N N h N N Y y a Q B A Q ",
"> > 5 > > . * * * * = ; ; ; & > t 5 5 5 5 5 : 5 t 3 5 5 > 3 > ; * 5 3 > 3 3 > > t t ; ; > 5 ; ; - # > > 5 ; > > > ; 2 ; * ; ; - = & # - * & & & * * & * = * * * ",
"( ` ` [ ` ` { [ [ ` { [ <.[ $ T [ [ ` [ [ [ [ [ [ >.[ [ [ ` ` c t ' ~ ' ' ' ' ' / -.~ ' ' ' ' ~ ` u ` / / ! P ! Q ~ ~ ~ Q ! Q ^ Q A y b Q Y Q Q Q Q Q K A C A B ",
"0.u.0.t.t.r.t.t.0.r.t.r.e.6.; R 6.<.<.5.<.1.<.<.<.6.1.<.1.1.<.Z y >.>.>.1.:.>.-.<.>.>.1.1.1.,.;.<.$ ( ` ' ' ` ' / / / / / / Q ~ ~ Q y h +.L L ~ L L ~ +.&.L L ~ ",
"0.t.t.t.9.t.0.0.0.t.0.t.e.6.; ^ 6.5.5.5.>.<.<.{ <.1.<.<.6.0.5.Z i >.<.>.;.1.-.;.;.-.1.,.2.,.,.>.[ $ [ ` [ / [ / [ &.&. .>./ &./ / ~ y b Q &./ L L &.L &.L L L I ",
"0.t.t.t.0.e.0.0.e.r.r.r.y.6.* W 5.6.0.0.<.1.<.0.w.9.0.<.<.0.1.c i 1.>.1.1.<.<.<.>.1.1.1.1.8.1.,.-.:  .[ [ ~ >.[ / [ / >./ Q ! / / Q 2 h L &.&.&.&.&.L &.&.L &.P ",
"0.0.t.0.0.0.0.0.0.2.0.0.1.[ $ c [ [ ` { [ ` ` ` / ^ ` / / / ! y t P R ! R R ! Q D ! / ~ ~ ` ~ / D @ j l Z U Z Z Z x N h Z N h N N d X g C N N N M N m N C N M C ",
"X X o o X X o o O O @ O O @ $ : 5 - - : - - # > 5 2 y 5 5 5 6 y y i i y i y t % $ y 5 i i y 6 5 6 p T _ g d y 6 y * < 6 t 5 6 5 5 6 y g s 2 5 2 2 2 & X * & * & ",
"X.X.....n z <.9.5.X.X.5._ ] ] ] ] ) ] ) | n > [ <.<.<.6.<.<.' ,.<.1.1.>.<.>.&.t z / / ! / -.&./ &.~ ' ' ~ &.&.~ ~ < n ~ P ~ ~ P Q P P I P ~ P L L K K y K A K K ",
"O.o.O.O.n i 9.9.9.w.9.X. . .X. ...| ..| | E @ >.6.6.6.6.0.6.0.<.1.0.8.8.8.1.5.5 t ` <.[ <.<.&./ >.>.>.-.>.-.>.>.-.> z / ! / &.~ ~ &.I ~ &.&.&.~ &.&.A : P K K L ",
"O.O.o.O.n z X.7.5.q.7. . .X.X.| | X. ...| n $ 5.5.6.8.6.6.e.6.6.0.6.8.6.1.6.>.5 > / { <.<.<.' >.>.>.>.>.-.>.>.&.[ & b ! / / &.&.~ ~ ~ &.&.&.~ &.I I C - Q K L L ",
"O.O.O.O.v z q.5.5.q.9.q.X.7.7.o.X.7.o.o.o.n # >.6.6.6.6.0.6.6.0.e.6.6.1.6.1.1.; > <.[ <.>.>.<.>.>.>.-.>.-.-.-.-.~ ; b ^ ! ~ &./ &.~ I &.~ &.$.&.I &.A < K K K L ",
"} } ) n p i R E W S E T E T T T T n b T U a @ U c S Y T T S U Z h S S h Z Z x * - S h Z Z Z h N h h m V d h f d d * t d s d s s s 8 s s f 7 f 9 s s 2 ; g s f f ",
"* - * * - - : = * : - - - = @ - > > t ; t < t t t < 5 5 t 5 t - ; i y y i i a i i b y i i i i d g : d d d g i 8 i i y a y y y t t t - i 7 2 2 6 6 2 2 2 = = & * ",
"..................O.o.....| $ W { ]  .5.5./ [ [ ` [ [ [ { { { g v <.>.[ <.<.{ [ [ <.<.[ >.>.[ / { < ' -.' ` ` ! ~ ~ P ~ ! ! ! ! Q ! - R ~ P ~ I P L P Q L K P L ",
"..O.O.O.O.o.o.o.o.o.o.o.o...@ ^ 5.5.5.5.7.5.5.5.5.5.5. .<.5.{ i g <.<.<.5.6.5.<.[ { <.{ <.<.5.>.5.> ~ ' -.' -.' ~ ! ! ~ ! / ~ Y ! R * ! I &.~ &.&.&.I &.I ~ I L ",
"....O.O.o...o...o.o.o...o...@ ] 5.5.9.9.5.5.6. .5.{ [  .5.{ <.a g 5.<.6.6.<.1.<.<.<.<.<.[ 5.[ >.5.> ~ -.-.>.' ~ ~ / ~ ' ~ ! ~ ! ! R * ! ~ &.&.&.&.~ P L I Q ~ ~ ",
"o.o.O.o...o.o.o.o.o.7.7.o...$ ] X.5.5.5.9.5.5.5.5.<.<.<.{ <.5.t z 5.5.5.6.5.5.5.<.<.{ 5.<.5.>.>. .> / -.>.' >.' ! ~ ' ` ~ / ! / ! ! - ! ~ ~ ~ ~ / ~ ~ P I I P ~ ",
"v n b v v v b g z v b z v g @ y g g d g g d i i s g i i s a i * > i i y y 5 y y 5 5 y 5 5 6 6 5 5 $ > = = = ; = * * = = = * = ; ; - X ; ; 1 2 2 2 2 2 2 5 > 3 3 ",
"< , t < # ; y y y y s i i y i d h s 8 i s i # h k k f l l l Z V x R Z V Z N l > i k Z V S S Z x l Z V V l k l l f p Z m V V V V A N N f f f f h N f 2 a i 8 8 s ",
".. .|  .y d 5.,.1.1.1.1.,.1.1.1.1.,.1.1.1.[ & -.;.1.;.1.:.:.:.:.:.2.;.1.:.2.2.i Z -.-.1.:.2.:.;.;.-.;.-.;.-.-.-.I a ~ $.$.;.-.$.%.&.&.I $.%.&.%.%.L s b I I P H ",
"7.5.5.5.t i 8.,.8.8.8.8.8.1.8.2.8.r.2.2.2.[ & ;.1.1.1.2.2.2.1.2.:.3.2.2.2.1.1.i c ;.:.:.1.<.:.:.-.<.:.<.;.-.;.;.P > ~ &.%.%.;.;.&.%.&.%.&.&.&.%.&.I s h I I J J ",
"5.7.5.5.; s 6.8.e.6.e.1.8.4.8.2.8.2.e.2.2.>.& ,.1.1.2.2.2.4.2.2.e.2.2.8.4.2.2.s Z ,.1.>.2.1.,.:.;.1.,.;.;.;.;.>.! u I -.;.-.;.;.&.;.$.$.$.&.&.&.$.$.y f I I J J ",
"5.5.5.5.> g 8.1.e.r.e.e.8.r.r.r.r.e.e.8.1.` * ,.2.2.:.2.2.2.r.r.4.4.2.,.2.2.:.d Z 1.1.2.1.,.1.,.,.,.;.;.>.;.;.-.I 5 P *.*.*.*.-.-.$.&.$.-.%.%.&.&.$.6 f P J J I ",
"g g g k # ; 6 6 6 6 s 6 6 d s i 6 s 8 i 6 2 # 5 = 2 2 2 2 2 ; ; = 3 ; 3 3 2 1 * - ; ; ; ; & & - = & * ; = ; = * * $ - * & & O & O # # # @ & & # # # @ # & # O O ",
"x U S Y U T ` S S S Z S D D - c T U T Y U U T [ ` Y D U D Y R y t E U b T U U T T ^ U U U T R T U < E b x x Z h c U W Z l l l Z S Z > E x Z b N Z U h U R h h h ",
"5.8.6.8.6.1.1.6.1.1.6.6.1.1.> W <.>.<.<.<.<.6.1.>.<.<.>.1.1.<.h < | ] / ] [ [ [ / ] ] [ | / / | ^ < W R ^ ^ R ! R K Q ! ! ! K D ! K * E ! Q Y D Q Q Q Q Q Q Q Q ",
"5.6.8.6.6.6.e.e.8.e.e.e.e.0.3 Y <.{ { <.5.<.<.<.5.6.5.1.5.1.6.d < / ] [ { [ | X.{  .| [ / [ [ [ ^ : W ! Q T ! ! ! R ! Y ! P D Q K P & W Y Y Q ! Q Q K Q Q Y Q Q ",
"6.6.5.w.6.6.6.8.6.1.6.6.0.2.: R <.5.5.<.6.0.<.6.<.6.6.<.<.6.5.k ; ^ [ | [ | { ]  .] [ [ [ [ ` [ Q : ^ ^ ! ! Y Y R ! Y D K P ! P ! P = E ! Q ! / ! ! Q P ! Q Q Q ",
"6.6.6.6.6.5.e.e.6.e.6.e.0.1.= R 5.<.5.<.5.5.5.6.6.5.<.6.6.5.<.g < ] ] ^ ] ] ] / ] ] ] ] ` ^ W ` W - W T U D Y D A D S Y Y D A D Y K & R Y Y Y R ! Y Y Y A A A U ",
"t t y i t t i g g s g g d y o > y 6 t 5 5 5 5 t 6 y 5 6 6 u 5 - $ t t t 5 6 5 : > u 5 t 5 > > 5 > $ : > ; ; ; ; ; - > > 3 3 5 5 ; 2 # > > ; ; 2 > : O $ $ * * * ",
"W ] ` ( > z R Y Y D Y ( ` ` ! D ! / ` ! ` U p / R ! [ ` ` ` P P Q ! ! ! ` P D z T ` ! D P D D S D D R ` R R D Z l g P H K H P K H H C K P A K C K C 6 ( l V V A ",
"[ >.<.>.; i >.[ [ >.' >.{ >.[ -.>.>.>.-.>.R * -.;.;.;.:.-.:.-.-.;.-.;.;.;.;.-.5 d >.' -.' ' ! I ! ~ / ~ / ~ ~ Q R 5 I %.=.=.;.*.=.%.%.%.%.@.$.%.$.@.3 D K P F P ",
"[ >.<.[ ; s >.` >.<.[ <.<.1.>.<.1.<.1.1.>.D * ;.;.1.1.:.;.:.:.;.;.;.;.;.:.;.-.3 d -.[ ' [ ' ' ` ! ~ I ! ! ! P ! Y y -.*.=.=.=.;.$.=.$.$.@.%.%.%.@.' 1 ( C P P F ",
"5.{ >.[ ; s <./ ` >.-.<.1.>.>.>.1.,.<.<.>.D * 1.1.,.1.1.,.:.,.,.;.;.:.:.:.:.;.3 g ;.-.' [ ' ' P ~ ` P ! ! ~ ! / D u $.-.=.%.;.%.%.#.$.$.@.$.@.@.#.J > D K P P P ",
"<.>.[ [ - s ! / ! [ { >.<.<.<.<.<.<.1.<.<.V * -.;.;.:.1.,.1.;.;.,.;.:.1.1.;.-.3 x ` ' ' ` ' ! / ! ! ! P R Q ! D Z 5 -.*.=.;.-.$.:.*.I $.I @.*.' J I + D F P K P ",
"& & * * o $ p = & * = * & - * ; = = = ; = # o y > ; ; - ; = ; * * = = = = = * O # 5 ; : > > > > - - - : - - ; ; ; - 3 3 3 5 3 > 5 : & = = = * * * : $ > > - * * ",
"T D D D R ! ` ` D R ! R D x % T T T U S T T T ( T Z S T Y Y c - Y R R P ! ` D A D ` ! D P D P A 5 z A A D D D Z D S A Z Z Z Z Z x T v 0 C C H 0 e C C C A C A D ",
";.>.-.-.,.,.>.~ ;.,.;.-.` D @ Y ' [ / ~ >./ / ! / / / / ! ' ! ; ` -.' -.;.-.-.*.-.*.*.' ' -.*.' 6 d P I ~ ~ P ~ P P P ! K K ! K ! D t F +.J I G @.+.G J G G @.G ",
">.-.<.>.[ 1.-.[ >.1.2.>.-.D @ R >.[ ' [ >.>.>.>./ ~ / [ [ ' ! ; ` ;.;.;.:.-.-.-.' ' *.-.*.*.*.I 6 k ~ &.~ ! ~ ~ P ! P ! ! ! R P P ! 5 G #.@.@.@.@.G @.@.J G G +.",
"<.-.' ;.>.-.' -.,.1.1.' -.! @ U / -.>./ >.! [ >.' ` ' ! ` ` P > ` -.;.;.;.;.-.-.-.-.;.-.-.-.*.' i f ~ I I ~ ! I I P ~ ~ P ! K K P P 6 J @.@.@.I +.@.@.$.@.@.J @.",
">.;.<.[ [ ! [ / ;.<.1.-.' ! @ T >.` [ { [ >.<.[ ` -.! ! ! ` Y : ' -.-.>.>.;.>.;.-.-.-.-.-.-.*.' i f ' ' ' ~ ~ ~ ! ! ! P ! Y A R D S u @.@.@.@.J @.L @.+.J +.J G ",
"< : : - o . % # @ # % $ $ % % $ < : : : $ : o @ * # * # # $ : : 6 > : * * - * $ O $ O * O # O O # - 5 $ # O $ O @ . . o @ # @ % $ > , > - : - - - : o O : O $ $ ",
"[ ' ' [ > a | } ) W W W W R W R R W ` W ( S : ' I -.' *.' ' *.' ' *.' *.*.-.-.- c [ ` ` ` ` [ ' ` -.[ -.-.[ ' [ ! c <.-.&.$.I I J *.$.=.@.@.J @.J H > ' H r G H ",
"1.1.<.>.5 t ] ] W W W W W W W ` ] ] ] ` ` T $ I -.-.;.;.=.*.-.=.*.*.;.;.;.;.-.* z ! P P P ~ ~ P I P $.I $.*.$.$.K u *.$.$.@.@.%.#.%.=.@.=.#.#.#.@.r = ` G G H G ",
"1.>.>.>.; < ] W / | ^ W ^ | ^ | ] | [ ] [ T O ` -.-.=.-.;.;.;.-.;.;.-.;.;.;.' * c ! ! ! ! ' ~ ~ I -.-.-.I -.$.I H 3 I $.$.%.@.%.#.#.#.=.=.#.@.#.@.+.1 D H J G J ",
">.<.[ >.> < ] ` ] ] ^ ) ] ] ] ] [ ] [ [ ` b $ I *.*.*.=.*.*.;.=.-.;.=.;.*.;.' > x ! ! / ! ' I I I ' *.' ' -.I $.C < ' #.*.%.%.$.*.#.#.*.%.#.@.#.@.G > C G G J G ",
"Z D S S = - T E T E T U U b U b x Z c Z U k $ C ' e ` ` ` H ` ` H ` ' H ` H H + k A S V A A D C A D K K H K K P V - C C F H r C C e 0 C 0 0 0 0 0 9 & f V V m e ",
"- - * * $ % 5 > - ; - * * % % - : > - : - - < > < = = = > > : : > : : : : - : : : p : : : : ; : O : - - - = > 3 = - < u : > : : > % : = > - - - * * > > 5 ; = ; ",
"~ Q K ! ! ! P ` / [ / / R a T ~ ' ` I P ~ ! ' P ( ' ' ' ' ' Z l ' H J H H D H H I P H H I -.I ` $ -.H K H C C P C C A H H P I I H 8 T F G J C F F G K K F C F G ",
"! ! ! ~ ' ~ ! ~ >.<.' ! R t g ~ ' ' J I -.' ' *.@.' @.' ' J 0 6 I *.I I I I ' J r ' J *.J *.r ' o ' r *.G F L P H L G F J G I J F 8 y G J G F F J I F G F L L I ",
"~ ! ! ' ! ! Y ! [ <.-.~ ! t g &.' ' I ' ;.-.H ` ( =.*.*.@.' l 5 *.-.I I J *.*.' ' ' J ' ' *.' r . ' J J G H J J I L K L P J K $.H 4 6 H J G F F J I P J J F L G ",
"' / ~ ~ / ! ! / -.<.>.' ! 5 x ' -.' ' ' [ -.-.' *.' ' *.*.' V 5 I I *.P P I J I I I ' H @.J H ' . ' J J F F F F I K G F L F J J J 8 5 G L G G F F L L P G L J J ",
"s i d f s d d f g f h f h * 5 h Z V V Z A V D V V V V e V C k : C D A V A A D A V C 0 m m m 0 l . c 0 0 0 m V N m m 9 f 8 f 8 8 7 = - 6 4 6 6 6 6 8 2 2 ; 6 = 3 ",
"c g a y - u g a g g g i 5 y u y g i i u 6 : $ u u u p a i 6 u i d 8 i k i p 6 : > 6 5 p u 6 u 5 u k c i k i k p 5 < p 6 p k k 6 d k 6 c d 8 i 8 8 5 : k u k i 6 ",
"' ~ P A ; a P P ~ P K P P I P P ' -.*.` P a > D H ' I K I I ' ` P H -.-.J ' ` * c H H ' I J H ' ' H J ' *.' J J V k ` J J J J J J H G C H I J H F r : A C e e F ",
"-.' P I > > ' I ' P I P -.$.P I -.:.-.' I a # K $.*.I P I I J I J $.;.-.' J I # 8 J ' r J H r *.J J J J =.r J r V : C G J J r J J I G G J @.@.J G F $ C r r H G ",
"[ ~ ~ P = 5 I ~ ~ ~ ! ~ [ ' P ! -.;.' I P 7 O F I I I H J ' I J P I -.*.J G H O 9 *.r *.r J =.J J G H *.=.*.' r 0 > F G J r J H J I G G G *.@.G G G O q r r r r ",
"-.~ P P = 5 I ' ! ~ ~ -.-.~ ~ ! -.;.' I I 7 O C J I J J I *.I I J ' ;.*.I J F # 8 J =.r ' @.J @.J J J #.=.*.r J q : r F J G G @.J J r G J @.@.G G w & q w B r F ",
"; ; 1 1 O $ b 3 ; 2 ; ; 3 2 1 1 3 5 6 7 6 $ X k f 9 f 9 8 7 6 6 7 6 8 7 8 8 ; X 6 9 9 8 7 7 8 4 4 5 4 6 8 7 4 7 * $ i 4 4 4 4 1 1 1 3 : * = + 1 1 + o 1 1 1 1 + ",
"/ ! ! R R D { [ T Y Z Z Z # z R A S V Y Z x ( { ( l c l l l > i l V x Z k l d l ( ( 8 l 0 k l k @ c k l Z l V l Z Z ` Z l l h Z x : n l D V V l N 9 m A M m M M ",
"A C I P P A P K L P I K P * 6 I I P J J J J J P J J G G ' J 6 5 H @.J G G G J G e r r =.J r e e . A G H H F H H F F H F K G F B e > 6 r G F w q r G F B B B G +.",
"K K K I ~ P P L ~ ~ Q F K & 6 I I P L G L I L P J J I J G J 5 5 G J J C G G I J G H @.*.J G F M   D H J G F K L F F F K L L P K H * 3 F G G B B G +.G F F B G B ",
"K K K ~ K K L P L P Q K F * 6 P I L @.L $.I L L H I J I F J 5 5 G J H F G G J G G F J -.I F F m . C G G G F F G G K K F K I F F C 1 t e G G B B B +.G B F F +.G ",
"Z N A A A m C A C Q C C Z * 3 K L F K K K F F H I K H H F K 1 3 C F F C F H F F F C I $.J H F 0 . V F F K F K K F M M C K M M B C 1 > q F B M w F F r M M M M M ",
"; ; ; ; > # > 5 2 < < ; ; - ; p t 5 5 2 5 2 = = 5 5 > 5 5 3 = - g y 6 ; 6 5 5 ; 5 5 5 6 6 3 6 2 : S d 5 6 2 5 2 2 - ; ; 5 6 5 5 5 : ; k 6 2 6 2 3 3 & > t ; t ; ",
"K K P K K @ Z K Q I K K P K K F A K K P P C ; i C A M C C C C D K C K H C H C 6 j C H K P M F K I I K K K C K K m < C F K L G B F F F F F G G G K H - D P P I K ",
"K J I F L o N L L L L L L L K L F G G L L G 2 5 G G G G G G J J L F I @.G F r 6 : H J F F F K G H C K B L L K B D : w r G G G r G L G w G G +.G F M # M H F K B ",
"I I I K F # N I ~ P P L P I L G L K J G L G 2 5 F G I F G L P L F F I I L F r 6 - F I H F F F L F F K L F P K K V * M G +.G B G G +.B B G +.G G r G & Z F F G G ",
"I L I L I o N I ~ L L L I @.G F G K J F F G 5 ; J L L F L I I L F L I $.L G F 8 $ F P F K F K L L K B K L K K B M * m G G r B +.+.G F G +.+.+.G r B # M K F K F "
};
